<svg width="728" height="713" viewBox="0 0 728 713" fill="none" xmlns="http://www.w3.org/2000/svg">
<g opacity="0.18" filter="url(#filter0_f_531_1137)">
<path fill-rule="evenodd" clip-rule="evenodd" d="M361.102 51.6459C404.367 54.0961 447.435 67.1715 482.979 91.9515C516.73 115.481 528.955 158.731 557.374 188.478C588.883 221.459 640.078 235.622 659.612 276.837C679.474 318.744 684.164 372.214 664.324 414.132C644.269 456.503 579.347 459.359 554.429 499.067C524.991 545.977 561.378 633.058 511.64 657.437C462.104 681.717 415.726 601.568 361.102 593.825C316.514 587.505 274.214 624.994 229.81 617.486C182.197 609.436 129.096 591.236 103.541 550.276C77.5801 508.666 106.14 453.374 97.3217 405.133C88.9629 359.403 40.249 319.343 53.1666 274.686C66.2921 229.309 129.1 220.281 160.898 185.342C190.248 153.093 196.123 101.978 232.389 77.7601C269.255 53.1412 316.839 49.1392 361.102 51.6459Z" fill="url(#paint0_diamond_531_1137)"/>
</g>
<g filter="url(#filter1_d_531_1137)">
<rect x="168" y="120" width="392" height="474" rx="10" fill="white"/>
<rect x="168.5" y="120.5" width="391" height="473" rx="9.5" stroke="#1A8FE3" stroke-opacity="0.5"/>
</g>
<path d="M262.728 176V158.12H268.56C270.448 158.12 272.088 158.504 273.48 159.272C274.888 160.024 275.976 161.072 276.744 162.416C277.512 163.744 277.896 165.288 277.896 167.048C277.896 168.792 277.512 170.344 276.744 171.704C275.976 173.048 274.888 174.104 273.48 174.872C272.088 175.624 270.448 176 268.56 176H262.728ZM265.992 173.12H268.632C269.848 173.12 270.896 172.872 271.776 172.376C272.672 171.864 273.368 171.16 273.864 170.264C274.36 169.352 274.608 168.28 274.608 167.048C274.608 165.8 274.36 164.728 273.864 163.832C273.368 162.936 272.672 162.24 271.776 161.744C270.896 161.248 269.848 161 268.632 161H265.992V173.12ZM286.614 176.288C285.334 176.288 284.166 175.992 283.11 175.4C282.07 174.808 281.238 174 280.614 172.976C280.006 171.952 279.702 170.784 279.702 169.472C279.702 168.16 280.006 166.992 280.614 165.968C281.238 164.944 282.07 164.136 283.11 163.544C284.15 162.952 285.318 162.656 286.614 162.656C287.894 162.656 289.054 162.952 290.094 163.544C291.134 164.136 291.958 164.944 292.566 165.968C293.19 166.976 293.502 168.144 293.502 169.472C293.502 170.784 293.19 171.952 292.566 172.976C291.942 174 291.11 174.808 290.07 175.4C289.03 175.992 287.878 176.288 286.614 176.288ZM286.614 173.408C287.318 173.408 287.934 173.24 288.462 172.904C289.006 172.568 289.43 172.104 289.734 171.512C290.054 170.904 290.214 170.224 290.214 169.472C290.214 168.704 290.054 168.032 289.734 167.456C289.43 166.864 289.006 166.4 288.462 166.064C287.934 165.712 287.318 165.536 286.614 165.536C285.894 165.536 285.262 165.712 284.718 166.064C284.174 166.4 283.742 166.864 283.422 167.456C283.118 168.032 282.966 168.704 282.966 169.472C282.966 170.224 283.118 170.904 283.422 171.512C283.742 172.104 284.174 172.568 284.718 172.904C285.262 173.24 285.894 173.408 286.614 173.408ZM295.886 176V162.944H298.838V165.512L298.598 165.056C298.902 164.272 299.398 163.68 300.086 163.28C300.79 162.864 301.606 162.656 302.534 162.656C303.494 162.656 304.342 162.864 305.078 163.28C305.83 163.696 306.414 164.28 306.83 165.032C307.246 165.768 307.454 166.624 307.454 167.6V176H304.31V168.344C304.31 167.768 304.198 167.272 303.974 166.856C303.75 166.44 303.438 166.12 303.038 165.896C302.654 165.656 302.198 165.536 301.67 165.536C301.158 165.536 300.702 165.656 300.302 165.896C299.902 166.12 299.59 166.44 299.366 166.856C299.142 167.272 299.03 167.768 299.03 168.344V176H295.886ZM314.072 176.288C313.16 176.288 312.368 176.136 311.696 175.832C311.024 175.528 310.504 175.096 310.136 174.536C309.768 173.96 309.584 173.296 309.584 172.544C309.584 171.824 309.744 171.184 310.064 170.624C310.384 170.048 310.88 169.568 311.552 169.184C312.224 168.8 313.072 168.528 314.096 168.368L318.368 167.672V170.072L314.696 170.696C314.072 170.808 313.608 171.008 313.304 171.296C313 171.584 312.848 171.96 312.848 172.424C312.848 172.872 313.016 173.232 313.352 173.504C313.704 173.76 314.136 173.888 314.648 173.888C315.304 173.888 315.88 173.752 316.376 173.48C316.888 173.192 317.28 172.8 317.552 172.304C317.84 171.808 317.984 171.264 317.984 170.672V167.312C317.984 166.752 317.76 166.288 317.312 165.92C316.88 165.536 316.304 165.344 315.584 165.344C314.912 165.344 314.312 165.528 313.784 165.896C313.272 166.248 312.896 166.72 312.656 167.312L310.088 166.064C310.344 165.376 310.744 164.784 311.288 164.288C311.848 163.776 312.504 163.376 313.256 163.088C314.008 162.8 314.824 162.656 315.704 162.656C316.776 162.656 317.72 162.856 318.536 163.256C319.352 163.64 319.984 164.184 320.432 164.888C320.896 165.576 321.128 166.384 321.128 167.312V176H318.152V173.768L318.824 173.72C318.488 174.28 318.088 174.752 317.624 175.136C317.16 175.504 316.632 175.792 316.04 176C315.448 176.192 314.792 176.288 314.072 176.288ZM329.752 176.144C328.28 176.144 327.136 175.744 326.32 174.944C325.52 174.128 325.12 172.984 325.12 171.512V165.752H322.864V162.944H323.104C323.744 162.944 324.24 162.776 324.592 162.44C324.944 162.104 325.12 161.616 325.12 160.976V159.968H328.264V162.944H331.264V165.752H328.264V171.344C328.264 171.776 328.336 172.144 328.48 172.448C328.64 172.752 328.88 172.984 329.2 173.144C329.536 173.304 329.96 173.384 330.472 173.384C330.584 173.384 330.712 173.376 330.856 173.36C331.016 173.344 331.168 173.328 331.312 173.312V176C331.088 176.032 330.832 176.064 330.544 176.096C330.256 176.128 329.992 176.144 329.752 176.144ZM333.714 176V162.944H336.858V176H333.714ZM333.714 161.48V158.12H336.858V161.48H333.714ZM346.145 176.288C344.865 176.288 343.697 175.992 342.641 175.4C341.601 174.808 340.769 174 340.145 172.976C339.537 171.952 339.233 170.784 339.233 169.472C339.233 168.16 339.537 166.992 340.145 165.968C340.769 164.944 341.601 164.136 342.641 163.544C343.681 162.952 344.849 162.656 346.145 162.656C347.425 162.656 348.585 162.952 349.625 163.544C350.665 164.136 351.489 164.944 352.097 165.968C352.721 166.976 353.033 168.144 353.033 169.472C353.033 170.784 352.721 171.952 352.097 172.976C351.473 174 350.641 174.808 349.601 175.4C348.561 175.992 347.409 176.288 346.145 176.288ZM346.145 173.408C346.849 173.408 347.465 173.24 347.993 172.904C348.537 172.568 348.961 172.104 349.265 171.512C349.585 170.904 349.745 170.224 349.745 169.472C349.745 168.704 349.585 168.032 349.265 167.456C348.961 166.864 348.537 166.4 347.993 166.064C347.465 165.712 346.849 165.536 346.145 165.536C345.425 165.536 344.793 165.712 344.249 166.064C343.705 166.4 343.273 166.864 342.953 167.456C342.649 168.032 342.497 168.704 342.497 169.472C342.497 170.224 342.649 170.904 342.953 171.512C343.273 172.104 343.705 172.568 344.249 172.904C344.793 173.24 345.425 173.408 346.145 173.408ZM355.417 176V162.944H358.369V165.512L358.129 165.056C358.433 164.272 358.929 163.68 359.617 163.28C360.321 162.864 361.137 162.656 362.065 162.656C363.025 162.656 363.873 162.864 364.609 163.28C365.361 163.696 365.945 164.28 366.361 165.032C366.777 165.768 366.985 166.624 366.985 167.6V176H363.841V168.344C363.841 167.768 363.729 167.272 363.505 166.856C363.281 166.44 362.969 166.12 362.569 165.896C362.185 165.656 361.729 165.536 361.201 165.536C360.689 165.536 360.233 165.656 359.833 165.896C359.433 166.12 359.121 166.44 358.897 166.856C358.673 167.272 358.561 167.768 358.561 168.344V176H355.417ZM372.709 176L378.877 158.12H383.101L389.269 176H385.717L384.445 172.16H377.533L376.237 176H372.709ZM378.469 169.28H383.509L380.533 160.376H381.445L378.469 169.28ZM390.995 176V162.944H393.947V165.968L393.611 165.464C393.851 164.52 394.331 163.816 395.051 163.352C395.771 162.888 396.619 162.656 397.595 162.656C398.667 162.656 399.611 162.936 400.427 163.496C401.243 164.056 401.771 164.792 402.011 165.704L401.123 165.776C401.523 164.736 402.123 163.96 402.923 163.448C403.723 162.92 404.643 162.656 405.683 162.656C406.611 162.656 407.435 162.864 408.155 163.28C408.891 163.696 409.467 164.28 409.883 165.032C410.299 165.768 410.507 166.624 410.507 167.6V176H407.363V168.344C407.363 167.768 407.259 167.272 407.051 166.856C406.843 166.44 406.555 166.12 406.187 165.896C405.819 165.656 405.371 165.536 404.843 165.536C404.347 165.536 403.907 165.656 403.523 165.896C403.139 166.12 402.843 166.44 402.635 166.856C402.427 167.272 402.323 167.768 402.323 168.344V176H399.179V168.344C399.179 167.768 399.075 167.272 398.867 166.856C398.659 166.44 398.363 166.12 397.979 165.896C397.611 165.656 397.171 165.536 396.659 165.536C396.163 165.536 395.723 165.656 395.339 165.896C394.955 166.12 394.659 166.44 394.451 166.856C394.243 167.272 394.139 167.768 394.139 168.344V176H390.995ZM419.551 176.288C418.271 176.288 417.103 175.992 416.047 175.4C415.007 174.808 414.175 174 413.551 172.976C412.943 171.952 412.639 170.784 412.639 169.472C412.639 168.16 412.943 166.992 413.551 165.968C414.175 164.944 415.007 164.136 416.047 163.544C417.087 162.952 418.255 162.656 419.551 162.656C420.831 162.656 421.991 162.952 423.031 163.544C424.071 164.136 424.895 164.944 425.503 165.968C426.127 166.976 426.439 168.144 426.439 169.472C426.439 170.784 426.127 171.952 425.503 172.976C424.879 174 424.047 174.808 423.007 175.4C421.967 175.992 420.815 176.288 419.551 176.288ZM419.551 173.408C420.255 173.408 420.871 173.24 421.399 172.904C421.943 172.568 422.367 172.104 422.671 171.512C422.991 170.904 423.151 170.224 423.151 169.472C423.151 168.704 422.991 168.032 422.671 167.456C422.367 166.864 421.943 166.4 421.399 166.064C420.871 165.712 420.255 165.536 419.551 165.536C418.831 165.536 418.199 165.712 417.655 166.064C417.111 166.4 416.679 166.864 416.359 167.456C416.055 168.032 415.903 168.704 415.903 169.472C415.903 170.224 416.055 170.904 416.359 171.512C416.679 172.104 417.111 172.568 417.655 172.904C418.199 173.24 418.831 173.408 419.551 173.408ZM433.479 176.288C432.471 176.288 431.591 176.064 430.839 175.616C430.103 175.168 429.535 174.544 429.135 173.744C428.751 172.944 428.559 172.008 428.559 170.936V162.944H431.703V170.672C431.703 171.216 431.807 171.696 432.015 172.112C432.239 172.512 432.551 172.832 432.951 173.072C433.367 173.296 433.831 173.408 434.343 173.408C434.855 173.408 435.311 173.296 435.711 173.072C436.111 172.832 436.423 172.504 436.647 172.088C436.871 171.672 436.983 171.176 436.983 170.6V162.944H440.127V176H437.151V173.432L437.415 173.888C437.111 174.688 436.607 175.288 435.903 175.688C435.215 176.088 434.407 176.288 433.479 176.288ZM443.05 176V162.944H446.002V165.512L445.762 165.056C446.066 164.272 446.562 163.68 447.25 163.28C447.954 162.864 448.77 162.656 449.698 162.656C450.658 162.656 451.506 162.864 452.242 163.28C452.994 163.696 453.578 164.28 453.994 165.032C454.41 165.768 454.618 166.624 454.618 167.6V176H451.474V168.344C451.474 167.768 451.362 167.272 451.138 166.856C450.914 166.44 450.602 166.12 450.202 165.896C449.818 165.656 449.362 165.536 448.834 165.536C448.322 165.536 447.866 165.656 447.466 165.896C447.066 166.12 446.754 166.44 446.53 166.856C446.306 167.272 446.194 167.768 446.194 168.344V176H443.05ZM463.229 176.144C461.757 176.144 460.613 175.744 459.797 174.944C458.997 174.128 458.597 172.984 458.597 171.512V165.752H456.341V162.944H456.581C457.221 162.944 457.717 162.776 458.069 162.44C458.421 162.104 458.597 161.616 458.597 160.976V159.968H461.741V162.944H464.741V165.752H461.741V171.344C461.741 171.776 461.813 172.144 461.957 172.448C462.117 172.752 462.357 172.984 462.677 173.144C463.013 173.304 463.437 173.384 463.949 173.384C464.061 173.384 464.189 173.376 464.333 173.36C464.493 173.344 464.645 173.328 464.789 173.312V176C464.565 176.032 464.309 176.064 464.021 176.096C463.733 176.128 463.469 176.144 463.229 176.144Z" fill="#353535"/>
<rect x="210.5" y="215.5" width="306" height="39" rx="9.5" stroke="#1A8FE3"/>
<path d="M210 225C210 219.477 214.477 215 220 215H368V255H220C214.477 255 210 250.523 210 245V225Z" fill="#1A8FE3"/>
<path d="M260.146 241.168C259.381 241.168 258.667 241.033 258.004 240.762C257.341 240.491 256.763 240.113 256.268 239.628C255.773 239.143 255.386 238.573 255.106 237.92C254.835 237.257 254.7 236.543 254.7 235.778C254.7 235.003 254.835 234.289 255.106 233.636C255.377 232.983 255.759 232.413 256.254 231.928C256.749 231.443 257.327 231.069 257.99 230.808C258.653 230.537 259.371 230.402 260.146 230.402C260.921 230.402 261.639 230.537 262.302 230.808C262.965 231.079 263.543 231.457 264.038 231.942C264.533 232.418 264.915 232.983 265.186 233.636C265.466 234.289 265.606 235.003 265.606 235.778C265.606 236.543 265.466 237.257 265.186 237.92C264.906 238.573 264.519 239.143 264.024 239.628C263.529 240.113 262.951 240.491 262.288 240.762C261.635 241.033 260.921 241.168 260.146 241.168ZM260.146 239.432C260.659 239.432 261.131 239.343 261.56 239.166C261.989 238.979 262.363 238.723 262.68 238.396C263.007 238.069 263.254 237.682 263.422 237.234C263.599 236.786 263.688 236.301 263.688 235.778C263.688 235.255 263.599 234.775 263.422 234.336C263.254 233.888 263.007 233.501 262.68 233.174C262.363 232.838 261.989 232.581 261.56 232.404C261.131 232.227 260.659 232.138 260.146 232.138C259.642 232.138 259.175 232.227 258.746 232.404C258.317 232.581 257.939 232.838 257.612 233.174C257.295 233.501 257.047 233.888 256.87 234.336C256.693 234.775 256.604 235.255 256.604 235.778C256.604 236.301 256.693 236.786 256.87 237.234C257.047 237.682 257.295 238.069 257.612 238.396C257.939 238.723 258.317 238.979 258.746 239.166C259.175 239.343 259.642 239.432 260.146 239.432ZM267.145 241V233.384H268.867V234.882L268.727 234.616C268.904 234.159 269.194 233.813 269.595 233.58C270.006 233.337 270.482 233.216 271.023 233.216C271.583 233.216 272.078 233.337 272.507 233.58C272.946 233.823 273.286 234.163 273.529 234.602C273.772 235.031 273.893 235.531 273.893 236.1V241H272.059V236.534C272.059 236.198 271.994 235.909 271.863 235.666C271.732 235.423 271.55 235.237 271.317 235.106C271.093 234.966 270.827 234.896 270.519 234.896C270.22 234.896 269.954 234.966 269.721 235.106C269.488 235.237 269.306 235.423 269.175 235.666C269.044 235.909 268.979 236.198 268.979 236.534V241H267.145ZM279.056 241.168C278.272 241.168 277.586 240.991 276.998 240.636C276.41 240.281 275.953 239.801 275.626 239.194C275.299 238.587 275.136 237.915 275.136 237.178C275.136 236.413 275.299 235.736 275.626 235.148C275.962 234.551 276.415 234.079 276.984 233.734C277.563 233.389 278.207 233.216 278.916 233.216C279.513 233.216 280.036 233.314 280.484 233.51C280.941 233.706 281.329 233.977 281.646 234.322C281.963 234.667 282.206 235.064 282.374 235.512C282.542 235.951 282.626 236.427 282.626 236.94C282.626 237.071 282.617 237.206 282.598 237.346C282.589 237.486 282.565 237.607 282.528 237.71H276.648V236.31H281.492L280.624 236.968C280.708 236.539 280.685 236.156 280.554 235.82C280.433 235.484 280.227 235.218 279.938 235.022C279.658 234.826 279.317 234.728 278.916 234.728C278.533 234.728 278.193 234.826 277.894 235.022C277.595 235.209 277.367 235.489 277.208 235.862C277.059 236.226 277.003 236.669 277.04 237.192C277.003 237.659 277.063 238.074 277.222 238.438C277.39 238.793 277.633 239.068 277.95 239.264C278.277 239.46 278.65 239.558 279.07 239.558C279.49 239.558 279.845 239.469 280.134 239.292C280.433 239.115 280.666 238.877 280.834 238.578L282.318 239.306C282.169 239.67 281.935 239.992 281.618 240.272C281.301 240.552 280.923 240.771 280.484 240.93C280.055 241.089 279.579 241.168 279.056 241.168ZM284.394 238.004V236.394H290.344V238.004H284.394ZM295.883 241.084C295.024 241.084 294.357 240.851 293.881 240.384C293.414 239.908 293.181 239.241 293.181 238.382V235.022H291.865V233.384H292.005C292.378 233.384 292.667 233.286 292.873 233.09C293.078 232.894 293.181 232.609 293.181 232.236V231.648H295.015V233.384H296.765V235.022H295.015V238.284C295.015 238.536 295.057 238.751 295.141 238.928C295.234 239.105 295.374 239.241 295.561 239.334C295.757 239.427 296.004 239.474 296.303 239.474C296.368 239.474 296.443 239.469 296.527 239.46C296.62 239.451 296.709 239.441 296.793 239.432V241C296.662 241.019 296.513 241.037 296.345 241.056C296.177 241.075 296.023 241.084 295.883 241.084ZM298.194 241V233.384H300.028V241H298.194ZM298.194 232.53V230.57H300.028V232.53H298.194ZM301.721 241V233.384H303.443V235.148L303.247 234.854C303.387 234.303 303.667 233.893 304.087 233.622C304.507 233.351 305.002 233.216 305.571 233.216C306.197 233.216 306.747 233.379 307.223 233.706C307.699 234.033 308.007 234.462 308.147 234.994L307.629 235.036C307.863 234.429 308.213 233.977 308.679 233.678C309.146 233.37 309.683 233.216 310.289 233.216C310.831 233.216 311.311 233.337 311.731 233.58C312.161 233.823 312.497 234.163 312.739 234.602C312.982 235.031 313.103 235.531 313.103 236.1V241H311.269V236.534C311.269 236.198 311.209 235.909 311.087 235.666C310.966 235.423 310.798 235.237 310.583 235.106C310.369 234.966 310.107 234.896 309.799 234.896C309.51 234.896 309.253 234.966 309.029 235.106C308.805 235.237 308.633 235.423 308.511 235.666C308.39 235.909 308.329 236.198 308.329 236.534V241H306.495V236.534C306.495 236.198 306.435 235.909 306.313 235.666C306.192 235.423 306.019 235.237 305.795 235.106C305.581 234.966 305.324 234.896 305.025 234.896C304.736 234.896 304.479 234.966 304.255 235.106C304.031 235.237 303.859 235.423 303.737 235.666C303.616 235.909 303.555 236.198 303.555 236.534V241H301.721ZM318.267 241.168C317.483 241.168 316.797 240.991 316.209 240.636C315.621 240.281 315.163 239.801 314.837 239.194C314.51 238.587 314.347 237.915 314.347 237.178C314.347 236.413 314.51 235.736 314.837 235.148C315.173 234.551 315.625 234.079 316.195 233.734C316.773 233.389 317.417 233.216 318.127 233.216C318.724 233.216 319.247 233.314 319.695 233.51C320.152 233.706 320.539 233.977 320.857 234.322C321.174 234.667 321.417 235.064 321.585 235.512C321.753 235.951 321.837 236.427 321.837 236.94C321.837 237.071 321.827 237.206 321.809 237.346C321.799 237.486 321.776 237.607 321.739 237.71H315.859V236.31H320.703L319.835 236.968C319.919 236.539 319.895 236.156 319.765 235.82C319.643 235.484 319.438 235.218 319.149 235.022C318.869 234.826 318.528 234.728 318.127 234.728C317.744 234.728 317.403 234.826 317.105 235.022C316.806 235.209 316.577 235.489 316.419 235.862C316.269 236.226 316.213 236.669 316.251 237.192C316.213 237.659 316.274 238.074 316.433 238.438C316.601 238.793 316.843 239.068 317.161 239.264C317.487 239.46 317.861 239.558 318.281 239.558C318.701 239.558 319.055 239.469 319.345 239.292C319.643 239.115 319.877 238.877 320.045 238.578L321.529 239.306C321.379 239.67 321.146 239.992 320.829 240.272C320.511 240.552 320.133 240.771 319.695 240.93C319.265 241.089 318.789 241.168 318.267 241.168Z" fill="white"/>
<path d="M419.954 241L417.154 230.57H419.198L421.396 239.46H420.864L423.16 230.57H425.134L427.416 239.46H426.884L429.082 230.57H431.126L428.326 241H426.142L423.832 232.348H424.448L422.138 241H419.954ZM435.288 241.168C434.504 241.168 433.818 240.991 433.23 240.636C432.642 240.281 432.185 239.801 431.858 239.194C431.532 238.587 431.368 237.915 431.368 237.178C431.368 236.413 431.532 235.736 431.858 235.148C432.194 234.551 432.647 234.079 433.216 233.734C433.795 233.389 434.439 233.216 435.148 233.216C435.746 233.216 436.268 233.314 436.716 233.51C437.174 233.706 437.561 233.977 437.878 234.322C438.196 234.667 438.438 235.064 438.606 235.512C438.774 235.951 438.858 236.427 438.858 236.94C438.858 237.071 438.849 237.206 438.83 237.346C438.821 237.486 438.798 237.607 438.76 237.71H432.88V236.31H437.724L436.856 236.968C436.94 236.539 436.917 236.156 436.786 235.82C436.665 235.484 436.46 235.218 436.17 235.022C435.89 234.826 435.55 234.728 435.148 234.728C434.766 234.728 434.425 234.826 434.126 235.022C433.828 235.209 433.599 235.489 433.44 235.862C433.291 236.226 433.235 236.669 433.272 237.192C433.235 237.659 433.296 238.074 433.454 238.438C433.622 238.793 433.865 239.068 434.182 239.264C434.509 239.46 434.882 239.558 435.302 239.558C435.722 239.558 436.077 239.469 436.366 239.292C436.665 239.115 436.898 238.877 437.066 238.578L438.55 239.306C438.401 239.67 438.168 239.992 437.85 240.272C437.533 240.552 437.155 240.771 436.716 240.93C436.287 241.089 435.811 241.168 435.288 241.168ZM443.861 241.168C443.077 241.168 442.391 240.991 441.803 240.636C441.215 240.281 440.757 239.801 440.431 239.194C440.104 238.587 439.941 237.915 439.941 237.178C439.941 236.413 440.104 235.736 440.431 235.148C440.767 234.551 441.219 234.079 441.789 233.734C442.367 233.389 443.011 233.216 443.721 233.216C444.318 233.216 444.841 233.314 445.289 233.51C445.746 233.706 446.133 233.977 446.451 234.322C446.768 234.667 447.011 235.064 447.179 235.512C447.347 235.951 447.431 236.427 447.431 236.94C447.431 237.071 447.421 237.206 447.403 237.346C447.393 237.486 447.37 237.607 447.333 237.71H441.453V236.31H446.297L445.429 236.968C445.513 236.539 445.489 236.156 445.359 235.82C445.237 235.484 445.032 235.218 444.743 235.022C444.463 234.826 444.122 234.728 443.721 234.728C443.338 234.728 442.997 234.826 442.699 235.022C442.4 235.209 442.171 235.489 442.013 235.862C441.863 236.226 441.807 236.669 441.845 237.192C441.807 237.659 441.868 238.074 442.027 238.438C442.195 238.793 442.437 239.068 442.755 239.264C443.081 239.46 443.455 239.558 443.875 239.558C444.295 239.558 444.649 239.469 444.939 239.292C445.237 239.115 445.471 238.877 445.639 238.578L447.123 239.306C446.973 239.67 446.74 239.992 446.423 240.272C446.105 240.552 445.727 240.771 445.289 240.93C444.859 241.089 444.383 241.168 443.861 241.168ZM448.821 241V230.402H450.655V237.346L449.955 237.136L453.539 233.384H455.821L453.007 236.45L455.877 241H453.777L451.285 237.052L452.377 236.828L450.081 239.292L450.655 238.172V241H448.821ZM456.901 241V230.402H458.735V241H456.901ZM461.352 244.094C461.147 244.094 460.946 244.075 460.75 244.038C460.554 244.01 460.377 243.959 460.218 243.884V242.344C460.34 242.372 460.484 242.4 460.652 242.428C460.83 242.456 460.993 242.47 461.142 242.47C461.562 242.47 461.866 242.372 462.052 242.176C462.248 241.98 462.421 241.723 462.57 241.406L463.074 240.23L463.046 241.77L459.728 233.384H461.702L464.026 239.572H463.326L465.636 233.384H467.624L464.306 241.77C464.11 242.265 463.872 242.685 463.592 243.03C463.312 243.375 462.986 243.637 462.612 243.814C462.248 244.001 461.828 244.094 461.352 244.094Z" fill="#1A8FE3" fill-opacity="0.5"/>
<g filter="url(#filter2_d_531_1137)">
<rect x="204" y="308" width="100" height="36" rx="5" fill="white"/>
<rect x="204.25" y="308.25" width="99.5" height="35.5" rx="4.75" stroke="#D3D3D3" stroke-width="0.5"/>
</g>
<path d="M234.158 332.168C233.607 332.168 233.08 332.065 232.576 331.86C232.081 331.655 231.652 331.365 231.288 330.992C230.933 330.609 230.691 330.157 230.56 329.634L232.212 329.046C232.371 329.522 232.627 329.877 232.982 330.11C233.337 330.334 233.729 330.446 234.158 330.446C234.513 330.446 234.825 330.371 235.096 330.222C235.376 330.063 235.591 329.849 235.74 329.578C235.889 329.298 235.964 328.976 235.964 328.612C235.964 328.248 235.885 327.931 235.726 327.66C235.577 327.389 235.367 327.179 235.096 327.03C234.825 326.871 234.513 326.792 234.158 326.792C233.794 326.792 233.463 326.871 233.164 327.03C232.875 327.189 232.665 327.417 232.534 327.716L230.98 327.366L231.806 321.57H237.49V323.18H232.562L233.276 322.354L232.688 326.722L232.142 326.274C232.403 325.891 232.721 325.611 233.094 325.434C233.477 325.257 233.939 325.168 234.48 325.168C235.171 325.168 235.768 325.317 236.272 325.616C236.785 325.915 237.182 326.321 237.462 326.834C237.742 327.347 237.882 327.94 237.882 328.612C237.882 329.284 237.719 329.891 237.392 330.432C237.065 330.973 236.622 331.398 236.062 331.706C235.502 332.014 234.867 332.168 234.158 332.168ZM243.569 332.168C242.739 332.168 242.011 331.944 241.385 331.496C240.76 331.048 240.27 330.418 239.915 329.606C239.57 328.794 239.397 327.851 239.397 326.778C239.397 325.695 239.57 324.753 239.915 323.95C240.261 323.147 240.746 322.522 241.371 322.074C241.997 321.626 242.725 321.402 243.555 321.402C244.405 321.402 245.137 321.626 245.753 322.074C246.379 322.522 246.869 323.152 247.223 323.964C247.578 324.767 247.755 325.705 247.755 326.778C247.755 327.851 247.578 328.794 247.223 329.606C246.878 330.409 246.393 331.039 245.767 331.496C245.142 331.944 244.409 332.168 243.569 332.168ZM243.583 330.432C244.059 330.432 244.465 330.287 244.801 329.998C245.137 329.699 245.394 329.279 245.571 328.738C245.758 328.187 245.851 327.534 245.851 326.778C245.851 326.022 245.758 325.373 245.571 324.832C245.394 324.281 245.133 323.861 244.787 323.572C244.451 323.283 244.041 323.138 243.555 323.138C243.089 323.138 242.687 323.283 242.351 323.572C242.015 323.861 241.754 324.281 241.567 324.832C241.39 325.373 241.301 326.022 241.301 326.778C241.301 327.525 241.39 328.173 241.567 328.724C241.754 329.265 242.015 329.685 242.351 329.984C242.697 330.283 243.107 330.432 243.583 330.432ZM253.481 332.168C252.651 332.168 251.923 331.944 251.297 331.496C250.672 331.048 250.182 330.418 249.827 329.606C249.482 328.794 249.309 327.851 249.309 326.778C249.309 325.695 249.482 324.753 249.827 323.95C250.173 323.147 250.658 322.522 251.283 322.074C251.909 321.626 252.637 321.402 253.467 321.402C254.317 321.402 255.049 321.626 255.665 322.074C256.291 322.522 256.781 323.152 257.135 323.964C257.49 324.767 257.667 325.705 257.667 326.778C257.667 327.851 257.49 328.794 257.135 329.606C256.79 330.409 256.305 331.039 255.679 331.496C255.054 331.944 254.321 332.168 253.481 332.168ZM253.495 330.432C253.971 330.432 254.377 330.287 254.713 329.998C255.049 329.699 255.306 329.279 255.483 328.738C255.67 328.187 255.763 327.534 255.763 326.778C255.763 326.022 255.67 325.373 255.483 324.832C255.306 324.281 255.045 323.861 254.699 323.572C254.363 323.283 253.953 323.138 253.467 323.138C253.001 323.138 252.599 323.283 252.263 323.572C251.927 323.861 251.666 324.281 251.479 324.832C251.302 325.373 251.213 326.022 251.213 326.778C251.213 327.525 251.302 328.173 251.479 328.724C251.666 329.265 251.927 329.685 252.263 329.984C252.609 330.283 253.019 330.432 253.495 330.432ZM261.934 332V321.57H263.838V327.002L263.32 326.82L267.758 321.57H270.152L265.994 326.498L266.106 325.154L270.278 332H268.038L265.238 327.408L263.838 329.074V332H261.934ZM274.043 332.168C273.231 332.168 272.522 331.977 271.915 331.594C271.318 331.202 270.907 330.675 270.683 330.012L272.055 329.354C272.251 329.783 272.522 330.119 272.867 330.362C273.222 330.605 273.614 330.726 274.043 330.726C274.379 330.726 274.645 330.651 274.841 330.502C275.037 330.353 275.135 330.157 275.135 329.914C275.135 329.765 275.093 329.643 275.009 329.55C274.934 329.447 274.827 329.363 274.687 329.298C274.556 329.223 274.412 329.163 274.253 329.116L273.007 328.766C272.363 328.579 271.873 328.295 271.537 327.912C271.21 327.529 271.047 327.077 271.047 326.554C271.047 326.087 271.164 325.681 271.397 325.336C271.64 324.981 271.971 324.706 272.391 324.51C272.82 324.314 273.31 324.216 273.861 324.216C274.58 324.216 275.214 324.389 275.765 324.734C276.316 325.079 276.708 325.565 276.941 326.19L275.541 326.848C275.41 326.503 275.191 326.227 274.883 326.022C274.575 325.817 274.23 325.714 273.847 325.714C273.539 325.714 273.296 325.784 273.119 325.924C272.942 326.064 272.853 326.246 272.853 326.47C272.853 326.61 272.89 326.731 272.965 326.834C273.04 326.937 273.142 327.021 273.273 327.086C273.413 327.151 273.572 327.212 273.749 327.268L274.967 327.632C275.592 327.819 276.073 328.099 276.409 328.472C276.754 328.845 276.927 329.303 276.927 329.844C276.927 330.301 276.806 330.707 276.563 331.062C276.32 331.407 275.984 331.678 275.555 331.874C275.126 332.07 274.622 332.168 274.043 332.168Z" fill="#9A9A9A"/>
<g filter="url(#filter3_d_531_1137)">
<rect x="317" y="308" width="100" height="36" rx="5" fill="white"/>
<rect x="317.25" y="308.25" width="99.5" height="35.5" rx="4.75" stroke="#D3D3D3" stroke-width="0.5"/>
</g>
<path d="M341.422 332V323.194H339.406V321.57H343.326V332H341.422ZM349.602 332.168C348.772 332.168 348.044 331.944 347.418 331.496C346.793 331.048 346.303 330.418 345.948 329.606C345.603 328.794 345.43 327.851 345.43 326.778C345.43 325.695 345.603 324.753 345.948 323.95C346.294 323.147 346.779 322.522 347.404 322.074C348.03 321.626 348.758 321.402 349.588 321.402C350.438 321.402 351.17 321.626 351.786 322.074C352.412 322.522 352.902 323.152 353.256 323.964C353.611 324.767 353.788 325.705 353.788 326.778C353.788 327.851 353.611 328.794 353.256 329.606C352.911 330.409 352.426 331.039 351.8 331.496C351.175 331.944 350.442 332.168 349.602 332.168ZM349.616 330.432C350.092 330.432 350.498 330.287 350.834 329.998C351.17 329.699 351.427 329.279 351.604 328.738C351.791 328.187 351.884 327.534 351.884 326.778C351.884 326.022 351.791 325.373 351.604 324.832C351.427 324.281 351.166 323.861 350.82 323.572C350.484 323.283 350.074 323.138 349.588 323.138C349.122 323.138 348.72 323.283 348.384 323.572C348.048 323.861 347.787 324.281 347.6 324.832C347.423 325.373 347.334 326.022 347.334 326.778C347.334 327.525 347.423 328.173 347.6 328.724C347.787 329.265 348.048 329.685 348.384 329.984C348.73 330.283 349.14 330.432 349.616 330.432ZM359.515 332.168C358.684 332.168 357.956 331.944 357.331 331.496C356.705 331.048 356.215 330.418 355.861 329.606C355.515 328.794 355.343 327.851 355.343 326.778C355.343 325.695 355.515 324.753 355.861 323.95C356.206 323.147 356.691 322.522 357.317 322.074C357.942 321.626 358.67 321.402 359.501 321.402C360.35 321.402 361.083 321.626 361.699 322.074C362.324 322.522 362.814 323.152 363.169 323.964C363.523 324.767 363.701 325.705 363.701 326.778C363.701 327.851 363.523 328.794 363.169 329.606C362.823 330.409 362.338 331.039 361.713 331.496C361.087 331.944 360.355 332.168 359.515 332.168ZM359.529 330.432C360.005 330.432 360.411 330.287 360.747 329.998C361.083 329.699 361.339 329.279 361.517 328.738C361.703 328.187 361.797 327.534 361.797 326.778C361.797 326.022 361.703 325.373 361.517 324.832C361.339 324.281 361.078 323.861 360.733 323.572C360.397 323.283 359.986 323.138 359.501 323.138C359.034 323.138 358.633 323.283 358.297 323.572C357.961 323.861 357.699 324.281 357.513 324.832C357.335 325.373 357.247 326.022 357.247 326.778C357.247 327.525 357.335 328.173 357.513 328.724C357.699 329.265 357.961 329.685 358.297 329.984C358.642 330.283 359.053 330.432 359.529 330.432ZM369.427 332.168C368.596 332.168 367.868 331.944 367.243 331.496C366.617 331.048 366.127 330.418 365.773 329.606C365.427 328.794 365.255 327.851 365.255 326.778C365.255 325.695 365.427 324.753 365.773 323.95C366.118 323.147 366.603 322.522 367.229 322.074C367.854 321.626 368.582 321.402 369.413 321.402C370.262 321.402 370.995 321.626 371.611 322.074C372.236 322.522 372.726 323.152 373.081 323.964C373.435 324.767 373.613 325.705 373.613 326.778C373.613 327.851 373.435 328.794 373.081 329.606C372.735 330.409 372.25 331.039 371.625 331.496C370.999 331.944 370.267 332.168 369.427 332.168ZM369.441 330.432C369.917 330.432 370.323 330.287 370.659 329.998C370.995 329.699 371.251 329.279 371.429 328.738C371.615 328.187 371.709 327.534 371.709 326.778C371.709 326.022 371.615 325.373 371.429 324.832C371.251 324.281 370.99 323.861 370.645 323.572C370.309 323.283 369.898 323.138 369.413 323.138C368.946 323.138 368.545 323.283 368.209 323.572C367.873 323.861 367.611 324.281 367.425 324.832C367.247 325.373 367.159 326.022 367.159 326.778C367.159 327.525 367.247 328.173 367.425 328.724C367.611 329.265 367.873 329.685 368.209 329.984C368.554 330.283 368.965 330.432 369.441 330.432ZM377.879 332V321.57H379.783V327.002L379.265 326.82L383.703 321.57H386.097L381.939 326.498L382.051 325.154L386.223 332H383.983L381.183 327.408L379.783 329.074V332H377.879ZM389.988 332.168C389.176 332.168 388.467 331.977 387.86 331.594C387.263 331.202 386.852 330.675 386.628 330.012L388 329.354C388.196 329.783 388.467 330.119 388.812 330.362C389.167 330.605 389.559 330.726 389.988 330.726C390.324 330.726 390.59 330.651 390.786 330.502C390.982 330.353 391.08 330.157 391.08 329.914C391.08 329.765 391.038 329.643 390.954 329.55C390.88 329.447 390.772 329.363 390.632 329.298C390.502 329.223 390.357 329.163 390.198 329.116L388.952 328.766C388.308 328.579 387.818 328.295 387.482 327.912C387.156 327.529 386.992 327.077 386.992 326.554C386.992 326.087 387.109 325.681 387.342 325.336C387.585 324.981 387.916 324.706 388.336 324.51C388.766 324.314 389.256 324.216 389.806 324.216C390.525 324.216 391.16 324.389 391.71 324.734C392.261 325.079 392.653 325.565 392.886 326.19L391.486 326.848C391.356 326.503 391.136 326.227 390.828 326.022C390.52 325.817 390.175 325.714 389.792 325.714C389.484 325.714 389.242 325.784 389.064 325.924C388.887 326.064 388.798 326.246 388.798 326.47C388.798 326.61 388.836 326.731 388.91 326.834C388.985 326.937 389.088 327.021 389.218 327.086C389.358 327.151 389.517 327.212 389.694 327.268L390.912 327.632C391.538 327.819 392.018 328.099 392.354 328.472C392.7 328.845 392.872 329.303 392.872 329.844C392.872 330.301 392.751 330.707 392.508 331.062C392.266 331.407 391.93 331.678 391.5 331.874C391.071 332.07 390.567 332.168 389.988 332.168Z" fill="#9A9A9A"/>
<g filter="url(#filter4_d_531_1137)">
<rect x="430" y="308" width="100" height="36" rx="5" fill="white"/>
<rect x="430.25" y="308.25" width="99.5" height="35.5" rx="4.75" stroke="#D3D3D3" stroke-width="0.5"/>
</g>
<path d="M451.644 332V330.558L454.472 327.604C455.032 327.016 455.461 326.549 455.76 326.204C456.068 325.849 456.283 325.546 456.404 325.294C456.525 325.042 456.586 324.785 456.586 324.524C456.586 324.085 456.446 323.74 456.166 323.488C455.895 323.236 455.545 323.11 455.116 323.11C454.668 323.11 454.281 323.241 453.954 323.502C453.627 323.754 453.389 324.127 453.24 324.622L451.574 324.104C451.686 323.553 451.915 323.077 452.26 322.676C452.605 322.265 453.025 321.953 453.52 321.738C454.024 321.514 454.556 321.402 455.116 321.402C455.788 321.402 456.376 321.523 456.88 321.766C457.393 322.009 457.79 322.349 458.07 322.788C458.359 323.227 458.504 323.74 458.504 324.328C458.504 324.701 458.434 325.07 458.294 325.434C458.154 325.798 457.944 326.171 457.664 326.554C457.384 326.927 457.02 327.347 456.572 327.814L454.122 330.39H458.644V332H451.644ZM464.31 332.168C463.479 332.168 462.751 331.944 462.126 331.496C461.5 331.048 461.01 330.418 460.656 329.606C460.31 328.794 460.138 327.851 460.138 326.778C460.138 325.695 460.31 324.753 460.656 323.95C461.001 323.147 461.486 322.522 462.112 322.074C462.737 321.626 463.465 321.402 464.296 321.402C465.145 321.402 465.878 321.626 466.494 322.074C467.119 322.522 467.609 323.152 467.964 323.964C468.318 324.767 468.496 325.705 468.496 326.778C468.496 327.851 468.318 328.794 467.964 329.606C467.618 330.409 467.133 331.039 466.508 331.496C465.882 331.944 465.15 332.168 464.31 332.168ZM464.324 330.432C464.8 330.432 465.206 330.287 465.542 329.998C465.878 329.699 466.134 329.279 466.312 328.738C466.498 328.187 466.592 327.534 466.592 326.778C466.592 326.022 466.498 325.373 466.312 324.832C466.134 324.281 465.873 323.861 465.528 323.572C465.192 323.283 464.781 323.138 464.296 323.138C463.829 323.138 463.428 323.283 463.092 323.572C462.756 323.861 462.494 324.281 462.308 324.832C462.13 325.373 462.042 326.022 462.042 326.778C462.042 327.525 462.13 328.173 462.308 328.724C462.494 329.265 462.756 329.685 463.092 329.984C463.437 330.283 463.848 330.432 464.324 330.432ZM474.222 332.168C473.391 332.168 472.663 331.944 472.038 331.496C471.412 331.048 470.922 330.418 470.568 329.606C470.222 328.794 470.05 327.851 470.05 326.778C470.05 325.695 470.222 324.753 470.568 323.95C470.913 323.147 471.398 322.522 472.024 322.074C472.649 321.626 473.377 321.402 474.208 321.402C475.057 321.402 475.79 321.626 476.406 322.074C477.031 322.522 477.521 323.152 477.876 323.964C478.23 324.767 478.408 325.705 478.408 326.778C478.408 327.851 478.23 328.794 477.876 329.606C477.53 330.409 477.045 331.039 476.42 331.496C475.794 331.944 475.062 332.168 474.222 332.168ZM474.236 330.432C474.712 330.432 475.118 330.287 475.454 329.998C475.79 329.699 476.046 329.279 476.224 328.738C476.41 328.187 476.504 327.534 476.504 326.778C476.504 326.022 476.41 325.373 476.224 324.832C476.046 324.281 475.785 323.861 475.44 323.572C475.104 323.283 474.693 323.138 474.208 323.138C473.741 323.138 473.34 323.283 473.004 323.572C472.668 323.861 472.406 324.281 472.22 324.832C472.042 325.373 471.954 326.022 471.954 326.778C471.954 327.525 472.042 328.173 472.22 328.724C472.406 329.265 472.668 329.685 473.004 329.984C473.349 330.283 473.76 330.432 474.236 330.432ZM484.134 332.168C483.303 332.168 482.575 331.944 481.95 331.496C481.324 331.048 480.834 330.418 480.48 329.606C480.134 328.794 479.962 327.851 479.962 326.778C479.962 325.695 480.134 324.753 480.48 323.95C480.825 323.147 481.31 322.522 481.936 322.074C482.561 321.626 483.289 321.402 484.12 321.402C484.969 321.402 485.702 321.626 486.318 322.074C486.943 322.522 487.433 323.152 487.788 323.964C488.142 324.767 488.32 325.705 488.32 326.778C488.32 327.851 488.142 328.794 487.788 329.606C487.442 330.409 486.957 331.039 486.332 331.496C485.706 331.944 484.974 332.168 484.134 332.168ZM484.148 330.432C484.624 330.432 485.03 330.287 485.366 329.998C485.702 329.699 485.958 329.279 486.136 328.738C486.322 328.187 486.416 327.534 486.416 326.778C486.416 326.022 486.322 325.373 486.136 324.832C485.958 324.281 485.697 323.861 485.352 323.572C485.016 323.283 484.605 323.138 484.12 323.138C483.653 323.138 483.252 323.283 482.916 323.572C482.58 323.861 482.318 324.281 482.132 324.832C481.954 325.373 481.866 326.022 481.866 326.778C481.866 327.525 481.954 328.173 482.132 328.724C482.318 329.265 482.58 329.685 482.916 329.984C483.261 330.283 483.672 330.432 484.148 330.432ZM492.586 332V321.57H494.49V327.002L493.972 326.82L498.41 321.57H500.804L496.646 326.498L496.758 325.154L500.93 332H498.69L495.89 327.408L494.49 329.074V332H492.586ZM504.695 332.168C503.883 332.168 503.174 331.977 502.567 331.594C501.97 331.202 501.559 330.675 501.335 330.012L502.707 329.354C502.903 329.783 503.174 330.119 503.519 330.362C503.874 330.605 504.266 330.726 504.695 330.726C505.031 330.726 505.297 330.651 505.493 330.502C505.689 330.353 505.787 330.157 505.787 329.914C505.787 329.765 505.745 329.643 505.661 329.55C505.587 329.447 505.479 329.363 505.339 329.298C505.209 329.223 505.064 329.163 504.905 329.116L503.659 328.766C503.015 328.579 502.525 328.295 502.189 327.912C501.863 327.529 501.699 327.077 501.699 326.554C501.699 326.087 501.816 325.681 502.049 325.336C502.292 324.981 502.623 324.706 503.043 324.51C503.473 324.314 503.963 324.216 504.513 324.216C505.232 324.216 505.867 324.389 506.417 324.734C506.968 325.079 507.36 325.565 507.593 326.19L506.193 326.848C506.063 326.503 505.843 326.227 505.535 326.022C505.227 325.817 504.882 325.714 504.499 325.714C504.191 325.714 503.949 325.784 503.771 325.924C503.594 326.064 503.505 326.246 503.505 326.47C503.505 326.61 503.543 326.731 503.617 326.834C503.692 326.937 503.795 327.021 503.925 327.086C504.065 327.151 504.224 327.212 504.401 327.268L505.619 327.632C506.245 327.819 506.725 328.099 507.061 328.472C507.407 328.845 507.579 329.303 507.579 329.844C507.579 330.301 507.458 330.707 507.215 331.062C506.973 331.407 506.637 331.678 506.207 331.874C505.778 332.07 505.274 332.168 504.695 332.168Z" fill="#9A9A9A"/>
<g filter="url(#filter5_d_531_1137)">
<rect x="204" y="363" width="100" height="36" rx="5" fill="white"/>
<rect x="204.25" y="363.25" width="99.5" height="35.5" rx="4.75" stroke="#D3D3D3" stroke-width="0.5"/>
</g>
<path d="M229.158 387.168C228.607 387.168 228.08 387.065 227.576 386.86C227.081 386.655 226.652 386.365 226.288 385.992C225.933 385.609 225.691 385.157 225.56 384.634L227.212 384.046C227.371 384.522 227.627 384.877 227.982 385.11C228.337 385.334 228.729 385.446 229.158 385.446C229.513 385.446 229.825 385.371 230.096 385.222C230.376 385.063 230.591 384.849 230.74 384.578C230.889 384.298 230.964 383.976 230.964 383.612C230.964 383.248 230.885 382.931 230.726 382.66C230.577 382.389 230.367 382.179 230.096 382.03C229.825 381.871 229.513 381.792 229.158 381.792C228.794 381.792 228.463 381.871 228.164 382.03C227.875 382.189 227.665 382.417 227.534 382.716L225.98 382.366L226.806 376.57H232.49V378.18H227.562L228.276 377.354L227.688 381.722L227.142 381.274C227.403 380.891 227.721 380.611 228.094 380.434C228.477 380.257 228.939 380.168 229.48 380.168C230.171 380.168 230.768 380.317 231.272 380.616C231.785 380.915 232.182 381.321 232.462 381.834C232.742 382.347 232.882 382.94 232.882 383.612C232.882 384.284 232.719 384.891 232.392 385.432C232.065 385.973 231.622 386.398 231.062 386.706C230.502 387.014 229.867 387.168 229.158 387.168ZM238.569 387.168C237.739 387.168 237.011 386.944 236.385 386.496C235.76 386.048 235.27 385.418 234.915 384.606C234.57 383.794 234.397 382.851 234.397 381.778C234.397 380.695 234.57 379.753 234.915 378.95C235.261 378.147 235.746 377.522 236.371 377.074C236.997 376.626 237.725 376.402 238.555 376.402C239.405 376.402 240.137 376.626 240.753 377.074C241.379 377.522 241.869 378.152 242.223 378.964C242.578 379.767 242.755 380.705 242.755 381.778C242.755 382.851 242.578 383.794 242.223 384.606C241.878 385.409 241.393 386.039 240.767 386.496C240.142 386.944 239.409 387.168 238.569 387.168ZM238.583 385.432C239.059 385.432 239.465 385.287 239.801 384.998C240.137 384.699 240.394 384.279 240.571 383.738C240.758 383.187 240.851 382.534 240.851 381.778C240.851 381.022 240.758 380.373 240.571 379.832C240.394 379.281 240.133 378.861 239.787 378.572C239.451 378.283 239.041 378.138 238.555 378.138C238.089 378.138 237.687 378.283 237.351 378.572C237.015 378.861 236.754 379.281 236.567 379.832C236.39 380.373 236.301 381.022 236.301 381.778C236.301 382.525 236.39 383.173 236.567 383.724C236.754 384.265 237.015 384.685 237.351 384.984C237.697 385.283 238.107 385.432 238.583 385.432ZM248.481 387.168C247.651 387.168 246.923 386.944 246.297 386.496C245.672 386.048 245.182 385.418 244.827 384.606C244.482 383.794 244.309 382.851 244.309 381.778C244.309 380.695 244.482 379.753 244.827 378.95C245.173 378.147 245.658 377.522 246.283 377.074C246.909 376.626 247.637 376.402 248.467 376.402C249.317 376.402 250.049 376.626 250.665 377.074C251.291 377.522 251.781 378.152 252.135 378.964C252.49 379.767 252.667 380.705 252.667 381.778C252.667 382.851 252.49 383.794 252.135 384.606C251.79 385.409 251.305 386.039 250.679 386.496C250.054 386.944 249.321 387.168 248.481 387.168ZM248.495 385.432C248.971 385.432 249.377 385.287 249.713 384.998C250.049 384.699 250.306 384.279 250.483 383.738C250.67 383.187 250.763 382.534 250.763 381.778C250.763 381.022 250.67 380.373 250.483 379.832C250.306 379.281 250.045 378.861 249.699 378.572C249.363 378.283 248.953 378.138 248.467 378.138C248.001 378.138 247.599 378.283 247.263 378.572C246.927 378.861 246.666 379.281 246.479 379.832C246.302 380.373 246.213 381.022 246.213 381.778C246.213 382.525 246.302 383.173 246.479 383.724C246.666 384.265 246.927 384.685 247.263 384.984C247.609 385.283 248.019 385.432 248.495 385.432ZM258.394 387.168C257.563 387.168 256.835 386.944 256.21 386.496C255.584 386.048 255.094 385.418 254.74 384.606C254.394 383.794 254.222 382.851 254.222 381.778C254.222 380.695 254.394 379.753 254.74 378.95C255.085 378.147 255.57 377.522 256.196 377.074C256.821 376.626 257.549 376.402 258.38 376.402C259.229 376.402 259.962 376.626 260.578 377.074C261.203 377.522 261.693 378.152 262.048 378.964C262.402 379.767 262.58 380.705 262.58 381.778C262.58 382.851 262.402 383.794 262.048 384.606C261.702 385.409 261.217 386.039 260.592 386.496C259.966 386.944 259.234 387.168 258.394 387.168ZM258.408 385.432C258.884 385.432 259.29 385.287 259.626 384.998C259.962 384.699 260.218 384.279 260.396 383.738C260.582 383.187 260.676 382.534 260.676 381.778C260.676 381.022 260.582 380.373 260.396 379.832C260.218 379.281 259.957 378.861 259.612 378.572C259.276 378.283 258.865 378.138 258.38 378.138C257.913 378.138 257.512 378.283 257.176 378.572C256.84 378.861 256.578 379.281 256.392 379.832C256.214 380.373 256.126 381.022 256.126 381.778C256.126 382.525 256.214 383.173 256.392 383.724C256.578 384.265 256.84 384.685 257.176 384.984C257.521 385.283 257.932 385.432 258.408 385.432ZM266.846 387V376.57H268.75V382.002L268.232 381.82L272.67 376.57H275.064L270.906 381.498L271.018 380.154L275.19 387H272.95L270.15 382.408L268.75 384.074V387H266.846ZM278.955 387.168C278.143 387.168 277.434 386.977 276.827 386.594C276.23 386.202 275.819 385.675 275.595 385.012L276.967 384.354C277.163 384.783 277.434 385.119 277.779 385.362C278.134 385.605 278.526 385.726 278.955 385.726C279.291 385.726 279.557 385.651 279.753 385.502C279.949 385.353 280.047 385.157 280.047 384.914C280.047 384.765 280.005 384.643 279.921 384.55C279.846 384.447 279.739 384.363 279.599 384.298C279.468 384.223 279.324 384.163 279.165 384.116L277.919 383.766C277.275 383.579 276.785 383.295 276.449 382.912C276.122 382.529 275.959 382.077 275.959 381.554C275.959 381.087 276.076 380.681 276.309 380.336C276.552 379.981 276.883 379.706 277.303 379.51C277.732 379.314 278.222 379.216 278.773 379.216C279.492 379.216 280.126 379.389 280.677 379.734C281.228 380.079 281.62 380.565 281.853 381.19L280.453 381.848C280.322 381.503 280.103 381.227 279.795 381.022C279.487 380.817 279.142 380.714 278.759 380.714C278.451 380.714 278.208 380.784 278.031 380.924C277.854 381.064 277.765 381.246 277.765 381.47C277.765 381.61 277.802 381.731 277.877 381.834C277.952 381.937 278.054 382.021 278.185 382.086C278.325 382.151 278.484 382.212 278.661 382.268L279.879 382.632C280.504 382.819 280.985 383.099 281.321 383.472C281.666 383.845 281.839 384.303 281.839 384.844C281.839 385.301 281.718 385.707 281.475 386.062C281.232 386.407 280.896 386.678 280.467 386.874C280.038 387.07 279.534 387.168 278.955 387.168Z" fill="#9A9A9A"/>
<g filter="url(#filter6_d_531_1137)">
<rect x="317" y="363" width="100" height="36" rx="5" fill="white"/>
<rect x="317.25" y="363.25" width="99.5" height="35.5" rx="4.75" stroke="#D3D3D3" stroke-width="0.5"/>
</g>
<path d="M337.422 387V378.194H335.406V376.57H339.326V387H337.422ZM345.602 387.168C344.772 387.168 344.044 386.944 343.418 386.496C342.793 386.048 342.303 385.418 341.948 384.606C341.603 383.794 341.43 382.851 341.43 381.778C341.43 380.695 341.603 379.753 341.948 378.95C342.294 378.147 342.779 377.522 343.404 377.074C344.03 376.626 344.758 376.402 345.588 376.402C346.438 376.402 347.17 376.626 347.786 377.074C348.412 377.522 348.902 378.152 349.256 378.964C349.611 379.767 349.788 380.705 349.788 381.778C349.788 382.851 349.611 383.794 349.256 384.606C348.911 385.409 348.426 386.039 347.8 386.496C347.175 386.944 346.442 387.168 345.602 387.168ZM345.616 385.432C346.092 385.432 346.498 385.287 346.834 384.998C347.17 384.699 347.427 384.279 347.604 383.738C347.791 383.187 347.884 382.534 347.884 381.778C347.884 381.022 347.791 380.373 347.604 379.832C347.427 379.281 347.166 378.861 346.82 378.572C346.484 378.283 346.074 378.138 345.588 378.138C345.122 378.138 344.72 378.283 344.384 378.572C344.048 378.861 343.787 379.281 343.6 379.832C343.423 380.373 343.334 381.022 343.334 381.778C343.334 382.525 343.423 383.173 343.6 383.724C343.787 384.265 344.048 384.685 344.384 384.984C344.73 385.283 345.14 385.432 345.616 385.432ZM355.515 387.168C354.684 387.168 353.956 386.944 353.331 386.496C352.705 386.048 352.215 385.418 351.861 384.606C351.515 383.794 351.343 382.851 351.343 381.778C351.343 380.695 351.515 379.753 351.861 378.95C352.206 378.147 352.691 377.522 353.317 377.074C353.942 376.626 354.67 376.402 355.501 376.402C356.35 376.402 357.083 376.626 357.699 377.074C358.324 377.522 358.814 378.152 359.169 378.964C359.523 379.767 359.701 380.705 359.701 381.778C359.701 382.851 359.523 383.794 359.169 384.606C358.823 385.409 358.338 386.039 357.713 386.496C357.087 386.944 356.355 387.168 355.515 387.168ZM355.529 385.432C356.005 385.432 356.411 385.287 356.747 384.998C357.083 384.699 357.339 384.279 357.517 383.738C357.703 383.187 357.797 382.534 357.797 381.778C357.797 381.022 357.703 380.373 357.517 379.832C357.339 379.281 357.078 378.861 356.733 378.572C356.397 378.283 355.986 378.138 355.501 378.138C355.034 378.138 354.633 378.283 354.297 378.572C353.961 378.861 353.699 379.281 353.513 379.832C353.335 380.373 353.247 381.022 353.247 381.778C353.247 382.525 353.335 383.173 353.513 383.724C353.699 384.265 353.961 384.685 354.297 384.984C354.642 385.283 355.053 385.432 355.529 385.432ZM365.427 387.168C364.596 387.168 363.868 386.944 363.243 386.496C362.617 386.048 362.127 385.418 361.773 384.606C361.427 383.794 361.255 382.851 361.255 381.778C361.255 380.695 361.427 379.753 361.773 378.95C362.118 378.147 362.603 377.522 363.229 377.074C363.854 376.626 364.582 376.402 365.413 376.402C366.262 376.402 366.995 376.626 367.611 377.074C368.236 377.522 368.726 378.152 369.081 378.964C369.435 379.767 369.613 380.705 369.613 381.778C369.613 382.851 369.435 383.794 369.081 384.606C368.735 385.409 368.25 386.039 367.625 386.496C366.999 386.944 366.267 387.168 365.427 387.168ZM365.441 385.432C365.917 385.432 366.323 385.287 366.659 384.998C366.995 384.699 367.251 384.279 367.429 383.738C367.615 383.187 367.709 382.534 367.709 381.778C367.709 381.022 367.615 380.373 367.429 379.832C367.251 379.281 366.99 378.861 366.645 378.572C366.309 378.283 365.898 378.138 365.413 378.138C364.946 378.138 364.545 378.283 364.209 378.572C363.873 378.861 363.611 379.281 363.425 379.832C363.247 380.373 363.159 381.022 363.159 381.778C363.159 382.525 363.247 383.173 363.425 383.724C363.611 384.265 363.873 384.685 364.209 384.984C364.554 385.283 364.965 385.432 365.441 385.432ZM375.339 387.168C374.508 387.168 373.78 386.944 373.155 386.496C372.529 386.048 372.039 385.418 371.685 384.606C371.339 383.794 371.167 382.851 371.167 381.778C371.167 380.695 371.339 379.753 371.685 378.95C372.03 378.147 372.515 377.522 373.141 377.074C373.766 376.626 374.494 376.402 375.325 376.402C376.174 376.402 376.907 376.626 377.523 377.074C378.148 377.522 378.638 378.152 378.993 378.964C379.347 379.767 379.525 380.705 379.525 381.778C379.525 382.851 379.347 383.794 378.993 384.606C378.647 385.409 378.162 386.039 377.537 386.496C376.911 386.944 376.179 387.168 375.339 387.168ZM375.353 385.432C375.829 385.432 376.235 385.287 376.571 384.998C376.907 384.699 377.163 384.279 377.341 383.738C377.527 383.187 377.621 382.534 377.621 381.778C377.621 381.022 377.527 380.373 377.341 379.832C377.163 379.281 376.902 378.861 376.557 378.572C376.221 378.283 375.81 378.138 375.325 378.138C374.858 378.138 374.457 378.283 374.121 378.572C373.785 378.861 373.523 379.281 373.337 379.832C373.159 380.373 373.071 381.022 373.071 381.778C373.071 382.525 373.159 383.173 373.337 383.724C373.523 384.265 373.785 384.685 374.121 384.984C374.466 385.283 374.877 385.432 375.353 385.432ZM383.791 387V376.57H385.695V382.002L385.177 381.82L389.615 376.57H392.009L387.851 381.498L387.963 380.154L392.135 387H389.895L387.095 382.408L385.695 384.074V387H383.791ZM395.9 387.168C395.088 387.168 394.379 386.977 393.772 386.594C393.175 386.202 392.764 385.675 392.54 385.012L393.912 384.354C394.108 384.783 394.379 385.119 394.724 385.362C395.079 385.605 395.471 385.726 395.9 385.726C396.236 385.726 396.502 385.651 396.698 385.502C396.894 385.353 396.992 385.157 396.992 384.914C396.992 384.765 396.95 384.643 396.866 384.55C396.792 384.447 396.684 384.363 396.544 384.298C396.414 384.223 396.269 384.163 396.11 384.116L394.864 383.766C394.22 383.579 393.73 383.295 393.394 382.912C393.068 382.529 392.904 382.077 392.904 381.554C392.904 381.087 393.021 380.681 393.254 380.336C393.497 379.981 393.828 379.706 394.248 379.51C394.678 379.314 395.168 379.216 395.718 379.216C396.437 379.216 397.072 379.389 397.622 379.734C398.173 380.079 398.565 380.565 398.798 381.19L397.398 381.848C397.268 381.503 397.048 381.227 396.74 381.022C396.432 380.817 396.087 380.714 395.704 380.714C395.396 380.714 395.154 380.784 394.976 380.924C394.799 381.064 394.71 381.246 394.71 381.47C394.71 381.61 394.748 381.731 394.822 381.834C394.897 381.937 395 382.021 395.13 382.086C395.27 382.151 395.429 382.212 395.606 382.268L396.824 382.632C397.45 382.819 397.93 383.099 398.266 383.472C398.612 383.845 398.784 384.303 398.784 384.844C398.784 385.301 398.663 385.707 398.42 386.062C398.178 386.407 397.842 386.678 397.412 386.874C396.983 387.07 396.479 387.168 395.9 387.168Z" fill="#9A9A9A"/>
<g filter="url(#filter7_d_531_1137)">
<rect x="430" y="363" width="100" height="36" rx="5" fill="white"/>
<rect x="430.25" y="363.25" width="99.5" height="35.5" rx="4.75" stroke="#D3D3D3" stroke-width="0.5"/>
</g>
<path d="M450.158 387.168C449.607 387.168 449.08 387.065 448.576 386.86C448.081 386.655 447.652 386.365 447.288 385.992C446.933 385.609 446.691 385.157 446.56 384.634L448.212 384.046C448.371 384.522 448.627 384.877 448.982 385.11C449.337 385.334 449.729 385.446 450.158 385.446C450.513 385.446 450.825 385.371 451.096 385.222C451.376 385.063 451.591 384.849 451.74 384.578C451.889 384.298 451.964 383.976 451.964 383.612C451.964 383.248 451.885 382.931 451.726 382.66C451.577 382.389 451.367 382.179 451.096 382.03C450.825 381.871 450.513 381.792 450.158 381.792C449.794 381.792 449.463 381.871 449.164 382.03C448.875 382.189 448.665 382.417 448.534 382.716L446.98 382.366L447.806 376.57H453.49V378.18H448.562L449.276 377.354L448.688 381.722L448.142 381.274C448.403 380.891 448.721 380.611 449.094 380.434C449.477 380.257 449.939 380.168 450.48 380.168C451.171 380.168 451.768 380.317 452.272 380.616C452.785 380.915 453.182 381.321 453.462 381.834C453.742 382.347 453.882 382.94 453.882 383.612C453.882 384.284 453.719 384.891 453.392 385.432C453.065 385.973 452.622 386.398 452.062 386.706C451.502 387.014 450.867 387.168 450.158 387.168ZM459.569 387.168C458.739 387.168 458.011 386.944 457.385 386.496C456.76 386.048 456.27 385.418 455.915 384.606C455.57 383.794 455.397 382.851 455.397 381.778C455.397 380.695 455.57 379.753 455.915 378.95C456.261 378.147 456.746 377.522 457.371 377.074C457.997 376.626 458.725 376.402 459.555 376.402C460.405 376.402 461.137 376.626 461.753 377.074C462.379 377.522 462.869 378.152 463.223 378.964C463.578 379.767 463.755 380.705 463.755 381.778C463.755 382.851 463.578 383.794 463.223 384.606C462.878 385.409 462.393 386.039 461.767 386.496C461.142 386.944 460.409 387.168 459.569 387.168ZM459.583 385.432C460.059 385.432 460.465 385.287 460.801 384.998C461.137 384.699 461.394 384.279 461.571 383.738C461.758 383.187 461.851 382.534 461.851 381.778C461.851 381.022 461.758 380.373 461.571 379.832C461.394 379.281 461.133 378.861 460.787 378.572C460.451 378.283 460.041 378.138 459.555 378.138C459.089 378.138 458.687 378.283 458.351 378.572C458.015 378.861 457.754 379.281 457.567 379.832C457.39 380.373 457.301 381.022 457.301 381.778C457.301 382.525 457.39 383.173 457.567 383.724C457.754 384.265 458.015 384.685 458.351 384.984C458.697 385.283 459.107 385.432 459.583 385.432ZM469.481 387.168C468.651 387.168 467.923 386.944 467.297 386.496C466.672 386.048 466.182 385.418 465.827 384.606C465.482 383.794 465.309 382.851 465.309 381.778C465.309 380.695 465.482 379.753 465.827 378.95C466.173 378.147 466.658 377.522 467.283 377.074C467.909 376.626 468.637 376.402 469.467 376.402C470.317 376.402 471.049 376.626 471.665 377.074C472.291 377.522 472.781 378.152 473.135 378.964C473.49 379.767 473.667 380.705 473.667 381.778C473.667 382.851 473.49 383.794 473.135 384.606C472.79 385.409 472.305 386.039 471.679 386.496C471.054 386.944 470.321 387.168 469.481 387.168ZM469.495 385.432C469.971 385.432 470.377 385.287 470.713 384.998C471.049 384.699 471.306 384.279 471.483 383.738C471.67 383.187 471.763 382.534 471.763 381.778C471.763 381.022 471.67 380.373 471.483 379.832C471.306 379.281 471.045 378.861 470.699 378.572C470.363 378.283 469.953 378.138 469.467 378.138C469.001 378.138 468.599 378.283 468.263 378.572C467.927 378.861 467.666 379.281 467.479 379.832C467.302 380.373 467.213 381.022 467.213 381.778C467.213 382.525 467.302 383.173 467.479 383.724C467.666 384.265 467.927 384.685 468.263 384.984C468.609 385.283 469.019 385.432 469.495 385.432ZM479.394 387.168C478.563 387.168 477.835 386.944 477.21 386.496C476.584 386.048 476.094 385.418 475.74 384.606C475.394 383.794 475.222 382.851 475.222 381.778C475.222 380.695 475.394 379.753 475.74 378.95C476.085 378.147 476.57 377.522 477.196 377.074C477.821 376.626 478.549 376.402 479.38 376.402C480.229 376.402 480.962 376.626 481.578 377.074C482.203 377.522 482.693 378.152 483.048 378.964C483.402 379.767 483.58 380.705 483.58 381.778C483.58 382.851 483.402 383.794 483.048 384.606C482.702 385.409 482.217 386.039 481.592 386.496C480.966 386.944 480.234 387.168 479.394 387.168ZM479.408 385.432C479.884 385.432 480.29 385.287 480.626 384.998C480.962 384.699 481.218 384.279 481.396 383.738C481.582 383.187 481.676 382.534 481.676 381.778C481.676 381.022 481.582 380.373 481.396 379.832C481.218 379.281 480.957 378.861 480.612 378.572C480.276 378.283 479.865 378.138 479.38 378.138C478.913 378.138 478.512 378.283 478.176 378.572C477.84 378.861 477.578 379.281 477.392 379.832C477.214 380.373 477.126 381.022 477.126 381.778C477.126 382.525 477.214 383.173 477.392 383.724C477.578 384.265 477.84 384.685 478.176 384.984C478.521 385.283 478.932 385.432 479.408 385.432ZM489.306 387.168C488.475 387.168 487.747 386.944 487.122 386.496C486.496 386.048 486.006 385.418 485.652 384.606C485.306 383.794 485.134 382.851 485.134 381.778C485.134 380.695 485.306 379.753 485.652 378.95C485.997 378.147 486.482 377.522 487.108 377.074C487.733 376.626 488.461 376.402 489.292 376.402C490.141 376.402 490.874 376.626 491.49 377.074C492.115 377.522 492.605 378.152 492.96 378.964C493.314 379.767 493.492 380.705 493.492 381.778C493.492 382.851 493.314 383.794 492.96 384.606C492.614 385.409 492.129 386.039 491.504 386.496C490.878 386.944 490.146 387.168 489.306 387.168ZM489.32 385.432C489.796 385.432 490.202 385.287 490.538 384.998C490.874 384.699 491.13 384.279 491.308 383.738C491.494 383.187 491.588 382.534 491.588 381.778C491.588 381.022 491.494 380.373 491.308 379.832C491.13 379.281 490.869 378.861 490.524 378.572C490.188 378.283 489.777 378.138 489.292 378.138C488.825 378.138 488.424 378.283 488.088 378.572C487.752 378.861 487.49 379.281 487.304 379.832C487.126 380.373 487.038 381.022 487.038 381.778C487.038 382.525 487.126 383.173 487.304 383.724C487.49 384.265 487.752 384.685 488.088 384.984C488.433 385.283 488.844 385.432 489.32 385.432ZM497.758 387V376.57H499.662V382.002L499.144 381.82L503.582 376.57H505.976L501.818 381.498L501.93 380.154L506.102 387H503.862L501.062 382.408L499.662 384.074V387H497.758ZM509.867 387.168C509.055 387.168 508.346 386.977 507.739 386.594C507.142 386.202 506.731 385.675 506.507 385.012L507.879 384.354C508.075 384.783 508.346 385.119 508.691 385.362C509.046 385.605 509.438 385.726 509.867 385.726C510.203 385.726 510.469 385.651 510.665 385.502C510.861 385.353 510.959 385.157 510.959 384.914C510.959 384.765 510.917 384.643 510.833 384.55C510.759 384.447 510.651 384.363 510.511 384.298C510.381 384.223 510.236 384.163 510.077 384.116L508.831 383.766C508.187 383.579 507.697 383.295 507.361 382.912C507.035 382.529 506.871 382.077 506.871 381.554C506.871 381.087 506.988 380.681 507.221 380.336C507.464 379.981 507.795 379.706 508.215 379.51C508.645 379.314 509.135 379.216 509.685 379.216C510.404 379.216 511.039 379.389 511.589 379.734C512.14 380.079 512.532 380.565 512.765 381.19L511.365 381.848C511.235 381.503 511.015 381.227 510.707 381.022C510.399 380.817 510.054 380.714 509.671 380.714C509.363 380.714 509.121 380.784 508.943 380.924C508.766 381.064 508.677 381.246 508.677 381.47C508.677 381.61 508.715 381.731 508.789 381.834C508.864 381.937 508.967 382.021 509.097 382.086C509.237 382.151 509.396 382.212 509.573 382.268L510.791 382.632C511.417 382.819 511.897 383.099 512.233 383.472C512.579 383.845 512.751 384.303 512.751 384.844C512.751 385.301 512.63 385.707 512.387 386.062C512.145 386.407 511.809 386.678 511.379 386.874C510.95 387.07 510.446 387.168 509.867 387.168Z" fill="#9A9A9A"/>
<rect x="204.5" y="434.5" width="325" height="45" rx="4.5" stroke="#1A8FE3" stroke-opacity="0.5"/>
<path d="M227.908 463.168C227.161 463.168 226.471 463.033 225.836 462.762C225.211 462.491 224.66 462.113 224.184 461.628C223.717 461.143 223.353 460.573 223.092 459.92C222.831 459.267 222.7 458.553 222.7 457.778C222.7 457.003 222.826 456.289 223.078 455.636C223.339 454.973 223.703 454.404 224.17 453.928C224.646 453.443 225.201 453.069 225.836 452.808C226.471 452.537 227.161 452.402 227.908 452.402C228.655 452.402 229.322 452.528 229.91 452.78C230.507 453.032 231.011 453.368 231.422 453.788C231.833 454.199 232.127 454.651 232.304 455.146L230.596 455.944C230.4 455.421 230.069 454.992 229.602 454.656C229.135 454.311 228.571 454.138 227.908 454.138C227.255 454.138 226.676 454.292 226.172 454.6C225.677 454.908 225.29 455.333 225.01 455.874C224.739 456.415 224.604 457.05 224.604 457.778C224.604 458.506 224.739 459.145 225.01 459.696C225.29 460.237 225.677 460.662 226.172 460.97C226.676 461.278 227.255 461.432 227.908 461.432C228.571 461.432 229.135 461.264 229.602 460.928C230.069 460.583 230.4 460.149 230.596 459.626L232.304 460.424C232.127 460.919 231.833 461.376 231.422 461.796C231.011 462.207 230.507 462.538 229.91 462.79C229.322 463.042 228.655 463.168 227.908 463.168ZM236.412 463.168C235.824 463.168 235.31 463.037 234.872 462.776C234.442 462.515 234.111 462.151 233.878 461.684C233.654 461.217 233.542 460.671 233.542 460.046V455.384H235.376V459.892C235.376 460.209 235.436 460.489 235.558 460.732C235.688 460.965 235.87 461.152 236.104 461.292C236.346 461.423 236.617 461.488 236.916 461.488C237.214 461.488 237.48 461.423 237.714 461.292C237.947 461.152 238.129 460.961 238.26 460.718C238.39 460.475 238.456 460.186 238.456 459.85V455.384H240.29V463H238.554V461.502L238.708 461.768C238.53 462.235 238.236 462.585 237.826 462.818C237.424 463.051 236.953 463.168 236.412 463.168ZM244.893 463.168C244.081 463.168 243.371 462.977 242.765 462.594C242.167 462.202 241.757 461.675 241.533 461.012L242.905 460.354C243.101 460.783 243.371 461.119 243.717 461.362C244.071 461.605 244.463 461.726 244.893 461.726C245.229 461.726 245.495 461.651 245.691 461.502C245.887 461.353 245.985 461.157 245.985 460.914C245.985 460.765 245.943 460.643 245.859 460.55C245.784 460.447 245.677 460.363 245.537 460.298C245.406 460.223 245.261 460.163 245.103 460.116L243.857 459.766C243.213 459.579 242.723 459.295 242.387 458.912C242.06 458.529 241.897 458.077 241.897 457.554C241.897 457.087 242.013 456.681 242.247 456.336C242.489 455.981 242.821 455.706 243.241 455.51C243.67 455.314 244.16 455.216 244.711 455.216C245.429 455.216 246.064 455.389 246.615 455.734C247.165 456.079 247.557 456.565 247.791 457.19L246.391 457.848C246.26 457.503 246.041 457.227 245.733 457.022C245.425 456.817 245.079 456.714 244.697 456.714C244.389 456.714 244.146 456.784 243.969 456.924C243.791 457.064 243.703 457.246 243.703 457.47C243.703 457.61 243.74 457.731 243.815 457.834C243.889 457.937 243.992 458.021 244.123 458.086C244.263 458.151 244.421 458.212 244.599 458.268L245.817 458.632C246.442 458.819 246.923 459.099 247.259 459.472C247.604 459.845 247.777 460.303 247.777 460.844C247.777 461.301 247.655 461.707 247.413 462.062C247.17 462.407 246.834 462.678 246.405 462.874C245.975 463.07 245.471 463.168 244.893 463.168ZM252.658 463.084C251.799 463.084 251.132 462.851 250.656 462.384C250.189 461.908 249.956 461.241 249.956 460.382V457.022H248.64V455.384H248.78C249.153 455.384 249.443 455.286 249.648 455.09C249.853 454.894 249.956 454.609 249.956 454.236V453.648H251.79V455.384H253.54V457.022H251.79V460.284C251.79 460.536 251.832 460.751 251.916 460.928C252.009 461.105 252.149 461.241 252.336 461.334C252.532 461.427 252.779 461.474 253.078 461.474C253.143 461.474 253.218 461.469 253.302 461.46C253.395 461.451 253.484 461.441 253.568 461.432V463C253.437 463.019 253.288 463.037 253.12 463.056C252.952 463.075 252.798 463.084 252.658 463.084ZM258.625 463.168C257.878 463.168 257.197 462.995 256.581 462.65C255.974 462.305 255.489 461.833 255.125 461.236C254.77 460.639 254.593 459.957 254.593 459.192C254.593 458.427 254.77 457.745 255.125 457.148C255.489 456.551 255.974 456.079 256.581 455.734C257.188 455.389 257.869 455.216 258.625 455.216C259.372 455.216 260.048 455.389 260.655 455.734C261.262 456.079 261.742 456.551 262.097 457.148C262.461 457.736 262.643 458.417 262.643 459.192C262.643 459.957 262.461 460.639 262.097 461.236C261.733 461.833 261.248 462.305 260.641 462.65C260.034 462.995 259.362 463.168 258.625 463.168ZM258.625 461.488C259.036 461.488 259.395 461.39 259.703 461.194C260.02 460.998 260.268 460.727 260.445 460.382C260.632 460.027 260.725 459.631 260.725 459.192C260.725 458.744 260.632 458.352 260.445 458.016C260.268 457.671 260.02 457.4 259.703 457.204C259.395 456.999 259.036 456.896 258.625 456.896C258.205 456.896 257.836 456.999 257.519 457.204C257.202 457.4 256.95 457.671 256.763 458.016C256.586 458.352 256.497 458.744 256.497 459.192C256.497 459.631 256.586 460.027 256.763 460.382C256.95 460.727 257.202 460.998 257.519 461.194C257.836 461.39 258.205 461.488 258.625 461.488ZM264.034 463V455.384H265.756V457.148L265.56 456.854C265.7 456.303 265.98 455.893 266.4 455.622C266.82 455.351 267.314 455.216 267.884 455.216C268.509 455.216 269.06 455.379 269.536 455.706C270.012 456.033 270.32 456.462 270.46 456.994L269.942 457.036C270.175 456.429 270.525 455.977 270.992 455.678C271.458 455.37 271.995 455.216 272.602 455.216C273.143 455.216 273.624 455.337 274.044 455.58C274.473 455.823 274.809 456.163 275.052 456.602C275.294 457.031 275.416 457.531 275.416 458.1V463H273.582V458.534C273.582 458.198 273.521 457.909 273.4 457.666C273.278 457.423 273.11 457.237 272.896 457.106C272.681 456.966 272.42 456.896 272.112 456.896C271.822 456.896 271.566 456.966 271.342 457.106C271.118 457.237 270.945 457.423 270.824 457.666C270.702 457.909 270.642 458.198 270.642 458.534V463H268.808V458.534C268.808 458.198 268.747 457.909 268.626 457.666C268.504 457.423 268.332 457.237 268.108 457.106C267.893 456.966 267.636 456.896 267.338 456.896C267.048 456.896 266.792 456.966 266.568 457.106C266.344 457.237 266.171 457.423 266.05 457.666C265.928 457.909 265.868 458.198 265.868 458.534V463H264.034ZM278.756 463L282.354 452.57H284.818L288.416 463H286.344L285.602 460.76H281.57L280.814 463H278.756ZM282.116 459.08H285.056L283.32 453.886H283.852L282.116 459.08ZM289.422 463V455.384H291.144V457.148L290.948 456.854C291.088 456.303 291.368 455.893 291.788 455.622C292.208 455.351 292.703 455.216 293.272 455.216C293.898 455.216 294.448 455.379 294.924 455.706C295.4 456.033 295.708 456.462 295.848 456.994L295.33 457.036C295.564 456.429 295.914 455.977 296.38 455.678C296.847 455.37 297.384 455.216 297.99 455.216C298.532 455.216 299.012 455.337 299.432 455.58C299.862 455.823 300.198 456.163 300.44 456.602C300.683 457.031 300.804 457.531 300.804 458.1V463H298.97V458.534C298.97 458.198 298.91 457.909 298.788 457.666C298.667 457.423 298.499 457.237 298.284 457.106C298.07 456.966 297.808 456.896 297.5 456.896C297.211 456.896 296.954 456.966 296.73 457.106C296.506 457.237 296.334 457.423 296.212 457.666C296.091 457.909 296.03 458.198 296.03 458.534V463H294.196V458.534C294.196 458.198 294.136 457.909 294.014 457.666C293.893 457.423 293.72 457.237 293.496 457.106C293.282 456.966 293.025 456.896 292.726 456.896C292.437 456.896 292.18 456.966 291.956 457.106C291.732 457.237 291.56 457.423 291.438 457.666C291.317 457.909 291.256 458.198 291.256 458.534V463H289.422ZM306.08 463.168C305.333 463.168 304.652 462.995 304.036 462.65C303.429 462.305 302.944 461.833 302.58 461.236C302.225 460.639 302.048 459.957 302.048 459.192C302.048 458.427 302.225 457.745 302.58 457.148C302.944 456.551 303.429 456.079 304.036 455.734C304.643 455.389 305.324 455.216 306.08 455.216C306.827 455.216 307.503 455.389 308.11 455.734C308.717 456.079 309.197 456.551 309.552 457.148C309.916 457.736 310.098 458.417 310.098 459.192C310.098 459.957 309.916 460.639 309.552 461.236C309.188 461.833 308.703 462.305 308.096 462.65C307.489 462.995 306.817 463.168 306.08 463.168ZM306.08 461.488C306.491 461.488 306.85 461.39 307.158 461.194C307.475 460.998 307.723 460.727 307.9 460.382C308.087 460.027 308.18 459.631 308.18 459.192C308.18 458.744 308.087 458.352 307.9 458.016C307.723 457.671 307.475 457.4 307.158 457.204C306.85 456.999 306.491 456.896 306.08 456.896C305.66 456.896 305.291 456.999 304.974 457.204C304.657 457.4 304.405 457.671 304.218 458.016C304.041 458.352 303.952 458.744 303.952 459.192C303.952 459.631 304.041 460.027 304.218 460.382C304.405 460.727 304.657 460.998 304.974 461.194C305.291 461.39 305.66 461.488 306.08 461.488ZM314.205 463.168C313.617 463.168 313.103 463.037 312.665 462.776C312.235 462.515 311.904 462.151 311.671 461.684C311.447 461.217 311.335 460.671 311.335 460.046V455.384H313.169V459.892C313.169 460.209 313.229 460.489 313.351 460.732C313.481 460.965 313.663 461.152 313.897 461.292C314.139 461.423 314.41 461.488 314.709 461.488C315.007 461.488 315.273 461.423 315.507 461.292C315.74 461.152 315.922 460.961 316.053 460.718C316.183 460.475 316.249 460.186 316.249 459.85V455.384H318.083V463H316.347V461.502L316.501 461.768C316.323 462.235 316.029 462.585 315.619 462.818C315.217 463.051 314.746 463.168 314.205 463.168ZM319.788 463V455.384H321.51V456.882L321.37 456.616C321.547 456.159 321.836 455.813 322.238 455.58C322.648 455.337 323.124 455.216 323.666 455.216C324.226 455.216 324.72 455.337 325.15 455.58C325.588 455.823 325.929 456.163 326.172 456.602C326.414 457.031 326.536 457.531 326.536 458.1V463H324.702V458.534C324.702 458.198 324.636 457.909 324.506 457.666C324.375 457.423 324.193 457.237 323.96 457.106C323.736 456.966 323.47 456.896 323.162 456.896C322.863 456.896 322.597 456.966 322.364 457.106C322.13 457.237 321.948 457.423 321.818 457.666C321.687 457.909 321.622 458.198 321.622 458.534V463H319.788ZM331.558 463.084C330.7 463.084 330.032 462.851 329.556 462.384C329.09 461.908 328.856 461.241 328.856 460.382V457.022H327.54V455.384H327.68C328.054 455.384 328.343 455.286 328.548 455.09C328.754 454.894 328.856 454.609 328.856 454.236V453.648H330.69V455.384H332.44V457.022H330.69V460.284C330.69 460.536 330.732 460.751 330.816 460.928C330.91 461.105 331.05 461.241 331.236 461.334C331.432 461.427 331.68 461.474 331.978 461.474C332.044 461.474 332.118 461.469 332.202 461.46C332.296 461.451 332.384 461.441 332.468 461.432V463C332.338 463.019 332.188 463.037 332.02 463.056C331.852 463.075 331.698 463.084 331.558 463.084Z" fill="#1A8FE3" fill-opacity="0.5"/>
<rect x="243" y="516" width="250" height="44" rx="10" fill="#1A8FE3"/>
<path d="M320.008 544V533.57H323.41C324.511 533.57 325.468 533.794 326.28 534.242C327.101 534.681 327.736 535.292 328.184 536.076C328.632 536.851 328.856 537.751 328.856 538.778C328.856 539.795 328.632 540.701 328.184 541.494C327.736 542.278 327.101 542.894 326.28 543.342C325.468 543.781 324.511 544 323.41 544H320.008ZM321.912 542.32H323.452C324.161 542.32 324.773 542.175 325.286 541.886C325.809 541.587 326.215 541.177 326.504 540.654C326.793 540.122 326.938 539.497 326.938 538.778C326.938 538.05 326.793 537.425 326.504 536.902C326.215 536.379 325.809 535.973 325.286 535.684C324.773 535.395 324.161 535.25 323.452 535.25H321.912V542.32ZM335.509 544.168C334.744 544.168 334.03 544.033 333.367 543.762C332.705 543.491 332.126 543.113 331.631 542.628C331.137 542.143 330.749 541.573 330.469 540.92C330.199 540.257 330.063 539.543 330.063 538.778C330.063 538.003 330.199 537.289 330.469 536.636C330.74 535.983 331.123 535.413 331.617 534.928C332.112 534.443 332.691 534.069 333.353 533.808C334.016 533.537 334.735 533.402 335.509 533.402C336.284 533.402 337.003 533.537 337.665 533.808C338.328 534.079 338.907 534.457 339.401 534.942C339.896 535.418 340.279 535.983 340.549 536.636C340.829 537.289 340.969 538.003 340.969 538.778C340.969 539.543 340.829 540.257 340.549 540.92C340.269 541.573 339.882 542.143 339.387 542.628C338.893 543.113 338.314 543.491 337.651 543.762C336.998 544.033 336.284 544.168 335.509 544.168ZM335.509 542.432C336.023 542.432 336.494 542.343 336.923 542.166C337.353 541.979 337.726 541.723 338.043 541.396C338.37 541.069 338.617 540.682 338.785 540.234C338.963 539.786 339.051 539.301 339.051 538.778C339.051 538.255 338.963 537.775 338.785 537.336C338.617 536.888 338.37 536.501 338.043 536.174C337.726 535.838 337.353 535.581 336.923 535.404C336.494 535.227 336.023 535.138 335.509 535.138C335.005 535.138 334.539 535.227 334.109 535.404C333.68 535.581 333.302 535.838 332.975 536.174C332.658 536.501 332.411 536.888 332.233 537.336C332.056 537.775 331.967 538.255 331.967 538.778C331.967 539.301 332.056 539.786 332.233 540.234C332.411 540.682 332.658 541.069 332.975 541.396C333.302 541.723 333.68 541.979 334.109 542.166C334.539 542.343 335.005 542.432 335.509 542.432ZM342.662 544V533.57H344.146L349.886 541.298L349.116 541.452V533.57H351.02V544H349.522L343.866 536.216L344.566 536.062V544H342.662ZM352.185 544L355.783 533.57H358.247L361.845 544H359.773L359.031 541.76H354.999L354.243 544H352.185ZM355.545 540.08H358.485L356.749 534.886H357.281L355.545 540.08ZM364.157 544V535.25H361.455V533.57H368.735V535.25H366.075V544H364.157ZM369.897 544V533.57H376.827V535.25H371.801V537.924H376.547V539.604H371.801V542.32H376.827V544H369.897ZM380.711 544V533.57H382.195L387.935 541.298L387.165 541.452V533.57H389.069V544H387.571L381.915 536.216L382.615 536.062V544H380.711ZM396.226 544.168C395.461 544.168 394.747 544.033 394.084 543.762C393.421 543.491 392.843 543.113 392.348 542.628C391.853 542.143 391.466 541.573 391.186 540.92C390.915 540.257 390.78 539.543 390.78 538.778C390.78 538.003 390.915 537.289 391.186 536.636C391.457 535.983 391.839 535.413 392.334 534.928C392.829 534.443 393.407 534.069 394.07 533.808C394.733 533.537 395.451 533.402 396.226 533.402C397.001 533.402 397.719 533.537 398.382 533.808C399.045 534.079 399.623 534.457 400.118 534.942C400.613 535.418 400.995 535.983 401.266 536.636C401.546 537.289 401.686 538.003 401.686 538.778C401.686 539.543 401.546 540.257 401.266 540.92C400.986 541.573 400.599 542.143 400.104 542.628C399.609 543.113 399.031 543.491 398.368 543.762C397.715 544.033 397.001 544.168 396.226 544.168ZM396.226 542.432C396.739 542.432 397.211 542.343 397.64 542.166C398.069 541.979 398.443 541.723 398.76 541.396C399.087 541.069 399.334 540.682 399.502 540.234C399.679 539.786 399.768 539.301 399.768 538.778C399.768 538.255 399.679 537.775 399.502 537.336C399.334 536.888 399.087 536.501 398.76 536.174C398.443 535.838 398.069 535.581 397.64 535.404C397.211 535.227 396.739 535.138 396.226 535.138C395.722 535.138 395.255 535.227 394.826 535.404C394.397 535.581 394.019 535.838 393.692 536.174C393.375 536.501 393.127 536.888 392.95 537.336C392.773 537.775 392.684 538.255 392.684 538.778C392.684 539.301 392.773 539.786 392.95 540.234C393.127 540.682 393.375 541.069 393.692 541.396C394.019 541.723 394.397 541.979 394.826 542.166C395.255 542.343 395.722 542.432 396.226 542.432ZM405.052 544L402.252 533.57H404.296L406.494 542.46H405.962L408.258 533.57H410.232L412.514 542.46H411.982L414.18 533.57H416.224L413.424 544H411.24L408.93 535.348H409.546L407.236 544H405.052Z" fill="white"/>
<defs>
<filter id="filter0_f_531_1137" x="0.850895" y="0.850895" width="726.362" height="711.298" filterUnits="userSpaceOnUse" color-interpolation-filters="sRGB">
<feFlood flood-opacity="0" result="BackgroundImageFix"/>
<feBlend mode="normal" in="SourceGraphic" in2="BackgroundImageFix" result="shape"/>
<feGaussianBlur stdDeviation="25.0746" result="effect1_foregroundBlur_531_1137"/>
</filter>
<filter id="filter1_d_531_1137" x="105" y="57" width="522" height="604" filterUnits="userSpaceOnUse" color-interpolation-filters="sRGB">
<feFlood flood-opacity="0" result="BackgroundImageFix"/>
<feColorMatrix in="SourceAlpha" type="matrix" values="0 0 0 0 0 0 0 0 0 0 0 0 0 0 0 0 0 0 127 0" result="hardAlpha"/>
<feOffset dx="2" dy="2"/>
<feGaussianBlur stdDeviation="32.5"/>
<feComposite in2="hardAlpha" operator="out"/>
<feColorMatrix type="matrix" values="0 0 0 0 0 0 0 0 0 0 0 0 0 0 0 0 0 0 0.16 0"/>
<feBlend mode="normal" in2="BackgroundImageFix" result="effect1_dropShadow_531_1137"/>
<feBlend mode="normal" in="SourceGraphic" in2="effect1_dropShadow_531_1137" result="shape"/>
</filter>
<filter id="filter2_d_531_1137" x="146" y="250" width="220" height="156" filterUnits="userSpaceOnUse" color-interpolation-filters="sRGB">
<feFlood flood-opacity="0" result="BackgroundImageFix"/>
<feColorMatrix in="SourceAlpha" type="matrix" values="0 0 0 0 0 0 0 0 0 0 0 0 0 0 0 0 0 0 127 0" result="hardAlpha"/>
<feOffset dx="2" dy="2"/>
<feGaussianBlur stdDeviation="30"/>
<feComposite in2="hardAlpha" operator="out"/>
<feColorMatrix type="matrix" values="0 0 0 0 0 0 0 0 0 0 0 0 0 0 0 0 0 0 0.18 0"/>
<feBlend mode="normal" in2="BackgroundImageFix" result="effect1_dropShadow_531_1137"/>
<feBlend mode="normal" in="SourceGraphic" in2="effect1_dropShadow_531_1137" result="shape"/>
</filter>
<filter id="filter3_d_531_1137" x="259" y="250" width="220" height="156" filterUnits="userSpaceOnUse" color-interpolation-filters="sRGB">
<feFlood flood-opacity="0" result="BackgroundImageFix"/>
<feColorMatrix in="SourceAlpha" type="matrix" values="0 0 0 0 0 0 0 0 0 0 0 0 0 0 0 0 0 0 127 0" result="hardAlpha"/>
<feOffset dx="2" dy="2"/>
<feGaussianBlur stdDeviation="30"/>
<feComposite in2="hardAlpha" operator="out"/>
<feColorMatrix type="matrix" values="0 0 0 0 0 0 0 0 0 0 0 0 0 0 0 0 0 0 0.15 0"/>
<feBlend mode="normal" in2="BackgroundImageFix" result="effect1_dropShadow_531_1137"/>
<feBlend mode="normal" in="SourceGraphic" in2="effect1_dropShadow_531_1137" result="shape"/>
</filter>
<filter id="filter4_d_531_1137" x="372" y="250" width="220" height="156" filterUnits="userSpaceOnUse" color-interpolation-filters="sRGB">
<feFlood flood-opacity="0" result="BackgroundImageFix"/>
<feColorMatrix in="SourceAlpha" type="matrix" values="0 0 0 0 0 0 0 0 0 0 0 0 0 0 0 0 0 0 127 0" result="hardAlpha"/>
<feOffset dx="2" dy="2"/>
<feGaussianBlur stdDeviation="30"/>
<feComposite in2="hardAlpha" operator="out"/>
<feColorMatrix type="matrix" values="0 0 0 0 0 0 0 0 0 0 0 0 0 0 0 0 0 0 0.15 0"/>
<feBlend mode="normal" in2="BackgroundImageFix" result="effect1_dropShadow_531_1137"/>
<feBlend mode="normal" in="SourceGraphic" in2="effect1_dropShadow_531_1137" result="shape"/>
</filter>
<filter id="filter5_d_531_1137" x="146" y="305" width="220" height="156" filterUnits="userSpaceOnUse" color-interpolation-filters="sRGB">
<feFlood flood-opacity="0" result="BackgroundImageFix"/>
<feColorMatrix in="SourceAlpha" type="matrix" values="0 0 0 0 0 0 0 0 0 0 0 0 0 0 0 0 0 0 127 0" result="hardAlpha"/>
<feOffset dx="2" dy="2"/>
<feGaussianBlur stdDeviation="30"/>
<feComposite in2="hardAlpha" operator="out"/>
<feColorMatrix type="matrix" values="0 0 0 0 0 0 0 0 0 0 0 0 0 0 0 0 0 0 0.15 0"/>
<feBlend mode="normal" in2="BackgroundImageFix" result="effect1_dropShadow_531_1137"/>
<feBlend mode="normal" in="SourceGraphic" in2="effect1_dropShadow_531_1137" result="shape"/>
</filter>
<filter id="filter6_d_531_1137" x="259" y="305" width="220" height="156" filterUnits="userSpaceOnUse" color-interpolation-filters="sRGB">
<feFlood flood-opacity="0" result="BackgroundImageFix"/>
<feColorMatrix in="SourceAlpha" type="matrix" values="0 0 0 0 0 0 0 0 0 0 0 0 0 0 0 0 0 0 127 0" result="hardAlpha"/>
<feOffset dx="2" dy="2"/>
<feGaussianBlur stdDeviation="30"/>
<feComposite in2="hardAlpha" operator="out"/>
<feColorMatrix type="matrix" values="0 0 0 0 0 0 0 0 0 0 0 0 0 0 0 0 0 0 0.15 0"/>
<feBlend mode="normal" in2="BackgroundImageFix" result="effect1_dropShadow_531_1137"/>
<feBlend mode="normal" in="SourceGraphic" in2="effect1_dropShadow_531_1137" result="shape"/>
</filter>
<filter id="filter7_d_531_1137" x="372" y="305" width="220" height="156" filterUnits="userSpaceOnUse" color-interpolation-filters="sRGB">
<feFlood flood-opacity="0" result="BackgroundImageFix"/>
<feColorMatrix in="SourceAlpha" type="matrix" values="0 0 0 0 0 0 0 0 0 0 0 0 0 0 0 0 0 0 127 0" result="hardAlpha"/>
<feOffset dx="2" dy="2"/>
<feGaussianBlur stdDeviation="30"/>
<feComposite in2="hardAlpha" operator="out"/>
<feColorMatrix type="matrix" values="0 0 0 0 0 0 0 0 0 0 0 0 0 0 0 0 0 0 0.15 0"/>
<feBlend mode="normal" in2="BackgroundImageFix" result="effect1_dropShadow_531_1137"/>
<feBlend mode="normal" in="SourceGraphic" in2="effect1_dropShadow_531_1137" result="shape"/>
</filter>
<radialGradient id="paint0_diamond_531_1137" cx="0" cy="0" r="1" gradientUnits="userSpaceOnUse" gradientTransform="translate(472.475 165.562) rotate(102.322) scale(508.144 519.544)">
<stop stop-color="#17B3A9"/>
<stop offset="1" stop-color="#0945DF"/>
</radialGradient>
</defs>
</svg>
