<svg width="522" height="604" viewBox="0 0 522 604" fill="none" xmlns="http://www.w3.org/2000/svg">
<g filter="url(#filter0_d_9_60)">
<rect x="63" y="63" width="392" height="474" rx="10" fill="white"/>
<rect x="63.5" y="63.5" width="391" height="473" rx="9.5" stroke="#1A8FE3" stroke-opacity="0.5"/>
</g>
<path d="M157.728 119V101.12H163.56C165.448 101.12 167.088 101.504 168.48 102.272C169.888 103.024 170.976 104.072 171.744 105.416C172.512 106.744 172.896 108.288 172.896 110.048C172.896 111.792 172.512 113.344 171.744 114.704C170.976 116.048 169.888 117.104 168.48 117.872C167.088 118.624 165.448 119 163.56 119H157.728ZM160.992 116.12H163.632C164.848 116.12 165.896 115.872 166.776 115.376C167.672 114.864 168.368 114.16 168.864 113.264C169.36 112.352 169.608 111.28 169.608 110.048C169.608 108.8 169.36 107.728 168.864 106.832C168.368 105.936 167.672 105.24 166.776 104.744C165.896 104.248 164.848 104 163.632 104H160.992V116.12ZM181.614 119.288C180.334 119.288 179.166 118.992 178.11 118.4C177.07 117.808 176.238 117 175.614 115.976C175.006 114.952 174.702 113.784 174.702 112.472C174.702 111.16 175.006 109.992 175.614 108.968C176.238 107.944 177.07 107.136 178.11 106.544C179.15 105.952 180.318 105.656 181.614 105.656C182.894 105.656 184.054 105.952 185.094 106.544C186.134 107.136 186.958 107.944 187.566 108.968C188.19 109.976 188.502 111.144 188.502 112.472C188.502 113.784 188.19 114.952 187.566 115.976C186.942 117 186.11 117.808 185.07 118.4C184.03 118.992 182.878 119.288 181.614 119.288ZM181.614 116.408C182.318 116.408 182.934 116.24 183.462 115.904C184.006 115.568 184.43 115.104 184.734 114.512C185.054 113.904 185.214 113.224 185.214 112.472C185.214 111.704 185.054 111.032 184.734 110.456C184.43 109.864 184.006 109.4 183.462 109.064C182.934 108.712 182.318 108.536 181.614 108.536C180.894 108.536 180.262 108.712 179.718 109.064C179.174 109.4 178.742 109.864 178.422 110.456C178.118 111.032 177.966 111.704 177.966 112.472C177.966 113.224 178.118 113.904 178.422 114.512C178.742 115.104 179.174 115.568 179.718 115.904C180.262 116.24 180.894 116.408 181.614 116.408ZM190.886 119V105.944H193.838V108.512L193.598 108.056C193.902 107.272 194.398 106.68 195.086 106.28C195.79 105.864 196.606 105.656 197.534 105.656C198.494 105.656 199.342 105.864 200.078 106.28C200.83 106.696 201.414 107.28 201.83 108.032C202.246 108.768 202.454 109.624 202.454 110.6V119H199.31V111.344C199.31 110.768 199.198 110.272 198.974 109.856C198.75 109.44 198.438 109.12 198.038 108.896C197.654 108.656 197.198 108.536 196.67 108.536C196.158 108.536 195.702 108.656 195.302 108.896C194.902 109.12 194.59 109.44 194.366 109.856C194.142 110.272 194.03 110.768 194.03 111.344V119H190.886ZM209.072 119.288C208.16 119.288 207.368 119.136 206.696 118.832C206.024 118.528 205.504 118.096 205.136 117.536C204.768 116.96 204.584 116.296 204.584 115.544C204.584 114.824 204.744 114.184 205.064 113.624C205.384 113.048 205.88 112.568 206.552 112.184C207.224 111.8 208.072 111.528 209.096 111.368L213.368 110.672V113.072L209.696 113.696C209.072 113.808 208.608 114.008 208.304 114.296C208 114.584 207.848 114.96 207.848 115.424C207.848 115.872 208.016 116.232 208.352 116.504C208.704 116.76 209.136 116.888 209.648 116.888C210.304 116.888 210.88 116.752 211.376 116.48C211.888 116.192 212.28 115.8 212.552 115.304C212.84 114.808 212.984 114.264 212.984 113.672V110.312C212.984 109.752 212.76 109.288 212.312 108.92C211.88 108.536 211.304 108.344 210.584 108.344C209.912 108.344 209.312 108.528 208.784 108.896C208.272 109.248 207.896 109.72 207.656 110.312L205.088 109.064C205.344 108.376 205.744 107.784 206.288 107.288C206.848 106.776 207.504 106.376 208.256 106.088C209.008 105.8 209.824 105.656 210.704 105.656C211.776 105.656 212.72 105.856 213.536 106.256C214.352 106.64 214.984 107.184 215.432 107.888C215.896 108.576 216.128 109.384 216.128 110.312V119H213.152V116.768L213.824 116.72C213.488 117.28 213.088 117.752 212.624 118.136C212.16 118.504 211.632 118.792 211.04 119C210.448 119.192 209.792 119.288 209.072 119.288ZM224.752 119.144C223.28 119.144 222.136 118.744 221.32 117.944C220.52 117.128 220.12 115.984 220.12 114.512V108.752H217.864V105.944H218.104C218.744 105.944 219.24 105.776 219.592 105.44C219.944 105.104 220.12 104.616 220.12 103.976V102.968H223.264V105.944H226.264V108.752H223.264V114.344C223.264 114.776 223.336 115.144 223.48 115.448C223.64 115.752 223.88 115.984 224.2 116.144C224.536 116.304 224.96 116.384 225.472 116.384C225.584 116.384 225.712 116.376 225.856 116.36C226.016 116.344 226.168 116.328 226.312 116.312V119C226.088 119.032 225.832 119.064 225.544 119.096C225.256 119.128 224.992 119.144 224.752 119.144ZM228.714 119V105.944H231.858V119H228.714ZM228.714 104.48V101.12H231.858V104.48H228.714ZM241.145 119.288C239.865 119.288 238.697 118.992 237.641 118.4C236.601 117.808 235.769 117 235.145 115.976C234.537 114.952 234.233 113.784 234.233 112.472C234.233 111.16 234.537 109.992 235.145 108.968C235.769 107.944 236.601 107.136 237.641 106.544C238.681 105.952 239.849 105.656 241.145 105.656C242.425 105.656 243.585 105.952 244.625 106.544C245.665 107.136 246.489 107.944 247.097 108.968C247.721 109.976 248.033 111.144 248.033 112.472C248.033 113.784 247.721 114.952 247.097 115.976C246.473 117 245.641 117.808 244.601 118.4C243.561 118.992 242.409 119.288 241.145 119.288ZM241.145 116.408C241.849 116.408 242.465 116.24 242.993 115.904C243.537 115.568 243.961 115.104 244.265 114.512C244.585 113.904 244.745 113.224 244.745 112.472C244.745 111.704 244.585 111.032 244.265 110.456C243.961 109.864 243.537 109.4 242.993 109.064C242.465 108.712 241.849 108.536 241.145 108.536C240.425 108.536 239.793 108.712 239.249 109.064C238.705 109.4 238.273 109.864 237.953 110.456C237.649 111.032 237.497 111.704 237.497 112.472C237.497 113.224 237.649 113.904 237.953 114.512C238.273 115.104 238.705 115.568 239.249 115.904C239.793 116.24 240.425 116.408 241.145 116.408ZM250.417 119V105.944H253.369V108.512L253.129 108.056C253.433 107.272 253.929 106.68 254.617 106.28C255.321 105.864 256.137 105.656 257.065 105.656C258.025 105.656 258.873 105.864 259.609 106.28C260.361 106.696 260.945 107.28 261.361 108.032C261.777 108.768 261.985 109.624 261.985 110.6V119H258.841V111.344C258.841 110.768 258.729 110.272 258.505 109.856C258.281 109.44 257.969 109.12 257.569 108.896C257.185 108.656 256.729 108.536 256.201 108.536C255.689 108.536 255.233 108.656 254.833 108.896C254.433 109.12 254.121 109.44 253.897 109.856C253.673 110.272 253.561 110.768 253.561 111.344V119H250.417ZM267.709 119L273.877 101.12H278.101L284.269 119H280.717L279.445 115.16H272.533L271.237 119H267.709ZM273.469 112.28H278.509L275.533 103.376H276.445L273.469 112.28ZM285.995 119V105.944H288.947V108.968L288.611 108.464C288.851 107.52 289.331 106.816 290.051 106.352C290.771 105.888 291.619 105.656 292.595 105.656C293.667 105.656 294.611 105.936 295.427 106.496C296.243 107.056 296.771 107.792 297.011 108.704L296.123 108.776C296.523 107.736 297.123 106.96 297.923 106.448C298.723 105.92 299.643 105.656 300.683 105.656C301.611 105.656 302.435 105.864 303.155 106.28C303.891 106.696 304.467 107.28 304.883 108.032C305.299 108.768 305.507 109.624 305.507 110.6V119H302.363V111.344C302.363 110.768 302.259 110.272 302.051 109.856C301.843 109.44 301.555 109.12 301.187 108.896C300.819 108.656 300.371 108.536 299.843 108.536C299.347 108.536 298.907 108.656 298.523 108.896C298.139 109.12 297.843 109.44 297.635 109.856C297.427 110.272 297.323 110.768 297.323 111.344V119H294.179V111.344C294.179 110.768 294.075 110.272 293.867 109.856C293.659 109.44 293.363 109.12 292.979 108.896C292.611 108.656 292.171 108.536 291.659 108.536C291.163 108.536 290.723 108.656 290.339 108.896C289.955 109.12 289.659 109.44 289.451 109.856C289.243 110.272 289.139 110.768 289.139 111.344V119H285.995ZM314.551 119.288C313.271 119.288 312.103 118.992 311.047 118.4C310.007 117.808 309.175 117 308.551 115.976C307.943 114.952 307.639 113.784 307.639 112.472C307.639 111.16 307.943 109.992 308.551 108.968C309.175 107.944 310.007 107.136 311.047 106.544C312.087 105.952 313.255 105.656 314.551 105.656C315.831 105.656 316.991 105.952 318.031 106.544C319.071 107.136 319.895 107.944 320.503 108.968C321.127 109.976 321.439 111.144 321.439 112.472C321.439 113.784 321.127 114.952 320.503 115.976C319.879 117 319.047 117.808 318.007 118.4C316.967 118.992 315.815 119.288 314.551 119.288ZM314.551 116.408C315.255 116.408 315.871 116.24 316.399 115.904C316.943 115.568 317.367 115.104 317.671 114.512C317.991 113.904 318.151 113.224 318.151 112.472C318.151 111.704 317.991 111.032 317.671 110.456C317.367 109.864 316.943 109.4 316.399 109.064C315.871 108.712 315.255 108.536 314.551 108.536C313.831 108.536 313.199 108.712 312.655 109.064C312.111 109.4 311.679 109.864 311.359 110.456C311.055 111.032 310.903 111.704 310.903 112.472C310.903 113.224 311.055 113.904 311.359 114.512C311.679 115.104 312.111 115.568 312.655 115.904C313.199 116.24 313.831 116.408 314.551 116.408ZM328.479 119.288C327.471 119.288 326.591 119.064 325.839 118.616C325.103 118.168 324.535 117.544 324.135 116.744C323.751 115.944 323.559 115.008 323.559 113.936V105.944H326.703V113.672C326.703 114.216 326.807 114.696 327.015 115.112C327.239 115.512 327.551 115.832 327.951 116.072C328.367 116.296 328.831 116.408 329.343 116.408C329.855 116.408 330.311 116.296 330.711 116.072C331.111 115.832 331.423 115.504 331.647 115.088C331.871 114.672 331.983 114.176 331.983 113.6V105.944H335.127V119H332.151V116.432L332.415 116.888C332.111 117.688 331.607 118.288 330.903 118.688C330.215 119.088 329.407 119.288 328.479 119.288ZM338.05 119V105.944H341.002V108.512L340.762 108.056C341.066 107.272 341.562 106.68 342.25 106.28C342.954 105.864 343.77 105.656 344.698 105.656C345.658 105.656 346.506 105.864 347.242 106.28C347.994 106.696 348.578 107.28 348.994 108.032C349.41 108.768 349.618 109.624 349.618 110.6V119H346.474V111.344C346.474 110.768 346.362 110.272 346.138 109.856C345.914 109.44 345.602 109.12 345.202 108.896C344.818 108.656 344.362 108.536 343.834 108.536C343.322 108.536 342.866 108.656 342.466 108.896C342.066 109.12 341.754 109.44 341.53 109.856C341.306 110.272 341.194 110.768 341.194 111.344V119H338.05ZM358.229 119.144C356.757 119.144 355.613 118.744 354.797 117.944C353.997 117.128 353.597 115.984 353.597 114.512V108.752H351.341V105.944H351.581C352.221 105.944 352.717 105.776 353.069 105.44C353.421 105.104 353.597 104.616 353.597 103.976V102.968H356.741V105.944H359.741V108.752H356.741V114.344C356.741 114.776 356.813 115.144 356.957 115.448C357.117 115.752 357.357 115.984 357.677 116.144C358.013 116.304 358.437 116.384 358.949 116.384C359.061 116.384 359.189 116.376 359.333 116.36C359.493 116.344 359.645 116.328 359.789 116.312V119C359.565 119.032 359.309 119.064 359.021 119.096C358.733 119.128 358.469 119.144 358.229 119.144Z" fill="#353535"/>
<rect x="105.5" y="158.5" width="306" height="39" rx="9.5" stroke="#1A8FE3"/>
<path d="M105 168C105 162.477 109.477 158 115 158H263V198H115C109.477 198 105 193.523 105 188V168Z" fill="#1A8FE3"/>
<path d="M155.146 184.168C154.381 184.168 153.667 184.033 153.004 183.762C152.341 183.491 151.763 183.113 151.268 182.628C150.773 182.143 150.386 181.573 150.106 180.92C149.835 180.257 149.7 179.543 149.7 178.778C149.7 178.003 149.835 177.289 150.106 176.636C150.377 175.983 150.759 175.413 151.254 174.928C151.749 174.443 152.327 174.069 152.99 173.808C153.653 173.537 154.371 173.402 155.146 173.402C155.921 173.402 156.639 173.537 157.302 173.808C157.965 174.079 158.543 174.457 159.038 174.942C159.533 175.418 159.915 175.983 160.186 176.636C160.466 177.289 160.606 178.003 160.606 178.778C160.606 179.543 160.466 180.257 160.186 180.92C159.906 181.573 159.519 182.143 159.024 182.628C158.529 183.113 157.951 183.491 157.288 183.762C156.635 184.033 155.921 184.168 155.146 184.168ZM155.146 182.432C155.659 182.432 156.131 182.343 156.56 182.166C156.989 181.979 157.363 181.723 157.68 181.396C158.007 181.069 158.254 180.682 158.422 180.234C158.599 179.786 158.688 179.301 158.688 178.778C158.688 178.255 158.599 177.775 158.422 177.336C158.254 176.888 158.007 176.501 157.68 176.174C157.363 175.838 156.989 175.581 156.56 175.404C156.131 175.227 155.659 175.138 155.146 175.138C154.642 175.138 154.175 175.227 153.746 175.404C153.317 175.581 152.939 175.838 152.612 176.174C152.295 176.501 152.047 176.888 151.87 177.336C151.693 177.775 151.604 178.255 151.604 178.778C151.604 179.301 151.693 179.786 151.87 180.234C152.047 180.682 152.295 181.069 152.612 181.396C152.939 181.723 153.317 181.979 153.746 182.166C154.175 182.343 154.642 182.432 155.146 182.432ZM162.145 184V176.384H163.867V177.882L163.727 177.616C163.904 177.159 164.194 176.813 164.595 176.58C165.006 176.337 165.482 176.216 166.023 176.216C166.583 176.216 167.078 176.337 167.507 176.58C167.946 176.823 168.286 177.163 168.529 177.602C168.772 178.031 168.893 178.531 168.893 179.1V184H167.059V179.534C167.059 179.198 166.994 178.909 166.863 178.666C166.732 178.423 166.55 178.237 166.317 178.106C166.093 177.966 165.827 177.896 165.519 177.896C165.22 177.896 164.954 177.966 164.721 178.106C164.488 178.237 164.306 178.423 164.175 178.666C164.044 178.909 163.979 179.198 163.979 179.534V184H162.145ZM174.056 184.168C173.272 184.168 172.586 183.991 171.998 183.636C171.41 183.281 170.953 182.801 170.626 182.194C170.299 181.587 170.136 180.915 170.136 180.178C170.136 179.413 170.299 178.736 170.626 178.148C170.962 177.551 171.415 177.079 171.984 176.734C172.563 176.389 173.207 176.216 173.916 176.216C174.513 176.216 175.036 176.314 175.484 176.51C175.941 176.706 176.329 176.977 176.646 177.322C176.963 177.667 177.206 178.064 177.374 178.512C177.542 178.951 177.626 179.427 177.626 179.94C177.626 180.071 177.617 180.206 177.598 180.346C177.589 180.486 177.565 180.607 177.528 180.71H171.648V179.31H176.492L175.624 179.968C175.708 179.539 175.685 179.156 175.554 178.82C175.433 178.484 175.227 178.218 174.938 178.022C174.658 177.826 174.317 177.728 173.916 177.728C173.533 177.728 173.193 177.826 172.894 178.022C172.595 178.209 172.367 178.489 172.208 178.862C172.059 179.226 172.003 179.669 172.04 180.192C172.003 180.659 172.063 181.074 172.222 181.438C172.39 181.793 172.633 182.068 172.95 182.264C173.277 182.46 173.65 182.558 174.07 182.558C174.49 182.558 174.845 182.469 175.134 182.292C175.433 182.115 175.666 181.877 175.834 181.578L177.318 182.306C177.169 182.67 176.935 182.992 176.618 183.272C176.301 183.552 175.923 183.771 175.484 183.93C175.055 184.089 174.579 184.168 174.056 184.168ZM179.394 181.004V179.394H185.344V181.004H179.394ZM190.883 184.084C190.024 184.084 189.357 183.851 188.881 183.384C188.414 182.908 188.181 182.241 188.181 181.382V178.022H186.865V176.384H187.005C187.378 176.384 187.667 176.286 187.873 176.09C188.078 175.894 188.181 175.609 188.181 175.236V174.648H190.015V176.384H191.765V178.022H190.015V181.284C190.015 181.536 190.057 181.751 190.141 181.928C190.234 182.105 190.374 182.241 190.561 182.334C190.757 182.427 191.004 182.474 191.303 182.474C191.368 182.474 191.443 182.469 191.527 182.46C191.62 182.451 191.709 182.441 191.793 182.432V184C191.662 184.019 191.513 184.037 191.345 184.056C191.177 184.075 191.023 184.084 190.883 184.084ZM193.194 184V176.384H195.028V184H193.194ZM193.194 175.53V173.57H195.028V175.53H193.194ZM196.721 184V176.384H198.443V178.148L198.247 177.854C198.387 177.303 198.667 176.893 199.087 176.622C199.507 176.351 200.002 176.216 200.571 176.216C201.197 176.216 201.747 176.379 202.223 176.706C202.699 177.033 203.007 177.462 203.147 177.994L202.629 178.036C202.863 177.429 203.213 176.977 203.679 176.678C204.146 176.37 204.683 176.216 205.289 176.216C205.831 176.216 206.311 176.337 206.731 176.58C207.161 176.823 207.497 177.163 207.739 177.602C207.982 178.031 208.103 178.531 208.103 179.1V184H206.269V179.534C206.269 179.198 206.209 178.909 206.087 178.666C205.966 178.423 205.798 178.237 205.583 178.106C205.369 177.966 205.107 177.896 204.799 177.896C204.51 177.896 204.253 177.966 204.029 178.106C203.805 178.237 203.633 178.423 203.511 178.666C203.39 178.909 203.329 179.198 203.329 179.534V184H201.495V179.534C201.495 179.198 201.435 178.909 201.313 178.666C201.192 178.423 201.019 178.237 200.795 178.106C200.581 177.966 200.324 177.896 200.025 177.896C199.736 177.896 199.479 177.966 199.255 178.106C199.031 178.237 198.859 178.423 198.737 178.666C198.616 178.909 198.555 179.198 198.555 179.534V184H196.721ZM213.267 184.168C212.483 184.168 211.797 183.991 211.209 183.636C210.621 183.281 210.163 182.801 209.837 182.194C209.51 181.587 209.347 180.915 209.347 180.178C209.347 179.413 209.51 178.736 209.837 178.148C210.173 177.551 210.625 177.079 211.195 176.734C211.773 176.389 212.417 176.216 213.127 176.216C213.724 176.216 214.247 176.314 214.695 176.51C215.152 176.706 215.539 176.977 215.857 177.322C216.174 177.667 216.417 178.064 216.585 178.512C216.753 178.951 216.837 179.427 216.837 179.94C216.837 180.071 216.827 180.206 216.809 180.346C216.799 180.486 216.776 180.607 216.739 180.71H210.859V179.31H215.703L214.835 179.968C214.919 179.539 214.895 179.156 214.765 178.82C214.643 178.484 214.438 178.218 214.149 178.022C213.869 177.826 213.528 177.728 213.127 177.728C212.744 177.728 212.403 177.826 212.105 178.022C211.806 178.209 211.577 178.489 211.419 178.862C211.269 179.226 211.213 179.669 211.251 180.192C211.213 180.659 211.274 181.074 211.433 181.438C211.601 181.793 211.843 182.068 212.161 182.264C212.487 182.46 212.861 182.558 213.281 182.558C213.701 182.558 214.055 182.469 214.345 182.292C214.643 182.115 214.877 181.877 215.045 181.578L216.529 182.306C216.379 182.67 216.146 182.992 215.829 183.272C215.511 183.552 215.133 183.771 214.695 183.93C214.265 184.089 213.789 184.168 213.267 184.168Z" fill="white"/>
<path d="M314.954 184L312.154 173.57H314.198L316.396 182.46H315.864L318.16 173.57H320.134L322.416 182.46H321.884L324.082 173.57H326.126L323.326 184H321.142L318.832 175.348H319.448L317.138 184H314.954ZM330.288 184.168C329.504 184.168 328.818 183.991 328.23 183.636C327.642 183.281 327.185 182.801 326.858 182.194C326.532 181.587 326.368 180.915 326.368 180.178C326.368 179.413 326.532 178.736 326.858 178.148C327.194 177.551 327.647 177.079 328.216 176.734C328.795 176.389 329.439 176.216 330.148 176.216C330.746 176.216 331.268 176.314 331.716 176.51C332.174 176.706 332.561 176.977 332.878 177.322C333.196 177.667 333.438 178.064 333.606 178.512C333.774 178.951 333.858 179.427 333.858 179.94C333.858 180.071 333.849 180.206 333.83 180.346C333.821 180.486 333.798 180.607 333.76 180.71H327.88V179.31H332.724L331.856 179.968C331.94 179.539 331.917 179.156 331.786 178.82C331.665 178.484 331.46 178.218 331.17 178.022C330.89 177.826 330.55 177.728 330.148 177.728C329.766 177.728 329.425 177.826 329.126 178.022C328.828 178.209 328.599 178.489 328.44 178.862C328.291 179.226 328.235 179.669 328.272 180.192C328.235 180.659 328.296 181.074 328.454 181.438C328.622 181.793 328.865 182.068 329.182 182.264C329.509 182.46 329.882 182.558 330.302 182.558C330.722 182.558 331.077 182.469 331.366 182.292C331.665 182.115 331.898 181.877 332.066 181.578L333.55 182.306C333.401 182.67 333.168 182.992 332.85 183.272C332.533 183.552 332.155 183.771 331.716 183.93C331.287 184.089 330.811 184.168 330.288 184.168ZM338.861 184.168C338.077 184.168 337.391 183.991 336.803 183.636C336.215 183.281 335.757 182.801 335.431 182.194C335.104 181.587 334.941 180.915 334.941 180.178C334.941 179.413 335.104 178.736 335.431 178.148C335.767 177.551 336.219 177.079 336.789 176.734C337.367 176.389 338.011 176.216 338.721 176.216C339.318 176.216 339.841 176.314 340.289 176.51C340.746 176.706 341.133 176.977 341.451 177.322C341.768 177.667 342.011 178.064 342.179 178.512C342.347 178.951 342.431 179.427 342.431 179.94C342.431 180.071 342.421 180.206 342.403 180.346C342.393 180.486 342.37 180.607 342.333 180.71H336.453V179.31H341.297L340.429 179.968C340.513 179.539 340.489 179.156 340.359 178.82C340.237 178.484 340.032 178.218 339.743 178.022C339.463 177.826 339.122 177.728 338.721 177.728C338.338 177.728 337.997 177.826 337.699 178.022C337.4 178.209 337.171 178.489 337.013 178.862C336.863 179.226 336.807 179.669 336.845 180.192C336.807 180.659 336.868 181.074 337.027 181.438C337.195 181.793 337.437 182.068 337.755 182.264C338.081 182.46 338.455 182.558 338.875 182.558C339.295 182.558 339.649 182.469 339.939 182.292C340.237 182.115 340.471 181.877 340.639 181.578L342.123 182.306C341.973 182.67 341.74 182.992 341.423 183.272C341.105 183.552 340.727 183.771 340.289 183.93C339.859 184.089 339.383 184.168 338.861 184.168ZM343.821 184V173.402H345.655V180.346L344.955 180.136L348.539 176.384H350.821L348.007 179.45L350.877 184H348.777L346.285 180.052L347.377 179.828L345.081 182.292L345.655 181.172V184H343.821ZM351.901 184V173.402H353.735V184H351.901ZM356.352 187.094C356.147 187.094 355.946 187.075 355.75 187.038C355.554 187.01 355.377 186.959 355.218 186.884V185.344C355.34 185.372 355.484 185.4 355.652 185.428C355.83 185.456 355.993 185.47 356.142 185.47C356.562 185.47 356.866 185.372 357.052 185.176C357.248 184.98 357.421 184.723 357.57 184.406L358.074 183.23L358.046 184.77L354.728 176.384H356.702L359.026 182.572H358.326L360.636 176.384H362.624L359.306 184.77C359.11 185.265 358.872 185.685 358.592 186.03C358.312 186.375 357.986 186.637 357.612 186.814C357.248 187.001 356.828 187.094 356.352 187.094Z" fill="#1A8FE3" fill-opacity="0.5"/>
<g filter="url(#filter1_d_9_60)">
<rect x="99" y="251" width="100" height="36" rx="5" fill="white"/>
<rect x="99.25" y="251.25" width="99.5" height="35.5" rx="4.75" stroke="#D3D3D3" stroke-width="0.5"/>
</g>
<path d="M129.158 275.168C128.607 275.168 128.08 275.065 127.576 274.86C127.081 274.655 126.652 274.365 126.288 273.992C125.933 273.609 125.691 273.157 125.56 272.634L127.212 272.046C127.371 272.522 127.627 272.877 127.982 273.11C128.337 273.334 128.729 273.446 129.158 273.446C129.513 273.446 129.825 273.371 130.096 273.222C130.376 273.063 130.591 272.849 130.74 272.578C130.889 272.298 130.964 271.976 130.964 271.612C130.964 271.248 130.885 270.931 130.726 270.66C130.577 270.389 130.367 270.179 130.096 270.03C129.825 269.871 129.513 269.792 129.158 269.792C128.794 269.792 128.463 269.871 128.164 270.03C127.875 270.189 127.665 270.417 127.534 270.716L125.98 270.366L126.806 264.57H132.49V266.18H127.562L128.276 265.354L127.688 269.722L127.142 269.274C127.403 268.891 127.721 268.611 128.094 268.434C128.477 268.257 128.939 268.168 129.48 268.168C130.171 268.168 130.768 268.317 131.272 268.616C131.785 268.915 132.182 269.321 132.462 269.834C132.742 270.347 132.882 270.94 132.882 271.612C132.882 272.284 132.719 272.891 132.392 273.432C132.065 273.973 131.622 274.398 131.062 274.706C130.502 275.014 129.867 275.168 129.158 275.168ZM138.569 275.168C137.739 275.168 137.011 274.944 136.385 274.496C135.76 274.048 135.27 273.418 134.915 272.606C134.57 271.794 134.397 270.851 134.397 269.778C134.397 268.695 134.57 267.753 134.915 266.95C135.261 266.147 135.746 265.522 136.371 265.074C136.997 264.626 137.725 264.402 138.555 264.402C139.405 264.402 140.137 264.626 140.753 265.074C141.379 265.522 141.869 266.152 142.223 266.964C142.578 267.767 142.755 268.705 142.755 269.778C142.755 270.851 142.578 271.794 142.223 272.606C141.878 273.409 141.393 274.039 140.767 274.496C140.142 274.944 139.409 275.168 138.569 275.168ZM138.583 273.432C139.059 273.432 139.465 273.287 139.801 272.998C140.137 272.699 140.394 272.279 140.571 271.738C140.758 271.187 140.851 270.534 140.851 269.778C140.851 269.022 140.758 268.373 140.571 267.832C140.394 267.281 140.133 266.861 139.787 266.572C139.451 266.283 139.041 266.138 138.555 266.138C138.089 266.138 137.687 266.283 137.351 266.572C137.015 266.861 136.754 267.281 136.567 267.832C136.39 268.373 136.301 269.022 136.301 269.778C136.301 270.525 136.39 271.173 136.567 271.724C136.754 272.265 137.015 272.685 137.351 272.984C137.697 273.283 138.107 273.432 138.583 273.432ZM148.481 275.168C147.651 275.168 146.923 274.944 146.297 274.496C145.672 274.048 145.182 273.418 144.827 272.606C144.482 271.794 144.309 270.851 144.309 269.778C144.309 268.695 144.482 267.753 144.827 266.95C145.173 266.147 145.658 265.522 146.283 265.074C146.909 264.626 147.637 264.402 148.467 264.402C149.317 264.402 150.049 264.626 150.665 265.074C151.291 265.522 151.781 266.152 152.135 266.964C152.49 267.767 152.667 268.705 152.667 269.778C152.667 270.851 152.49 271.794 152.135 272.606C151.79 273.409 151.305 274.039 150.679 274.496C150.054 274.944 149.321 275.168 148.481 275.168ZM148.495 273.432C148.971 273.432 149.377 273.287 149.713 272.998C150.049 272.699 150.306 272.279 150.483 271.738C150.67 271.187 150.763 270.534 150.763 269.778C150.763 269.022 150.67 268.373 150.483 267.832C150.306 267.281 150.045 266.861 149.699 266.572C149.363 266.283 148.953 266.138 148.467 266.138C148.001 266.138 147.599 266.283 147.263 266.572C146.927 266.861 146.666 267.281 146.479 267.832C146.302 268.373 146.213 269.022 146.213 269.778C146.213 270.525 146.302 271.173 146.479 271.724C146.666 272.265 146.927 272.685 147.263 272.984C147.609 273.283 148.019 273.432 148.495 273.432ZM156.934 275V264.57H158.838V270.002L158.32 269.82L162.758 264.57H165.152L160.994 269.498L161.106 268.154L165.278 275H163.038L160.238 270.408L158.838 272.074V275H156.934ZM169.043 275.168C168.231 275.168 167.522 274.977 166.915 274.594C166.318 274.202 165.907 273.675 165.683 273.012L167.055 272.354C167.251 272.783 167.522 273.119 167.867 273.362C168.222 273.605 168.614 273.726 169.043 273.726C169.379 273.726 169.645 273.651 169.841 273.502C170.037 273.353 170.135 273.157 170.135 272.914C170.135 272.765 170.093 272.643 170.009 272.55C169.934 272.447 169.827 272.363 169.687 272.298C169.556 272.223 169.412 272.163 169.253 272.116L168.007 271.766C167.363 271.579 166.873 271.295 166.537 270.912C166.21 270.529 166.047 270.077 166.047 269.554C166.047 269.087 166.164 268.681 166.397 268.336C166.64 267.981 166.971 267.706 167.391 267.51C167.82 267.314 168.31 267.216 168.861 267.216C169.58 267.216 170.214 267.389 170.765 267.734C171.316 268.079 171.708 268.565 171.941 269.19L170.541 269.848C170.41 269.503 170.191 269.227 169.883 269.022C169.575 268.817 169.23 268.714 168.847 268.714C168.539 268.714 168.296 268.784 168.119 268.924C167.942 269.064 167.853 269.246 167.853 269.47C167.853 269.61 167.89 269.731 167.965 269.834C168.04 269.937 168.142 270.021 168.273 270.086C168.413 270.151 168.572 270.212 168.749 270.268L169.967 270.632C170.592 270.819 171.073 271.099 171.409 271.472C171.754 271.845 171.927 272.303 171.927 272.844C171.927 273.301 171.806 273.707 171.563 274.062C171.32 274.407 170.984 274.678 170.555 274.874C170.126 275.07 169.622 275.168 169.043 275.168Z" fill="#9A9A9A"/>
<g filter="url(#filter2_d_9_60)">
<rect x="212" y="251" width="100" height="36" rx="5" fill="white"/>
<rect x="212.25" y="251.25" width="99.5" height="35.5" rx="4.75" stroke="#D3D3D3" stroke-width="0.5"/>
</g>
<path d="M236.422 275V266.194H234.406V264.57H238.326V275H236.422ZM244.602 275.168C243.772 275.168 243.044 274.944 242.418 274.496C241.793 274.048 241.303 273.418 240.948 272.606C240.603 271.794 240.43 270.851 240.43 269.778C240.43 268.695 240.603 267.753 240.948 266.95C241.294 266.147 241.779 265.522 242.404 265.074C243.03 264.626 243.758 264.402 244.588 264.402C245.438 264.402 246.17 264.626 246.786 265.074C247.412 265.522 247.902 266.152 248.256 266.964C248.611 267.767 248.788 268.705 248.788 269.778C248.788 270.851 248.611 271.794 248.256 272.606C247.911 273.409 247.426 274.039 246.8 274.496C246.175 274.944 245.442 275.168 244.602 275.168ZM244.616 273.432C245.092 273.432 245.498 273.287 245.834 272.998C246.17 272.699 246.427 272.279 246.604 271.738C246.791 271.187 246.884 270.534 246.884 269.778C246.884 269.022 246.791 268.373 246.604 267.832C246.427 267.281 246.166 266.861 245.82 266.572C245.484 266.283 245.074 266.138 244.588 266.138C244.122 266.138 243.72 266.283 243.384 266.572C243.048 266.861 242.787 267.281 242.6 267.832C242.423 268.373 242.334 269.022 242.334 269.778C242.334 270.525 242.423 271.173 242.6 271.724C242.787 272.265 243.048 272.685 243.384 272.984C243.73 273.283 244.14 273.432 244.616 273.432ZM254.515 275.168C253.684 275.168 252.956 274.944 252.331 274.496C251.705 274.048 251.215 273.418 250.861 272.606C250.515 271.794 250.343 270.851 250.343 269.778C250.343 268.695 250.515 267.753 250.861 266.95C251.206 266.147 251.691 265.522 252.317 265.074C252.942 264.626 253.67 264.402 254.501 264.402C255.35 264.402 256.083 264.626 256.699 265.074C257.324 265.522 257.814 266.152 258.169 266.964C258.523 267.767 258.701 268.705 258.701 269.778C258.701 270.851 258.523 271.794 258.169 272.606C257.823 273.409 257.338 274.039 256.713 274.496C256.087 274.944 255.355 275.168 254.515 275.168ZM254.529 273.432C255.005 273.432 255.411 273.287 255.747 272.998C256.083 272.699 256.339 272.279 256.517 271.738C256.703 271.187 256.797 270.534 256.797 269.778C256.797 269.022 256.703 268.373 256.517 267.832C256.339 267.281 256.078 266.861 255.733 266.572C255.397 266.283 254.986 266.138 254.501 266.138C254.034 266.138 253.633 266.283 253.297 266.572C252.961 266.861 252.699 267.281 252.513 267.832C252.335 268.373 252.247 269.022 252.247 269.778C252.247 270.525 252.335 271.173 252.513 271.724C252.699 272.265 252.961 272.685 253.297 272.984C253.642 273.283 254.053 273.432 254.529 273.432ZM264.427 275.168C263.596 275.168 262.868 274.944 262.243 274.496C261.617 274.048 261.127 273.418 260.773 272.606C260.427 271.794 260.255 270.851 260.255 269.778C260.255 268.695 260.427 267.753 260.773 266.95C261.118 266.147 261.603 265.522 262.229 265.074C262.854 264.626 263.582 264.402 264.413 264.402C265.262 264.402 265.995 264.626 266.611 265.074C267.236 265.522 267.726 266.152 268.081 266.964C268.435 267.767 268.613 268.705 268.613 269.778C268.613 270.851 268.435 271.794 268.081 272.606C267.735 273.409 267.25 274.039 266.625 274.496C265.999 274.944 265.267 275.168 264.427 275.168ZM264.441 273.432C264.917 273.432 265.323 273.287 265.659 272.998C265.995 272.699 266.251 272.279 266.429 271.738C266.615 271.187 266.709 270.534 266.709 269.778C266.709 269.022 266.615 268.373 266.429 267.832C266.251 267.281 265.99 266.861 265.645 266.572C265.309 266.283 264.898 266.138 264.413 266.138C263.946 266.138 263.545 266.283 263.209 266.572C262.873 266.861 262.611 267.281 262.425 267.832C262.247 268.373 262.159 269.022 262.159 269.778C262.159 270.525 262.247 271.173 262.425 271.724C262.611 272.265 262.873 272.685 263.209 272.984C263.554 273.283 263.965 273.432 264.441 273.432ZM272.879 275V264.57H274.783V270.002L274.265 269.82L278.703 264.57H281.097L276.939 269.498L277.051 268.154L281.223 275H278.983L276.183 270.408L274.783 272.074V275H272.879ZM284.988 275.168C284.176 275.168 283.467 274.977 282.86 274.594C282.263 274.202 281.852 273.675 281.628 273.012L283 272.354C283.196 272.783 283.467 273.119 283.812 273.362C284.167 273.605 284.559 273.726 284.988 273.726C285.324 273.726 285.59 273.651 285.786 273.502C285.982 273.353 286.08 273.157 286.08 272.914C286.08 272.765 286.038 272.643 285.954 272.55C285.88 272.447 285.772 272.363 285.632 272.298C285.502 272.223 285.357 272.163 285.198 272.116L283.952 271.766C283.308 271.579 282.818 271.295 282.482 270.912C282.156 270.529 281.992 270.077 281.992 269.554C281.992 269.087 282.109 268.681 282.342 268.336C282.585 267.981 282.916 267.706 283.336 267.51C283.766 267.314 284.256 267.216 284.806 267.216C285.525 267.216 286.16 267.389 286.71 267.734C287.261 268.079 287.653 268.565 287.886 269.19L286.486 269.848C286.356 269.503 286.136 269.227 285.828 269.022C285.52 268.817 285.175 268.714 284.792 268.714C284.484 268.714 284.242 268.784 284.064 268.924C283.887 269.064 283.798 269.246 283.798 269.47C283.798 269.61 283.836 269.731 283.91 269.834C283.985 269.937 284.088 270.021 284.218 270.086C284.358 270.151 284.517 270.212 284.694 270.268L285.912 270.632C286.538 270.819 287.018 271.099 287.354 271.472C287.7 271.845 287.872 272.303 287.872 272.844C287.872 273.301 287.751 273.707 287.508 274.062C287.266 274.407 286.93 274.678 286.5 274.874C286.071 275.07 285.567 275.168 284.988 275.168Z" fill="#9A9A9A"/>
<g filter="url(#filter3_d_9_60)">
<rect x="325" y="251" width="100" height="36" rx="5" fill="white"/>
<rect x="325.25" y="251.25" width="99.5" height="35.5" rx="4.75" stroke="#D3D3D3" stroke-width="0.5"/>
</g>
<path d="M346.644 275V273.558L349.472 270.604C350.032 270.016 350.461 269.549 350.76 269.204C351.068 268.849 351.283 268.546 351.404 268.294C351.525 268.042 351.586 267.785 351.586 267.524C351.586 267.085 351.446 266.74 351.166 266.488C350.895 266.236 350.545 266.11 350.116 266.11C349.668 266.11 349.281 266.241 348.954 266.502C348.627 266.754 348.389 267.127 348.24 267.622L346.574 267.104C346.686 266.553 346.915 266.077 347.26 265.676C347.605 265.265 348.025 264.953 348.52 264.738C349.024 264.514 349.556 264.402 350.116 264.402C350.788 264.402 351.376 264.523 351.88 264.766C352.393 265.009 352.79 265.349 353.07 265.788C353.359 266.227 353.504 266.74 353.504 267.328C353.504 267.701 353.434 268.07 353.294 268.434C353.154 268.798 352.944 269.171 352.664 269.554C352.384 269.927 352.02 270.347 351.572 270.814L349.122 273.39H353.644V275H346.644ZM359.31 275.168C358.479 275.168 357.751 274.944 357.126 274.496C356.5 274.048 356.01 273.418 355.656 272.606C355.31 271.794 355.138 270.851 355.138 269.778C355.138 268.695 355.31 267.753 355.656 266.95C356.001 266.147 356.486 265.522 357.112 265.074C357.737 264.626 358.465 264.402 359.296 264.402C360.145 264.402 360.878 264.626 361.494 265.074C362.119 265.522 362.609 266.152 362.964 266.964C363.318 267.767 363.496 268.705 363.496 269.778C363.496 270.851 363.318 271.794 362.964 272.606C362.618 273.409 362.133 274.039 361.508 274.496C360.882 274.944 360.15 275.168 359.31 275.168ZM359.324 273.432C359.8 273.432 360.206 273.287 360.542 272.998C360.878 272.699 361.134 272.279 361.312 271.738C361.498 271.187 361.592 270.534 361.592 269.778C361.592 269.022 361.498 268.373 361.312 267.832C361.134 267.281 360.873 266.861 360.528 266.572C360.192 266.283 359.781 266.138 359.296 266.138C358.829 266.138 358.428 266.283 358.092 266.572C357.756 266.861 357.494 267.281 357.308 267.832C357.13 268.373 357.042 269.022 357.042 269.778C357.042 270.525 357.13 271.173 357.308 271.724C357.494 272.265 357.756 272.685 358.092 272.984C358.437 273.283 358.848 273.432 359.324 273.432ZM369.222 275.168C368.391 275.168 367.663 274.944 367.038 274.496C366.412 274.048 365.922 273.418 365.568 272.606C365.222 271.794 365.05 270.851 365.05 269.778C365.05 268.695 365.222 267.753 365.568 266.95C365.913 266.147 366.398 265.522 367.024 265.074C367.649 264.626 368.377 264.402 369.208 264.402C370.057 264.402 370.79 264.626 371.406 265.074C372.031 265.522 372.521 266.152 372.876 266.964C373.23 267.767 373.408 268.705 373.408 269.778C373.408 270.851 373.23 271.794 372.876 272.606C372.53 273.409 372.045 274.039 371.42 274.496C370.794 274.944 370.062 275.168 369.222 275.168ZM369.236 273.432C369.712 273.432 370.118 273.287 370.454 272.998C370.79 272.699 371.046 272.279 371.224 271.738C371.41 271.187 371.504 270.534 371.504 269.778C371.504 269.022 371.41 268.373 371.224 267.832C371.046 267.281 370.785 266.861 370.44 266.572C370.104 266.283 369.693 266.138 369.208 266.138C368.741 266.138 368.34 266.283 368.004 266.572C367.668 266.861 367.406 267.281 367.22 267.832C367.042 268.373 366.954 269.022 366.954 269.778C366.954 270.525 367.042 271.173 367.22 271.724C367.406 272.265 367.668 272.685 368.004 272.984C368.349 273.283 368.76 273.432 369.236 273.432ZM379.134 275.168C378.303 275.168 377.575 274.944 376.95 274.496C376.324 274.048 375.834 273.418 375.48 272.606C375.134 271.794 374.962 270.851 374.962 269.778C374.962 268.695 375.134 267.753 375.48 266.95C375.825 266.147 376.31 265.522 376.936 265.074C377.561 264.626 378.289 264.402 379.12 264.402C379.969 264.402 380.702 264.626 381.318 265.074C381.943 265.522 382.433 266.152 382.788 266.964C383.142 267.767 383.32 268.705 383.32 269.778C383.32 270.851 383.142 271.794 382.788 272.606C382.442 273.409 381.957 274.039 381.332 274.496C380.706 274.944 379.974 275.168 379.134 275.168ZM379.148 273.432C379.624 273.432 380.03 273.287 380.366 272.998C380.702 272.699 380.958 272.279 381.136 271.738C381.322 271.187 381.416 270.534 381.416 269.778C381.416 269.022 381.322 268.373 381.136 267.832C380.958 267.281 380.697 266.861 380.352 266.572C380.016 266.283 379.605 266.138 379.12 266.138C378.653 266.138 378.252 266.283 377.916 266.572C377.58 266.861 377.318 267.281 377.132 267.832C376.954 268.373 376.866 269.022 376.866 269.778C376.866 270.525 376.954 271.173 377.132 271.724C377.318 272.265 377.58 272.685 377.916 272.984C378.261 273.283 378.672 273.432 379.148 273.432ZM387.586 275V264.57H389.49V270.002L388.972 269.82L393.41 264.57H395.804L391.646 269.498L391.758 268.154L395.93 275H393.69L390.89 270.408L389.49 272.074V275H387.586ZM399.695 275.168C398.883 275.168 398.174 274.977 397.567 274.594C396.97 274.202 396.559 273.675 396.335 273.012L397.707 272.354C397.903 272.783 398.174 273.119 398.519 273.362C398.874 273.605 399.266 273.726 399.695 273.726C400.031 273.726 400.297 273.651 400.493 273.502C400.689 273.353 400.787 273.157 400.787 272.914C400.787 272.765 400.745 272.643 400.661 272.55C400.587 272.447 400.479 272.363 400.339 272.298C400.209 272.223 400.064 272.163 399.905 272.116L398.659 271.766C398.015 271.579 397.525 271.295 397.189 270.912C396.863 270.529 396.699 270.077 396.699 269.554C396.699 269.087 396.816 268.681 397.049 268.336C397.292 267.981 397.623 267.706 398.043 267.51C398.473 267.314 398.963 267.216 399.513 267.216C400.232 267.216 400.867 267.389 401.417 267.734C401.968 268.079 402.36 268.565 402.593 269.19L401.193 269.848C401.063 269.503 400.843 269.227 400.535 269.022C400.227 268.817 399.882 268.714 399.499 268.714C399.191 268.714 398.949 268.784 398.771 268.924C398.594 269.064 398.505 269.246 398.505 269.47C398.505 269.61 398.543 269.731 398.617 269.834C398.692 269.937 398.795 270.021 398.925 270.086C399.065 270.151 399.224 270.212 399.401 270.268L400.619 270.632C401.245 270.819 401.725 271.099 402.061 271.472C402.407 271.845 402.579 272.303 402.579 272.844C402.579 273.301 402.458 273.707 402.215 274.062C401.973 274.407 401.637 274.678 401.207 274.874C400.778 275.07 400.274 275.168 399.695 275.168Z" fill="#9A9A9A"/>
<g filter="url(#filter4_d_9_60)">
<rect x="99" y="306" width="100" height="36" rx="5" fill="white"/>
<rect x="99.25" y="306.25" width="99.5" height="35.5" rx="4.75" stroke="#D3D3D3" stroke-width="0.5"/>
</g>
<path d="M124.158 330.168C123.607 330.168 123.08 330.065 122.576 329.86C122.081 329.655 121.652 329.365 121.288 328.992C120.933 328.609 120.691 328.157 120.56 327.634L122.212 327.046C122.371 327.522 122.627 327.877 122.982 328.11C123.337 328.334 123.729 328.446 124.158 328.446C124.513 328.446 124.825 328.371 125.096 328.222C125.376 328.063 125.591 327.849 125.74 327.578C125.889 327.298 125.964 326.976 125.964 326.612C125.964 326.248 125.885 325.931 125.726 325.66C125.577 325.389 125.367 325.179 125.096 325.03C124.825 324.871 124.513 324.792 124.158 324.792C123.794 324.792 123.463 324.871 123.164 325.03C122.875 325.189 122.665 325.417 122.534 325.716L120.98 325.366L121.806 319.57H127.49V321.18H122.562L123.276 320.354L122.688 324.722L122.142 324.274C122.403 323.891 122.721 323.611 123.094 323.434C123.477 323.257 123.939 323.168 124.48 323.168C125.171 323.168 125.768 323.317 126.272 323.616C126.785 323.915 127.182 324.321 127.462 324.834C127.742 325.347 127.882 325.94 127.882 326.612C127.882 327.284 127.719 327.891 127.392 328.432C127.065 328.973 126.622 329.398 126.062 329.706C125.502 330.014 124.867 330.168 124.158 330.168ZM133.569 330.168C132.739 330.168 132.011 329.944 131.385 329.496C130.76 329.048 130.27 328.418 129.915 327.606C129.57 326.794 129.397 325.851 129.397 324.778C129.397 323.695 129.57 322.753 129.915 321.95C130.261 321.147 130.746 320.522 131.371 320.074C131.997 319.626 132.725 319.402 133.555 319.402C134.405 319.402 135.137 319.626 135.753 320.074C136.379 320.522 136.869 321.152 137.223 321.964C137.578 322.767 137.755 323.705 137.755 324.778C137.755 325.851 137.578 326.794 137.223 327.606C136.878 328.409 136.393 329.039 135.767 329.496C135.142 329.944 134.409 330.168 133.569 330.168ZM133.583 328.432C134.059 328.432 134.465 328.287 134.801 327.998C135.137 327.699 135.394 327.279 135.571 326.738C135.758 326.187 135.851 325.534 135.851 324.778C135.851 324.022 135.758 323.373 135.571 322.832C135.394 322.281 135.133 321.861 134.787 321.572C134.451 321.283 134.041 321.138 133.555 321.138C133.089 321.138 132.687 321.283 132.351 321.572C132.015 321.861 131.754 322.281 131.567 322.832C131.39 323.373 131.301 324.022 131.301 324.778C131.301 325.525 131.39 326.173 131.567 326.724C131.754 327.265 132.015 327.685 132.351 327.984C132.697 328.283 133.107 328.432 133.583 328.432ZM143.481 330.168C142.651 330.168 141.923 329.944 141.297 329.496C140.672 329.048 140.182 328.418 139.827 327.606C139.482 326.794 139.309 325.851 139.309 324.778C139.309 323.695 139.482 322.753 139.827 321.95C140.173 321.147 140.658 320.522 141.283 320.074C141.909 319.626 142.637 319.402 143.467 319.402C144.317 319.402 145.049 319.626 145.665 320.074C146.291 320.522 146.781 321.152 147.135 321.964C147.49 322.767 147.667 323.705 147.667 324.778C147.667 325.851 147.49 326.794 147.135 327.606C146.79 328.409 146.305 329.039 145.679 329.496C145.054 329.944 144.321 330.168 143.481 330.168ZM143.495 328.432C143.971 328.432 144.377 328.287 144.713 327.998C145.049 327.699 145.306 327.279 145.483 326.738C145.67 326.187 145.763 325.534 145.763 324.778C145.763 324.022 145.67 323.373 145.483 322.832C145.306 322.281 145.045 321.861 144.699 321.572C144.363 321.283 143.953 321.138 143.467 321.138C143.001 321.138 142.599 321.283 142.263 321.572C141.927 321.861 141.666 322.281 141.479 322.832C141.302 323.373 141.213 324.022 141.213 324.778C141.213 325.525 141.302 326.173 141.479 326.724C141.666 327.265 141.927 327.685 142.263 327.984C142.609 328.283 143.019 328.432 143.495 328.432ZM153.394 330.168C152.563 330.168 151.835 329.944 151.21 329.496C150.584 329.048 150.094 328.418 149.74 327.606C149.394 326.794 149.222 325.851 149.222 324.778C149.222 323.695 149.394 322.753 149.74 321.95C150.085 321.147 150.57 320.522 151.196 320.074C151.821 319.626 152.549 319.402 153.38 319.402C154.229 319.402 154.962 319.626 155.578 320.074C156.203 320.522 156.693 321.152 157.048 321.964C157.402 322.767 157.58 323.705 157.58 324.778C157.58 325.851 157.402 326.794 157.048 327.606C156.702 328.409 156.217 329.039 155.592 329.496C154.966 329.944 154.234 330.168 153.394 330.168ZM153.408 328.432C153.884 328.432 154.29 328.287 154.626 327.998C154.962 327.699 155.218 327.279 155.396 326.738C155.582 326.187 155.676 325.534 155.676 324.778C155.676 324.022 155.582 323.373 155.396 322.832C155.218 322.281 154.957 321.861 154.612 321.572C154.276 321.283 153.865 321.138 153.38 321.138C152.913 321.138 152.512 321.283 152.176 321.572C151.84 321.861 151.578 322.281 151.392 322.832C151.214 323.373 151.126 324.022 151.126 324.778C151.126 325.525 151.214 326.173 151.392 326.724C151.578 327.265 151.84 327.685 152.176 327.984C152.521 328.283 152.932 328.432 153.408 328.432ZM161.846 330V319.57H163.75V325.002L163.232 324.82L167.67 319.57H170.064L165.906 324.498L166.018 323.154L170.19 330H167.95L165.15 325.408L163.75 327.074V330H161.846ZM173.955 330.168C173.143 330.168 172.434 329.977 171.827 329.594C171.23 329.202 170.819 328.675 170.595 328.012L171.967 327.354C172.163 327.783 172.434 328.119 172.779 328.362C173.134 328.605 173.526 328.726 173.955 328.726C174.291 328.726 174.557 328.651 174.753 328.502C174.949 328.353 175.047 328.157 175.047 327.914C175.047 327.765 175.005 327.643 174.921 327.55C174.846 327.447 174.739 327.363 174.599 327.298C174.468 327.223 174.324 327.163 174.165 327.116L172.919 326.766C172.275 326.579 171.785 326.295 171.449 325.912C171.122 325.529 170.959 325.077 170.959 324.554C170.959 324.087 171.076 323.681 171.309 323.336C171.552 322.981 171.883 322.706 172.303 322.51C172.732 322.314 173.222 322.216 173.773 322.216C174.492 322.216 175.126 322.389 175.677 322.734C176.228 323.079 176.62 323.565 176.853 324.19L175.453 324.848C175.322 324.503 175.103 324.227 174.795 324.022C174.487 323.817 174.142 323.714 173.759 323.714C173.451 323.714 173.208 323.784 173.031 323.924C172.854 324.064 172.765 324.246 172.765 324.47C172.765 324.61 172.802 324.731 172.877 324.834C172.952 324.937 173.054 325.021 173.185 325.086C173.325 325.151 173.484 325.212 173.661 325.268L174.879 325.632C175.504 325.819 175.985 326.099 176.321 326.472C176.666 326.845 176.839 327.303 176.839 327.844C176.839 328.301 176.718 328.707 176.475 329.062C176.232 329.407 175.896 329.678 175.467 329.874C175.038 330.07 174.534 330.168 173.955 330.168Z" fill="#9A9A9A"/>
<g filter="url(#filter5_d_9_60)">
<rect x="212" y="306" width="100" height="36" rx="5" fill="white"/>
<rect x="212.25" y="306.25" width="99.5" height="35.5" rx="4.75" stroke="#D3D3D3" stroke-width="0.5"/>
</g>
<path d="M232.422 330V321.194H230.406V319.57H234.326V330H232.422ZM240.602 330.168C239.772 330.168 239.044 329.944 238.418 329.496C237.793 329.048 237.303 328.418 236.948 327.606C236.603 326.794 236.43 325.851 236.43 324.778C236.43 323.695 236.603 322.753 236.948 321.95C237.294 321.147 237.779 320.522 238.404 320.074C239.03 319.626 239.758 319.402 240.588 319.402C241.438 319.402 242.17 319.626 242.786 320.074C243.412 320.522 243.902 321.152 244.256 321.964C244.611 322.767 244.788 323.705 244.788 324.778C244.788 325.851 244.611 326.794 244.256 327.606C243.911 328.409 243.426 329.039 242.8 329.496C242.175 329.944 241.442 330.168 240.602 330.168ZM240.616 328.432C241.092 328.432 241.498 328.287 241.834 327.998C242.17 327.699 242.427 327.279 242.604 326.738C242.791 326.187 242.884 325.534 242.884 324.778C242.884 324.022 242.791 323.373 242.604 322.832C242.427 322.281 242.166 321.861 241.82 321.572C241.484 321.283 241.074 321.138 240.588 321.138C240.122 321.138 239.72 321.283 239.384 321.572C239.048 321.861 238.787 322.281 238.6 322.832C238.423 323.373 238.334 324.022 238.334 324.778C238.334 325.525 238.423 326.173 238.6 326.724C238.787 327.265 239.048 327.685 239.384 327.984C239.73 328.283 240.14 328.432 240.616 328.432ZM250.515 330.168C249.684 330.168 248.956 329.944 248.331 329.496C247.705 329.048 247.215 328.418 246.861 327.606C246.515 326.794 246.343 325.851 246.343 324.778C246.343 323.695 246.515 322.753 246.861 321.95C247.206 321.147 247.691 320.522 248.317 320.074C248.942 319.626 249.67 319.402 250.501 319.402C251.35 319.402 252.083 319.626 252.699 320.074C253.324 320.522 253.814 321.152 254.169 321.964C254.523 322.767 254.701 323.705 254.701 324.778C254.701 325.851 254.523 326.794 254.169 327.606C253.823 328.409 253.338 329.039 252.713 329.496C252.087 329.944 251.355 330.168 250.515 330.168ZM250.529 328.432C251.005 328.432 251.411 328.287 251.747 327.998C252.083 327.699 252.339 327.279 252.517 326.738C252.703 326.187 252.797 325.534 252.797 324.778C252.797 324.022 252.703 323.373 252.517 322.832C252.339 322.281 252.078 321.861 251.733 321.572C251.397 321.283 250.986 321.138 250.501 321.138C250.034 321.138 249.633 321.283 249.297 321.572C248.961 321.861 248.699 322.281 248.513 322.832C248.335 323.373 248.247 324.022 248.247 324.778C248.247 325.525 248.335 326.173 248.513 326.724C248.699 327.265 248.961 327.685 249.297 327.984C249.642 328.283 250.053 328.432 250.529 328.432ZM260.427 330.168C259.596 330.168 258.868 329.944 258.243 329.496C257.617 329.048 257.127 328.418 256.773 327.606C256.427 326.794 256.255 325.851 256.255 324.778C256.255 323.695 256.427 322.753 256.773 321.95C257.118 321.147 257.603 320.522 258.229 320.074C258.854 319.626 259.582 319.402 260.413 319.402C261.262 319.402 261.995 319.626 262.611 320.074C263.236 320.522 263.726 321.152 264.081 321.964C264.435 322.767 264.613 323.705 264.613 324.778C264.613 325.851 264.435 326.794 264.081 327.606C263.735 328.409 263.25 329.039 262.625 329.496C261.999 329.944 261.267 330.168 260.427 330.168ZM260.441 328.432C260.917 328.432 261.323 328.287 261.659 327.998C261.995 327.699 262.251 327.279 262.429 326.738C262.615 326.187 262.709 325.534 262.709 324.778C262.709 324.022 262.615 323.373 262.429 322.832C262.251 322.281 261.99 321.861 261.645 321.572C261.309 321.283 260.898 321.138 260.413 321.138C259.946 321.138 259.545 321.283 259.209 321.572C258.873 321.861 258.611 322.281 258.425 322.832C258.247 323.373 258.159 324.022 258.159 324.778C258.159 325.525 258.247 326.173 258.425 326.724C258.611 327.265 258.873 327.685 259.209 327.984C259.554 328.283 259.965 328.432 260.441 328.432ZM270.339 330.168C269.508 330.168 268.78 329.944 268.155 329.496C267.529 329.048 267.039 328.418 266.685 327.606C266.339 326.794 266.167 325.851 266.167 324.778C266.167 323.695 266.339 322.753 266.685 321.95C267.03 321.147 267.515 320.522 268.141 320.074C268.766 319.626 269.494 319.402 270.325 319.402C271.174 319.402 271.907 319.626 272.523 320.074C273.148 320.522 273.638 321.152 273.993 321.964C274.347 322.767 274.525 323.705 274.525 324.778C274.525 325.851 274.347 326.794 273.993 327.606C273.647 328.409 273.162 329.039 272.537 329.496C271.911 329.944 271.179 330.168 270.339 330.168ZM270.353 328.432C270.829 328.432 271.235 328.287 271.571 327.998C271.907 327.699 272.163 327.279 272.341 326.738C272.527 326.187 272.621 325.534 272.621 324.778C272.621 324.022 272.527 323.373 272.341 322.832C272.163 322.281 271.902 321.861 271.557 321.572C271.221 321.283 270.81 321.138 270.325 321.138C269.858 321.138 269.457 321.283 269.121 321.572C268.785 321.861 268.523 322.281 268.337 322.832C268.159 323.373 268.071 324.022 268.071 324.778C268.071 325.525 268.159 326.173 268.337 326.724C268.523 327.265 268.785 327.685 269.121 327.984C269.466 328.283 269.877 328.432 270.353 328.432ZM278.791 330V319.57H280.695V325.002L280.177 324.82L284.615 319.57H287.009L282.851 324.498L282.963 323.154L287.135 330H284.895L282.095 325.408L280.695 327.074V330H278.791ZM290.9 330.168C290.088 330.168 289.379 329.977 288.772 329.594C288.175 329.202 287.764 328.675 287.54 328.012L288.912 327.354C289.108 327.783 289.379 328.119 289.724 328.362C290.079 328.605 290.471 328.726 290.9 328.726C291.236 328.726 291.502 328.651 291.698 328.502C291.894 328.353 291.992 328.157 291.992 327.914C291.992 327.765 291.95 327.643 291.866 327.55C291.792 327.447 291.684 327.363 291.544 327.298C291.414 327.223 291.269 327.163 291.11 327.116L289.864 326.766C289.22 326.579 288.73 326.295 288.394 325.912C288.068 325.529 287.904 325.077 287.904 324.554C287.904 324.087 288.021 323.681 288.254 323.336C288.497 322.981 288.828 322.706 289.248 322.51C289.678 322.314 290.168 322.216 290.718 322.216C291.437 322.216 292.072 322.389 292.622 322.734C293.173 323.079 293.565 323.565 293.798 324.19L292.398 324.848C292.268 324.503 292.048 324.227 291.74 324.022C291.432 323.817 291.087 323.714 290.704 323.714C290.396 323.714 290.154 323.784 289.976 323.924C289.799 324.064 289.71 324.246 289.71 324.47C289.71 324.61 289.748 324.731 289.822 324.834C289.897 324.937 290 325.021 290.13 325.086C290.27 325.151 290.429 325.212 290.606 325.268L291.824 325.632C292.45 325.819 292.93 326.099 293.266 326.472C293.612 326.845 293.784 327.303 293.784 327.844C293.784 328.301 293.663 328.707 293.42 329.062C293.178 329.407 292.842 329.678 292.412 329.874C291.983 330.07 291.479 330.168 290.9 330.168Z" fill="#9A9A9A"/>
<g filter="url(#filter6_d_9_60)">
<rect x="325" y="306" width="100" height="36" rx="5" fill="white"/>
<rect x="325.25" y="306.25" width="99.5" height="35.5" rx="4.75" stroke="#D3D3D3" stroke-width="0.5"/>
</g>
<path d="M345.158 330.168C344.607 330.168 344.08 330.065 343.576 329.86C343.081 329.655 342.652 329.365 342.288 328.992C341.933 328.609 341.691 328.157 341.56 327.634L343.212 327.046C343.371 327.522 343.627 327.877 343.982 328.11C344.337 328.334 344.729 328.446 345.158 328.446C345.513 328.446 345.825 328.371 346.096 328.222C346.376 328.063 346.591 327.849 346.74 327.578C346.889 327.298 346.964 326.976 346.964 326.612C346.964 326.248 346.885 325.931 346.726 325.66C346.577 325.389 346.367 325.179 346.096 325.03C345.825 324.871 345.513 324.792 345.158 324.792C344.794 324.792 344.463 324.871 344.164 325.03C343.875 325.189 343.665 325.417 343.534 325.716L341.98 325.366L342.806 319.57H348.49V321.18H343.562L344.276 320.354L343.688 324.722L343.142 324.274C343.403 323.891 343.721 323.611 344.094 323.434C344.477 323.257 344.939 323.168 345.48 323.168C346.171 323.168 346.768 323.317 347.272 323.616C347.785 323.915 348.182 324.321 348.462 324.834C348.742 325.347 348.882 325.94 348.882 326.612C348.882 327.284 348.719 327.891 348.392 328.432C348.065 328.973 347.622 329.398 347.062 329.706C346.502 330.014 345.867 330.168 345.158 330.168ZM354.569 330.168C353.739 330.168 353.011 329.944 352.385 329.496C351.76 329.048 351.27 328.418 350.915 327.606C350.57 326.794 350.397 325.851 350.397 324.778C350.397 323.695 350.57 322.753 350.915 321.95C351.261 321.147 351.746 320.522 352.371 320.074C352.997 319.626 353.725 319.402 354.555 319.402C355.405 319.402 356.137 319.626 356.753 320.074C357.379 320.522 357.869 321.152 358.223 321.964C358.578 322.767 358.755 323.705 358.755 324.778C358.755 325.851 358.578 326.794 358.223 327.606C357.878 328.409 357.393 329.039 356.767 329.496C356.142 329.944 355.409 330.168 354.569 330.168ZM354.583 328.432C355.059 328.432 355.465 328.287 355.801 327.998C356.137 327.699 356.394 327.279 356.571 326.738C356.758 326.187 356.851 325.534 356.851 324.778C356.851 324.022 356.758 323.373 356.571 322.832C356.394 322.281 356.133 321.861 355.787 321.572C355.451 321.283 355.041 321.138 354.555 321.138C354.089 321.138 353.687 321.283 353.351 321.572C353.015 321.861 352.754 322.281 352.567 322.832C352.39 323.373 352.301 324.022 352.301 324.778C352.301 325.525 352.39 326.173 352.567 326.724C352.754 327.265 353.015 327.685 353.351 327.984C353.697 328.283 354.107 328.432 354.583 328.432ZM364.481 330.168C363.651 330.168 362.923 329.944 362.297 329.496C361.672 329.048 361.182 328.418 360.827 327.606C360.482 326.794 360.309 325.851 360.309 324.778C360.309 323.695 360.482 322.753 360.827 321.95C361.173 321.147 361.658 320.522 362.283 320.074C362.909 319.626 363.637 319.402 364.467 319.402C365.317 319.402 366.049 319.626 366.665 320.074C367.291 320.522 367.781 321.152 368.135 321.964C368.49 322.767 368.667 323.705 368.667 324.778C368.667 325.851 368.49 326.794 368.135 327.606C367.79 328.409 367.305 329.039 366.679 329.496C366.054 329.944 365.321 330.168 364.481 330.168ZM364.495 328.432C364.971 328.432 365.377 328.287 365.713 327.998C366.049 327.699 366.306 327.279 366.483 326.738C366.67 326.187 366.763 325.534 366.763 324.778C366.763 324.022 366.67 323.373 366.483 322.832C366.306 322.281 366.045 321.861 365.699 321.572C365.363 321.283 364.953 321.138 364.467 321.138C364.001 321.138 363.599 321.283 363.263 321.572C362.927 321.861 362.666 322.281 362.479 322.832C362.302 323.373 362.213 324.022 362.213 324.778C362.213 325.525 362.302 326.173 362.479 326.724C362.666 327.265 362.927 327.685 363.263 327.984C363.609 328.283 364.019 328.432 364.495 328.432ZM374.394 330.168C373.563 330.168 372.835 329.944 372.21 329.496C371.584 329.048 371.094 328.418 370.74 327.606C370.394 326.794 370.222 325.851 370.222 324.778C370.222 323.695 370.394 322.753 370.74 321.95C371.085 321.147 371.57 320.522 372.196 320.074C372.821 319.626 373.549 319.402 374.38 319.402C375.229 319.402 375.962 319.626 376.578 320.074C377.203 320.522 377.693 321.152 378.048 321.964C378.402 322.767 378.58 323.705 378.58 324.778C378.58 325.851 378.402 326.794 378.048 327.606C377.702 328.409 377.217 329.039 376.592 329.496C375.966 329.944 375.234 330.168 374.394 330.168ZM374.408 328.432C374.884 328.432 375.29 328.287 375.626 327.998C375.962 327.699 376.218 327.279 376.396 326.738C376.582 326.187 376.676 325.534 376.676 324.778C376.676 324.022 376.582 323.373 376.396 322.832C376.218 322.281 375.957 321.861 375.612 321.572C375.276 321.283 374.865 321.138 374.38 321.138C373.913 321.138 373.512 321.283 373.176 321.572C372.84 321.861 372.578 322.281 372.392 322.832C372.214 323.373 372.126 324.022 372.126 324.778C372.126 325.525 372.214 326.173 372.392 326.724C372.578 327.265 372.84 327.685 373.176 327.984C373.521 328.283 373.932 328.432 374.408 328.432ZM384.306 330.168C383.475 330.168 382.747 329.944 382.122 329.496C381.496 329.048 381.006 328.418 380.652 327.606C380.306 326.794 380.134 325.851 380.134 324.778C380.134 323.695 380.306 322.753 380.652 321.95C380.997 321.147 381.482 320.522 382.108 320.074C382.733 319.626 383.461 319.402 384.292 319.402C385.141 319.402 385.874 319.626 386.49 320.074C387.115 320.522 387.605 321.152 387.96 321.964C388.314 322.767 388.492 323.705 388.492 324.778C388.492 325.851 388.314 326.794 387.96 327.606C387.614 328.409 387.129 329.039 386.504 329.496C385.878 329.944 385.146 330.168 384.306 330.168ZM384.32 328.432C384.796 328.432 385.202 328.287 385.538 327.998C385.874 327.699 386.13 327.279 386.308 326.738C386.494 326.187 386.588 325.534 386.588 324.778C386.588 324.022 386.494 323.373 386.308 322.832C386.13 322.281 385.869 321.861 385.524 321.572C385.188 321.283 384.777 321.138 384.292 321.138C383.825 321.138 383.424 321.283 383.088 321.572C382.752 321.861 382.49 322.281 382.304 322.832C382.126 323.373 382.038 324.022 382.038 324.778C382.038 325.525 382.126 326.173 382.304 326.724C382.49 327.265 382.752 327.685 383.088 327.984C383.433 328.283 383.844 328.432 384.32 328.432ZM392.758 330V319.57H394.662V325.002L394.144 324.82L398.582 319.57H400.976L396.818 324.498L396.93 323.154L401.102 330H398.862L396.062 325.408L394.662 327.074V330H392.758ZM404.867 330.168C404.055 330.168 403.346 329.977 402.739 329.594C402.142 329.202 401.731 328.675 401.507 328.012L402.879 327.354C403.075 327.783 403.346 328.119 403.691 328.362C404.046 328.605 404.438 328.726 404.867 328.726C405.203 328.726 405.469 328.651 405.665 328.502C405.861 328.353 405.959 328.157 405.959 327.914C405.959 327.765 405.917 327.643 405.833 327.55C405.759 327.447 405.651 327.363 405.511 327.298C405.381 327.223 405.236 327.163 405.077 327.116L403.831 326.766C403.187 326.579 402.697 326.295 402.361 325.912C402.035 325.529 401.871 325.077 401.871 324.554C401.871 324.087 401.988 323.681 402.221 323.336C402.464 322.981 402.795 322.706 403.215 322.51C403.645 322.314 404.135 322.216 404.685 322.216C405.404 322.216 406.039 322.389 406.589 322.734C407.14 323.079 407.532 323.565 407.765 324.19L406.365 324.848C406.235 324.503 406.015 324.227 405.707 324.022C405.399 323.817 405.054 323.714 404.671 323.714C404.363 323.714 404.121 323.784 403.943 323.924C403.766 324.064 403.677 324.246 403.677 324.47C403.677 324.61 403.715 324.731 403.789 324.834C403.864 324.937 403.967 325.021 404.097 325.086C404.237 325.151 404.396 325.212 404.573 325.268L405.791 325.632C406.417 325.819 406.897 326.099 407.233 326.472C407.579 326.845 407.751 327.303 407.751 327.844C407.751 328.301 407.63 328.707 407.387 329.062C407.145 329.407 406.809 329.678 406.379 329.874C405.95 330.07 405.446 330.168 404.867 330.168Z" fill="#9A9A9A"/>
<rect x="99.5" y="377.5" width="325" height="45" rx="4.5" stroke="#1A8FE3" stroke-opacity="0.5"/>
<path d="M122.908 406.168C122.161 406.168 121.471 406.033 120.836 405.762C120.211 405.491 119.66 405.113 119.184 404.628C118.717 404.143 118.353 403.573 118.092 402.92C117.831 402.267 117.7 401.553 117.7 400.778C117.7 400.003 117.826 399.289 118.078 398.636C118.339 397.973 118.703 397.404 119.17 396.928C119.646 396.443 120.201 396.069 120.836 395.808C121.471 395.537 122.161 395.402 122.908 395.402C123.655 395.402 124.322 395.528 124.91 395.78C125.507 396.032 126.011 396.368 126.422 396.788C126.833 397.199 127.127 397.651 127.304 398.146L125.596 398.944C125.4 398.421 125.069 397.992 124.602 397.656C124.135 397.311 123.571 397.138 122.908 397.138C122.255 397.138 121.676 397.292 121.172 397.6C120.677 397.908 120.29 398.333 120.01 398.874C119.739 399.415 119.604 400.05 119.604 400.778C119.604 401.506 119.739 402.145 120.01 402.696C120.29 403.237 120.677 403.662 121.172 403.97C121.676 404.278 122.255 404.432 122.908 404.432C123.571 404.432 124.135 404.264 124.602 403.928C125.069 403.583 125.4 403.149 125.596 402.626L127.304 403.424C127.127 403.919 126.833 404.376 126.422 404.796C126.011 405.207 125.507 405.538 124.91 405.79C124.322 406.042 123.655 406.168 122.908 406.168ZM131.412 406.168C130.824 406.168 130.31 406.037 129.872 405.776C129.442 405.515 129.111 405.151 128.878 404.684C128.654 404.217 128.542 403.671 128.542 403.046V398.384H130.376V402.892C130.376 403.209 130.436 403.489 130.558 403.732C130.688 403.965 130.87 404.152 131.104 404.292C131.346 404.423 131.617 404.488 131.916 404.488C132.214 404.488 132.48 404.423 132.714 404.292C132.947 404.152 133.129 403.961 133.26 403.718C133.39 403.475 133.456 403.186 133.456 402.85V398.384H135.29V406H133.554V404.502L133.708 404.768C133.53 405.235 133.236 405.585 132.826 405.818C132.424 406.051 131.953 406.168 131.412 406.168ZM139.893 406.168C139.081 406.168 138.371 405.977 137.765 405.594C137.167 405.202 136.757 404.675 136.533 404.012L137.905 403.354C138.101 403.783 138.371 404.119 138.717 404.362C139.071 404.605 139.463 404.726 139.893 404.726C140.229 404.726 140.495 404.651 140.691 404.502C140.887 404.353 140.985 404.157 140.985 403.914C140.985 403.765 140.943 403.643 140.859 403.55C140.784 403.447 140.677 403.363 140.537 403.298C140.406 403.223 140.261 403.163 140.103 403.116L138.857 402.766C138.213 402.579 137.723 402.295 137.387 401.912C137.06 401.529 136.897 401.077 136.897 400.554C136.897 400.087 137.013 399.681 137.247 399.336C137.489 398.981 137.821 398.706 138.241 398.51C138.67 398.314 139.16 398.216 139.711 398.216C140.429 398.216 141.064 398.389 141.615 398.734C142.165 399.079 142.557 399.565 142.791 400.19L141.391 400.848C141.26 400.503 141.041 400.227 140.733 400.022C140.425 399.817 140.079 399.714 139.697 399.714C139.389 399.714 139.146 399.784 138.969 399.924C138.791 400.064 138.703 400.246 138.703 400.47C138.703 400.61 138.74 400.731 138.815 400.834C138.889 400.937 138.992 401.021 139.123 401.086C139.263 401.151 139.421 401.212 139.599 401.268L140.817 401.632C141.442 401.819 141.923 402.099 142.259 402.472C142.604 402.845 142.777 403.303 142.777 403.844C142.777 404.301 142.655 404.707 142.413 405.062C142.17 405.407 141.834 405.678 141.405 405.874C140.975 406.07 140.471 406.168 139.893 406.168ZM147.658 406.084C146.799 406.084 146.132 405.851 145.656 405.384C145.189 404.908 144.956 404.241 144.956 403.382V400.022H143.64V398.384H143.78C144.153 398.384 144.443 398.286 144.648 398.09C144.853 397.894 144.956 397.609 144.956 397.236V396.648H146.79V398.384H148.54V400.022H146.79V403.284C146.79 403.536 146.832 403.751 146.916 403.928C147.009 404.105 147.149 404.241 147.336 404.334C147.532 404.427 147.779 404.474 148.078 404.474C148.143 404.474 148.218 404.469 148.302 404.46C148.395 404.451 148.484 404.441 148.568 404.432V406C148.437 406.019 148.288 406.037 148.12 406.056C147.952 406.075 147.798 406.084 147.658 406.084ZM153.625 406.168C152.878 406.168 152.197 405.995 151.581 405.65C150.974 405.305 150.489 404.833 150.125 404.236C149.77 403.639 149.593 402.957 149.593 402.192C149.593 401.427 149.77 400.745 150.125 400.148C150.489 399.551 150.974 399.079 151.581 398.734C152.188 398.389 152.869 398.216 153.625 398.216C154.372 398.216 155.048 398.389 155.655 398.734C156.262 399.079 156.742 399.551 157.097 400.148C157.461 400.736 157.643 401.417 157.643 402.192C157.643 402.957 157.461 403.639 157.097 404.236C156.733 404.833 156.248 405.305 155.641 405.65C155.034 405.995 154.362 406.168 153.625 406.168ZM153.625 404.488C154.036 404.488 154.395 404.39 154.703 404.194C155.02 403.998 155.268 403.727 155.445 403.382C155.632 403.027 155.725 402.631 155.725 402.192C155.725 401.744 155.632 401.352 155.445 401.016C155.268 400.671 155.02 400.4 154.703 400.204C154.395 399.999 154.036 399.896 153.625 399.896C153.205 399.896 152.836 399.999 152.519 400.204C152.202 400.4 151.95 400.671 151.763 401.016C151.586 401.352 151.497 401.744 151.497 402.192C151.497 402.631 151.586 403.027 151.763 403.382C151.95 403.727 152.202 403.998 152.519 404.194C152.836 404.39 153.205 404.488 153.625 404.488ZM159.034 406V398.384H160.756V400.148L160.56 399.854C160.7 399.303 160.98 398.893 161.4 398.622C161.82 398.351 162.314 398.216 162.884 398.216C163.509 398.216 164.06 398.379 164.536 398.706C165.012 399.033 165.32 399.462 165.46 399.994L164.942 400.036C165.175 399.429 165.525 398.977 165.992 398.678C166.458 398.37 166.995 398.216 167.602 398.216C168.143 398.216 168.624 398.337 169.044 398.58C169.473 398.823 169.809 399.163 170.052 399.602C170.294 400.031 170.416 400.531 170.416 401.1V406H168.582V401.534C168.582 401.198 168.521 400.909 168.4 400.666C168.278 400.423 168.11 400.237 167.896 400.106C167.681 399.966 167.42 399.896 167.112 399.896C166.822 399.896 166.566 399.966 166.342 400.106C166.118 400.237 165.945 400.423 165.824 400.666C165.702 400.909 165.642 401.198 165.642 401.534V406H163.808V401.534C163.808 401.198 163.747 400.909 163.626 400.666C163.504 400.423 163.332 400.237 163.108 400.106C162.893 399.966 162.636 399.896 162.338 399.896C162.048 399.896 161.792 399.966 161.568 400.106C161.344 400.237 161.171 400.423 161.05 400.666C160.928 400.909 160.868 401.198 160.868 401.534V406H159.034ZM173.756 406L177.354 395.57H179.818L183.416 406H181.344L180.602 403.76H176.57L175.814 406H173.756ZM177.116 402.08H180.056L178.32 396.886H178.852L177.116 402.08ZM184.422 406V398.384H186.144V400.148L185.948 399.854C186.088 399.303 186.368 398.893 186.788 398.622C187.208 398.351 187.703 398.216 188.272 398.216C188.898 398.216 189.448 398.379 189.924 398.706C190.4 399.033 190.708 399.462 190.848 399.994L190.33 400.036C190.564 399.429 190.914 398.977 191.38 398.678C191.847 398.37 192.384 398.216 192.99 398.216C193.532 398.216 194.012 398.337 194.432 398.58C194.862 398.823 195.198 399.163 195.44 399.602C195.683 400.031 195.804 400.531 195.804 401.1V406H193.97V401.534C193.97 401.198 193.91 400.909 193.788 400.666C193.667 400.423 193.499 400.237 193.284 400.106C193.07 399.966 192.808 399.896 192.5 399.896C192.211 399.896 191.954 399.966 191.73 400.106C191.506 400.237 191.334 400.423 191.212 400.666C191.091 400.909 191.03 401.198 191.03 401.534V406H189.196V401.534C189.196 401.198 189.136 400.909 189.014 400.666C188.893 400.423 188.72 400.237 188.496 400.106C188.282 399.966 188.025 399.896 187.726 399.896C187.437 399.896 187.18 399.966 186.956 400.106C186.732 400.237 186.56 400.423 186.438 400.666C186.317 400.909 186.256 401.198 186.256 401.534V406H184.422ZM201.08 406.168C200.333 406.168 199.652 405.995 199.036 405.65C198.429 405.305 197.944 404.833 197.58 404.236C197.225 403.639 197.048 402.957 197.048 402.192C197.048 401.427 197.225 400.745 197.58 400.148C197.944 399.551 198.429 399.079 199.036 398.734C199.643 398.389 200.324 398.216 201.08 398.216C201.827 398.216 202.503 398.389 203.11 398.734C203.717 399.079 204.197 399.551 204.552 400.148C204.916 400.736 205.098 401.417 205.098 402.192C205.098 402.957 204.916 403.639 204.552 404.236C204.188 404.833 203.703 405.305 203.096 405.65C202.489 405.995 201.817 406.168 201.08 406.168ZM201.08 404.488C201.491 404.488 201.85 404.39 202.158 404.194C202.475 403.998 202.723 403.727 202.9 403.382C203.087 403.027 203.18 402.631 203.18 402.192C203.18 401.744 203.087 401.352 202.9 401.016C202.723 400.671 202.475 400.4 202.158 400.204C201.85 399.999 201.491 399.896 201.08 399.896C200.66 399.896 200.291 399.999 199.974 400.204C199.657 400.4 199.405 400.671 199.218 401.016C199.041 401.352 198.952 401.744 198.952 402.192C198.952 402.631 199.041 403.027 199.218 403.382C199.405 403.727 199.657 403.998 199.974 404.194C200.291 404.39 200.66 404.488 201.08 404.488ZM209.205 406.168C208.617 406.168 208.103 406.037 207.665 405.776C207.235 405.515 206.904 405.151 206.671 404.684C206.447 404.217 206.335 403.671 206.335 403.046V398.384H208.169V402.892C208.169 403.209 208.229 403.489 208.351 403.732C208.481 403.965 208.663 404.152 208.897 404.292C209.139 404.423 209.41 404.488 209.709 404.488C210.007 404.488 210.273 404.423 210.507 404.292C210.74 404.152 210.922 403.961 211.053 403.718C211.183 403.475 211.249 403.186 211.249 402.85V398.384H213.083V406H211.347V404.502L211.501 404.768C211.323 405.235 211.029 405.585 210.619 405.818C210.217 406.051 209.746 406.168 209.205 406.168ZM214.788 406V398.384H216.51V399.882L216.37 399.616C216.547 399.159 216.836 398.813 217.238 398.58C217.648 398.337 218.124 398.216 218.666 398.216C219.226 398.216 219.72 398.337 220.15 398.58C220.588 398.823 220.929 399.163 221.172 399.602C221.414 400.031 221.536 400.531 221.536 401.1V406H219.702V401.534C219.702 401.198 219.636 400.909 219.506 400.666C219.375 400.423 219.193 400.237 218.96 400.106C218.736 399.966 218.47 399.896 218.162 399.896C217.863 399.896 217.597 399.966 217.364 400.106C217.13 400.237 216.948 400.423 216.818 400.666C216.687 400.909 216.622 401.198 216.622 401.534V406H214.788ZM226.558 406.084C225.7 406.084 225.032 405.851 224.556 405.384C224.09 404.908 223.856 404.241 223.856 403.382V400.022H222.54V398.384H222.68C223.054 398.384 223.343 398.286 223.548 398.09C223.754 397.894 223.856 397.609 223.856 397.236V396.648H225.69V398.384H227.44V400.022H225.69V403.284C225.69 403.536 225.732 403.751 225.816 403.928C225.91 404.105 226.05 404.241 226.236 404.334C226.432 404.427 226.68 404.474 226.978 404.474C227.044 404.474 227.118 404.469 227.202 404.46C227.296 404.451 227.384 404.441 227.468 404.432V406C227.338 406.019 227.188 406.037 227.02 406.056C226.852 406.075 226.698 406.084 226.558 406.084Z" fill="#1A8FE3" fill-opacity="0.5"/>
<rect x="138" y="459" width="250" height="44" rx="10" fill="#1A8FE3"/>
<path d="M215.008 487V476.57H218.41C219.511 476.57 220.468 476.794 221.28 477.242C222.101 477.681 222.736 478.292 223.184 479.076C223.632 479.851 223.856 480.751 223.856 481.778C223.856 482.795 223.632 483.701 223.184 484.494C222.736 485.278 222.101 485.894 221.28 486.342C220.468 486.781 219.511 487 218.41 487H215.008ZM216.912 485.32H218.452C219.161 485.32 219.773 485.175 220.286 484.886C220.809 484.587 221.215 484.177 221.504 483.654C221.793 483.122 221.938 482.497 221.938 481.778C221.938 481.05 221.793 480.425 221.504 479.902C221.215 479.379 220.809 478.973 220.286 478.684C219.773 478.395 219.161 478.25 218.452 478.25H216.912V485.32ZM230.509 487.168C229.744 487.168 229.03 487.033 228.367 486.762C227.705 486.491 227.126 486.113 226.631 485.628C226.137 485.143 225.749 484.573 225.469 483.92C225.199 483.257 225.063 482.543 225.063 481.778C225.063 481.003 225.199 480.289 225.469 479.636C225.74 478.983 226.123 478.413 226.617 477.928C227.112 477.443 227.691 477.069 228.353 476.808C229.016 476.537 229.735 476.402 230.509 476.402C231.284 476.402 232.003 476.537 232.665 476.808C233.328 477.079 233.907 477.457 234.401 477.942C234.896 478.418 235.279 478.983 235.549 479.636C235.829 480.289 235.969 481.003 235.969 481.778C235.969 482.543 235.829 483.257 235.549 483.92C235.269 484.573 234.882 485.143 234.387 485.628C233.893 486.113 233.314 486.491 232.651 486.762C231.998 487.033 231.284 487.168 230.509 487.168ZM230.509 485.432C231.023 485.432 231.494 485.343 231.923 485.166C232.353 484.979 232.726 484.723 233.043 484.396C233.37 484.069 233.617 483.682 233.785 483.234C233.963 482.786 234.051 482.301 234.051 481.778C234.051 481.255 233.963 480.775 233.785 480.336C233.617 479.888 233.37 479.501 233.043 479.174C232.726 478.838 232.353 478.581 231.923 478.404C231.494 478.227 231.023 478.138 230.509 478.138C230.005 478.138 229.539 478.227 229.109 478.404C228.68 478.581 228.302 478.838 227.975 479.174C227.658 479.501 227.411 479.888 227.233 480.336C227.056 480.775 226.967 481.255 226.967 481.778C226.967 482.301 227.056 482.786 227.233 483.234C227.411 483.682 227.658 484.069 227.975 484.396C228.302 484.723 228.68 484.979 229.109 485.166C229.539 485.343 230.005 485.432 230.509 485.432ZM237.662 487V476.57H239.146L244.886 484.298L244.116 484.452V476.57H246.02V487H244.522L238.866 479.216L239.566 479.062V487H237.662ZM247.185 487L250.783 476.57H253.247L256.845 487H254.773L254.031 484.76H249.999L249.243 487H247.185ZM250.545 483.08H253.485L251.749 477.886H252.281L250.545 483.08ZM259.157 487V478.25H256.455V476.57H263.735V478.25H261.075V487H259.157ZM264.897 487V476.57H271.827V478.25H266.801V480.924H271.547V482.604H266.801V485.32H271.827V487H264.897ZM275.711 487V476.57H277.195L282.935 484.298L282.165 484.452V476.57H284.069V487H282.571L276.915 479.216L277.615 479.062V487H275.711ZM291.226 487.168C290.461 487.168 289.747 487.033 289.084 486.762C288.421 486.491 287.843 486.113 287.348 485.628C286.853 485.143 286.466 484.573 286.186 483.92C285.915 483.257 285.78 482.543 285.78 481.778C285.78 481.003 285.915 480.289 286.186 479.636C286.457 478.983 286.839 478.413 287.334 477.928C287.829 477.443 288.407 477.069 289.07 476.808C289.733 476.537 290.451 476.402 291.226 476.402C292.001 476.402 292.719 476.537 293.382 476.808C294.045 477.079 294.623 477.457 295.118 477.942C295.613 478.418 295.995 478.983 296.266 479.636C296.546 480.289 296.686 481.003 296.686 481.778C296.686 482.543 296.546 483.257 296.266 483.92C295.986 484.573 295.599 485.143 295.104 485.628C294.609 486.113 294.031 486.491 293.368 486.762C292.715 487.033 292.001 487.168 291.226 487.168ZM291.226 485.432C291.739 485.432 292.211 485.343 292.64 485.166C293.069 484.979 293.443 484.723 293.76 484.396C294.087 484.069 294.334 483.682 294.502 483.234C294.679 482.786 294.768 482.301 294.768 481.778C294.768 481.255 294.679 480.775 294.502 480.336C294.334 479.888 294.087 479.501 293.76 479.174C293.443 478.838 293.069 478.581 292.64 478.404C292.211 478.227 291.739 478.138 291.226 478.138C290.722 478.138 290.255 478.227 289.826 478.404C289.397 478.581 289.019 478.838 288.692 479.174C288.375 479.501 288.127 479.888 287.95 480.336C287.773 480.775 287.684 481.255 287.684 481.778C287.684 482.301 287.773 482.786 287.95 483.234C288.127 483.682 288.375 484.069 288.692 484.396C289.019 484.723 289.397 484.979 289.826 485.166C290.255 485.343 290.722 485.432 291.226 485.432ZM300.052 487L297.252 476.57H299.296L301.494 485.46H300.962L303.258 476.57H305.232L307.514 485.46H306.982L309.18 476.57H311.224L308.424 487H306.24L303.93 478.348H304.546L302.236 487H300.052Z" fill="white"/>
<defs>
<filter id="filter0_d_9_60" x="0" y="0" width="522" height="604" filterUnits="userSpaceOnUse" color-interpolation-filters="sRGB">
<feFlood flood-opacity="0" result="BackgroundImageFix"/>
<feColorMatrix in="SourceAlpha" type="matrix" values="0 0 0 0 0 0 0 0 0 0 0 0 0 0 0 0 0 0 127 0" result="hardAlpha"/>
<feOffset dx="2" dy="2"/>
<feGaussianBlur stdDeviation="32.5"/>
<feComposite in2="hardAlpha" operator="out"/>
<feColorMatrix type="matrix" values="0 0 0 0 0 0 0 0 0 0 0 0 0 0 0 0 0 0 0.16 0"/>
<feBlend mode="normal" in2="BackgroundImageFix" result="effect1_dropShadow_9_60"/>
<feBlend mode="normal" in="SourceGraphic" in2="effect1_dropShadow_9_60" result="shape"/>
</filter>
<filter id="filter1_d_9_60" x="41" y="193" width="220" height="156" filterUnits="userSpaceOnUse" color-interpolation-filters="sRGB">
<feFlood flood-opacity="0" result="BackgroundImageFix"/>
<feColorMatrix in="SourceAlpha" type="matrix" values="0 0 0 0 0 0 0 0 0 0 0 0 0 0 0 0 0 0 127 0" result="hardAlpha"/>
<feOffset dx="2" dy="2"/>
<feGaussianBlur stdDeviation="30"/>
<feComposite in2="hardAlpha" operator="out"/>
<feColorMatrix type="matrix" values="0 0 0 0 0 0 0 0 0 0 0 0 0 0 0 0 0 0 0.18 0"/>
<feBlend mode="normal" in2="BackgroundImageFix" result="effect1_dropShadow_9_60"/>
<feBlend mode="normal" in="SourceGraphic" in2="effect1_dropShadow_9_60" result="shape"/>
</filter>
<filter id="filter2_d_9_60" x="154" y="193" width="220" height="156" filterUnits="userSpaceOnUse" color-interpolation-filters="sRGB">
<feFlood flood-opacity="0" result="BackgroundImageFix"/>
<feColorMatrix in="SourceAlpha" type="matrix" values="0 0 0 0 0 0 0 0 0 0 0 0 0 0 0 0 0 0 127 0" result="hardAlpha"/>
<feOffset dx="2" dy="2"/>
<feGaussianBlur stdDeviation="30"/>
<feComposite in2="hardAlpha" operator="out"/>
<feColorMatrix type="matrix" values="0 0 0 0 0 0 0 0 0 0 0 0 0 0 0 0 0 0 0.15 0"/>
<feBlend mode="normal" in2="BackgroundImageFix" result="effect1_dropShadow_9_60"/>
<feBlend mode="normal" in="SourceGraphic" in2="effect1_dropShadow_9_60" result="shape"/>
</filter>
<filter id="filter3_d_9_60" x="267" y="193" width="220" height="156" filterUnits="userSpaceOnUse" color-interpolation-filters="sRGB">
<feFlood flood-opacity="0" result="BackgroundImageFix"/>
<feColorMatrix in="SourceAlpha" type="matrix" values="0 0 0 0 0 0 0 0 0 0 0 0 0 0 0 0 0 0 127 0" result="hardAlpha"/>
<feOffset dx="2" dy="2"/>
<feGaussianBlur stdDeviation="30"/>
<feComposite in2="hardAlpha" operator="out"/>
<feColorMatrix type="matrix" values="0 0 0 0 0 0 0 0 0 0 0 0 0 0 0 0 0 0 0.15 0"/>
<feBlend mode="normal" in2="BackgroundImageFix" result="effect1_dropShadow_9_60"/>
<feBlend mode="normal" in="SourceGraphic" in2="effect1_dropShadow_9_60" result="shape"/>
</filter>
<filter id="filter4_d_9_60" x="41" y="248" width="220" height="156" filterUnits="userSpaceOnUse" color-interpolation-filters="sRGB">
<feFlood flood-opacity="0" result="BackgroundImageFix"/>
<feColorMatrix in="SourceAlpha" type="matrix" values="0 0 0 0 0 0 0 0 0 0 0 0 0 0 0 0 0 0 127 0" result="hardAlpha"/>
<feOffset dx="2" dy="2"/>
<feGaussianBlur stdDeviation="30"/>
<feComposite in2="hardAlpha" operator="out"/>
<feColorMatrix type="matrix" values="0 0 0 0 0 0 0 0 0 0 0 0 0 0 0 0 0 0 0.15 0"/>
<feBlend mode="normal" in2="BackgroundImageFix" result="effect1_dropShadow_9_60"/>
<feBlend mode="normal" in="SourceGraphic" in2="effect1_dropShadow_9_60" result="shape"/>
</filter>
<filter id="filter5_d_9_60" x="154" y="248" width="220" height="156" filterUnits="userSpaceOnUse" color-interpolation-filters="sRGB">
<feFlood flood-opacity="0" result="BackgroundImageFix"/>
<feColorMatrix in="SourceAlpha" type="matrix" values="0 0 0 0 0 0 0 0 0 0 0 0 0 0 0 0 0 0 127 0" result="hardAlpha"/>
<feOffset dx="2" dy="2"/>
<feGaussianBlur stdDeviation="30"/>
<feComposite in2="hardAlpha" operator="out"/>
<feColorMatrix type="matrix" values="0 0 0 0 0 0 0 0 0 0 0 0 0 0 0 0 0 0 0.15 0"/>
<feBlend mode="normal" in2="BackgroundImageFix" result="effect1_dropShadow_9_60"/>
<feBlend mode="normal" in="SourceGraphic" in2="effect1_dropShadow_9_60" result="shape"/>
</filter>
<filter id="filter6_d_9_60" x="267" y="248" width="220" height="156" filterUnits="userSpaceOnUse" color-interpolation-filters="sRGB">
<feFlood flood-opacity="0" result="BackgroundImageFix"/>
<feColorMatrix in="SourceAlpha" type="matrix" values="0 0 0 0 0 0 0 0 0 0 0 0 0 0 0 0 0 0 127 0" result="hardAlpha"/>
<feOffset dx="2" dy="2"/>
<feGaussianBlur stdDeviation="30"/>
<feComposite in2="hardAlpha" operator="out"/>
<feColorMatrix type="matrix" values="0 0 0 0 0 0 0 0 0 0 0 0 0 0 0 0 0 0 0.15 0"/>
<feBlend mode="normal" in2="BackgroundImageFix" result="effect1_dropShadow_9_60"/>
<feBlend mode="normal" in="SourceGraphic" in2="effect1_dropShadow_9_60" result="shape"/>
</filter>
</defs>
</svg>
