<svg width="256" height="326" viewBox="0 0 256 326" fill="none" xmlns="http://www.w3.org/2000/svg">
<circle cx="124.104" cy="193.82" r="63.1742" fill="#1A8FE3"/>
<mask id="path-2-outside-1_404_3706" maskUnits="userSpaceOnUse" x="69" y="162" width="111" height="58" fill="black">
<rect fill="white" x="69" y="162" width="111" height="58"/>
<path d="M113.81 188L107.402 163.519H112.923L117.753 184.024H116.274L121.367 163.519H126.625L131.718 184.024H130.24L135.07 163.519H140.591L134.183 188H128.268L123.142 168.284H124.851L119.724 188H113.81ZM83.0773 218.394C81.3248 218.394 79.6927 218.077 78.1812 217.441C76.6915 216.806 75.3881 215.919 74.2708 214.78C73.1536 213.641 72.2773 212.304 71.642 210.771C71.0287 209.237 70.722 207.562 70.722 205.743C70.722 203.925 71.0287 202.249 71.642 200.716C72.2554 199.16 73.1207 197.824 74.238 196.707C75.3552 195.568 76.6587 194.691 78.1483 194.078C79.6599 193.443 81.3028 193.125 83.0773 193.125C84.8517 193.125 86.4399 193.421 87.842 194.012C89.2659 194.604 90.4707 195.392 91.4565 196.378C92.4423 197.364 93.1434 198.459 93.5596 199.664L89.0578 201.833C88.6415 200.65 87.9077 199.675 86.8562 198.908C85.8266 198.12 84.5669 197.725 83.0773 197.725C81.6314 197.725 80.3609 198.065 79.2655 198.744C78.1702 199.423 77.3159 200.365 76.7025 201.57C76.111 202.753 75.8153 204.144 75.8153 205.743C75.8153 207.342 76.111 208.744 76.7025 209.949C77.3159 211.154 78.1702 212.096 79.2655 212.775C80.3609 213.454 81.6314 213.794 83.0773 213.794C84.5669 213.794 85.8266 213.411 86.8562 212.644C87.9077 211.855 88.6415 210.869 89.0578 209.686L93.5596 211.855C93.1434 213.06 92.4423 214.155 91.4565 215.141C90.4707 216.127 89.2659 216.916 87.842 217.507C86.4399 218.099 84.8517 218.394 83.0773 218.394ZM101.264 218L109.545 193.519H116.314L124.594 218H119.041L117.398 213.005H108.427L106.784 218H101.264ZM109.84 208.569H115.985L112.239 197.003H113.619L109.84 208.569ZM133.382 218V193.519H142.747C144.434 193.519 145.923 193.815 147.216 194.407C148.53 194.998 149.56 195.874 150.305 197.035C151.05 198.196 151.422 199.631 151.422 201.34C151.422 203.005 151.039 204.429 150.272 205.612C149.505 206.773 148.476 207.649 147.183 208.241L152.769 218H147.052L141.005 207.189L144.291 209.128H138.475V218H133.382ZM138.475 204.692H142.78C143.503 204.692 144.127 204.549 144.653 204.265C145.179 203.98 145.584 203.585 145.869 203.082C146.175 202.578 146.329 201.997 146.329 201.34C146.329 200.661 146.175 200.069 145.869 199.566C145.584 199.062 145.179 198.667 144.653 198.383C144.127 198.098 143.503 197.955 142.78 197.955H138.475V204.692ZM161.543 218V193.519H178.005V197.955H166.636V203.509H177.348V207.945H166.636V213.564H178.005V218H161.543Z"/>
</mask>
<path d="M113.81 188L107.402 163.519H112.923L117.753 184.024H116.274L121.367 163.519H126.625L131.718 184.024H130.24L135.07 163.519H140.591L134.183 188H128.268L123.142 168.284H124.851L119.724 188H113.81ZM83.0773 218.394C81.3248 218.394 79.6927 218.077 78.1812 217.441C76.6915 216.806 75.3881 215.919 74.2708 214.78C73.1536 213.641 72.2773 212.304 71.642 210.771C71.0287 209.237 70.722 207.562 70.722 205.743C70.722 203.925 71.0287 202.249 71.642 200.716C72.2554 199.16 73.1207 197.824 74.238 196.707C75.3552 195.568 76.6587 194.691 78.1483 194.078C79.6599 193.443 81.3028 193.125 83.0773 193.125C84.8517 193.125 86.4399 193.421 87.842 194.012C89.2659 194.604 90.4707 195.392 91.4565 196.378C92.4423 197.364 93.1434 198.459 93.5596 199.664L89.0578 201.833C88.6415 200.65 87.9077 199.675 86.8562 198.908C85.8266 198.12 84.5669 197.725 83.0773 197.725C81.6314 197.725 80.3609 198.065 79.2655 198.744C78.1702 199.423 77.3159 200.365 76.7025 201.57C76.111 202.753 75.8153 204.144 75.8153 205.743C75.8153 207.342 76.111 208.744 76.7025 209.949C77.3159 211.154 78.1702 212.096 79.2655 212.775C80.3609 213.454 81.6314 213.794 83.0773 213.794C84.5669 213.794 85.8266 213.411 86.8562 212.644C87.9077 211.855 88.6415 210.869 89.0578 209.686L93.5596 211.855C93.1434 213.06 92.4423 214.155 91.4565 215.141C90.4707 216.127 89.2659 216.916 87.842 217.507C86.4399 218.099 84.8517 218.394 83.0773 218.394ZM101.264 218L109.545 193.519H116.314L124.594 218H119.041L117.398 213.005H108.427L106.784 218H101.264ZM109.84 208.569H115.985L112.239 197.003H113.619L109.84 208.569ZM133.382 218V193.519H142.747C144.434 193.519 145.923 193.815 147.216 194.407C148.53 194.998 149.56 195.874 150.305 197.035C151.05 198.196 151.422 199.631 151.422 201.34C151.422 203.005 151.039 204.429 150.272 205.612C149.505 206.773 148.476 207.649 147.183 208.241L152.769 218H147.052L141.005 207.189L144.291 209.128H138.475V218H133.382ZM138.475 204.692H142.78C143.503 204.692 144.127 204.549 144.653 204.265C145.179 203.98 145.584 203.585 145.869 203.082C146.175 202.578 146.329 201.997 146.329 201.34C146.329 200.661 146.175 200.069 145.869 199.566C145.584 199.062 145.179 198.667 144.653 198.383C144.127 198.098 143.503 197.955 142.78 197.955H138.475V204.692ZM161.543 218V193.519H178.005V197.955H166.636V203.509H177.348V207.945H166.636V213.564H178.005V218H161.543Z" fill="white"/>
<path d="M113.81 188L112.674 188.297L112.904 189.174H113.81V188ZM107.402 163.519V162.346H105.882L106.267 163.817L107.402 163.519ZM112.923 163.519L114.065 163.25L113.852 162.346H112.923V163.519ZM117.753 184.024V185.198H119.235L118.895 183.755L117.753 184.024ZM116.274 184.024L115.135 183.741L114.773 185.198H116.274V184.024ZM121.367 163.519V162.346H120.45L120.229 163.236L121.367 163.519ZM126.625 163.519L127.764 163.236L127.543 162.346H126.625V163.519ZM131.718 184.024V185.198H133.219L132.857 183.741L131.718 184.024ZM130.24 184.024L129.097 183.755L128.757 185.198H130.24V184.024ZM135.07 163.519V162.346H134.141L133.928 163.25L135.07 163.519ZM140.591 163.519L141.726 163.817L142.111 162.346H140.591V163.519ZM134.183 188V189.174H135.089L135.318 188.297L134.183 188ZM128.268 188L127.132 188.295L127.361 189.174H128.268V188ZM123.142 168.284V167.111H121.624L122.006 168.579L123.142 168.284ZM124.851 168.284L125.986 168.579L126.368 167.111H124.851V168.284ZM119.724 188V189.174H120.632L120.86 188.295L119.724 188ZM114.945 187.703L108.537 163.222L106.267 163.817L112.674 188.297L114.945 187.703ZM107.402 164.693H112.923V162.346H107.402V164.693ZM111.78 163.789L116.611 184.293L118.895 183.755L114.065 163.25L111.78 163.789ZM117.753 182.85H116.274V185.198H117.753V182.85ZM117.413 184.307L122.506 163.802L120.229 163.236L115.135 183.741L117.413 184.307ZM121.367 164.693H126.625V162.346H121.367V164.693ZM125.486 163.802L130.579 184.307L132.857 183.741L127.764 163.236L125.486 163.802ZM131.718 182.85H130.24V185.198H131.718V182.85ZM131.382 184.293L136.212 163.789L133.928 163.25L129.097 183.755L131.382 184.293ZM135.07 164.693H140.591V162.346H135.07V164.693ZM139.455 163.222L133.048 187.703L135.318 188.297L141.726 163.817L139.455 163.222ZM134.183 186.826H128.268V189.174H134.183V186.826ZM129.404 187.705L124.278 167.989L122.006 168.579L127.132 188.295L129.404 187.705ZM123.142 169.458H124.851V167.111H123.142V169.458ZM123.715 167.989L118.589 187.705L120.86 188.295L125.986 168.579L123.715 167.989ZM119.724 186.826H113.81V189.174H119.724V186.826ZM78.1812 217.441L77.7208 218.521L77.7265 218.523L78.1812 217.441ZM74.2708 214.78L75.1087 213.958L75.1087 213.958L74.2708 214.78ZM71.642 210.771L70.5524 211.207L70.5551 211.213L70.5578 211.22L71.642 210.771ZM71.642 200.716L72.7317 201.152L72.7338 201.146L71.642 200.716ZM74.238 196.707L75.0679 197.537L75.0758 197.529L74.238 196.707ZM78.1483 194.078L78.5951 195.163L78.603 195.16L78.1483 194.078ZM87.842 194.012L87.3858 195.094L87.3918 195.096L87.842 194.012ZM93.5596 199.664L94.0689 200.721L95.0098 200.268L94.6688 199.281L93.5596 199.664ZM89.0578 201.833L87.9507 202.222L88.3859 203.459L89.5671 202.89L89.0578 201.833ZM86.8562 198.908L86.1425 199.84L86.1535 199.849L86.1647 199.857L86.8562 198.908ZM79.2655 198.744L79.8839 199.742L79.8839 199.742L79.2655 198.744ZM76.7025 201.57L75.6566 201.038L75.6528 201.045L76.7025 201.57ZM76.7025 209.949L75.649 210.466L75.6528 210.474L75.6566 210.482L76.7025 209.949ZM79.2655 212.775L79.8839 211.778L79.8839 211.778L79.2655 212.775ZM86.8562 212.644L87.5571 213.585L87.5603 213.583L86.8562 212.644ZM89.0578 209.686L89.5671 208.629L88.3859 208.06L87.9507 209.297L89.0578 209.686ZM93.5596 211.855L94.6688 212.238L95.0098 211.251L94.0689 210.798L93.5596 211.855ZM91.4565 215.141L90.6267 214.311L90.6267 214.311L91.4565 215.141ZM87.842 217.507L87.3918 216.423L87.3858 216.426L87.842 217.507ZM83.0773 217.221C81.47 217.221 79.9938 216.93 78.6359 216.359L77.7265 218.523C79.3917 219.223 81.1795 219.568 83.0773 219.568V217.221ZM78.6415 216.362C77.2912 215.786 76.1166 214.986 75.1087 213.958L73.433 215.601C74.6596 216.852 76.0918 217.826 77.7208 218.521L78.6415 216.362ZM75.1087 213.958C74.1009 212.93 73.3064 211.722 72.7263 210.322L70.5578 211.22C71.2483 212.887 72.2063 214.351 73.433 215.601L75.1087 213.958ZM72.7317 210.335C72.1791 208.953 71.8955 207.427 71.8955 205.743H69.5484C69.5484 207.696 69.8782 209.521 70.5524 211.207L72.7317 210.335ZM71.8955 205.743C71.8955 204.059 72.1791 202.533 72.7317 201.152L70.5524 200.28C69.8782 201.965 69.5484 203.791 69.5484 205.743H71.8955ZM72.7338 201.146C73.2916 199.732 74.0709 198.534 75.0678 197.537L73.4081 195.877C72.1706 197.114 71.2192 198.589 70.5503 200.285L72.7338 201.146ZM75.0758 197.529C76.0808 196.504 77.2508 195.717 78.5951 195.163L77.7015 192.993C76.0665 193.666 74.6296 194.631 73.4001 195.885L75.0758 197.529ZM78.603 195.16C79.9591 194.59 81.446 194.299 83.0773 194.299V191.952C81.1596 191.952 79.3606 192.296 77.6936 192.996L78.603 195.16ZM83.0773 194.299C84.7207 194.299 86.1501 194.572 87.3858 195.094L88.2981 192.931C86.7298 192.269 84.9827 191.952 83.0773 191.952V194.299ZM87.3918 195.096C88.6888 195.635 89.7606 196.342 90.6267 197.208L92.2864 195.548C91.1809 194.443 89.843 193.573 88.2921 192.929L87.3918 195.096ZM90.6267 197.208C91.4987 198.08 92.0975 199.026 92.4503 200.047L94.6688 199.281C94.1892 197.893 93.386 196.648 92.2864 195.548L90.6267 197.208ZM93.0502 198.607L88.5484 200.776L89.5671 202.89L94.0689 200.721L93.0502 198.607ZM90.1648 201.443C89.6667 200.028 88.7833 198.861 87.5476 197.96L86.1647 199.857C87.0321 200.489 87.6164 201.272 87.9507 202.222L90.1648 201.443ZM87.5698 197.977C86.3057 197.009 84.7849 196.552 83.0773 196.552V198.899C84.349 198.899 85.3474 199.231 86.1425 199.84L87.5698 197.977ZM83.0773 196.552C81.4403 196.552 79.9502 196.939 78.6471 197.747L79.8839 199.742C80.7716 199.191 81.8226 198.899 83.0773 198.899V196.552ZM78.6471 197.747C77.3604 198.544 76.3623 199.651 75.6566 201.038L77.7483 202.102C78.2694 201.079 78.98 200.302 79.8839 199.742L78.6471 197.747ZM75.6528 201.045C74.9645 202.422 74.6417 204 74.6417 205.743H76.9888C76.9888 204.289 77.2574 203.084 77.7521 202.095L75.6528 201.045ZM74.6417 205.743C74.6417 207.488 74.9648 209.073 75.649 210.466L77.7559 209.432C77.2572 208.416 76.9888 207.197 76.9888 205.743H74.6417ZM75.6566 210.482C76.3623 211.868 77.3604 212.975 78.6471 213.773L79.8839 211.778C78.98 211.217 78.2694 210.44 77.7483 209.417L75.6566 210.482ZM78.6471 213.773C79.9502 214.581 81.4403 214.968 83.0773 214.968V212.62C81.8226 212.62 80.7716 212.328 79.8839 211.778L78.6471 213.773ZM83.0773 214.968C84.7774 214.968 86.2936 214.526 87.5571 213.585L86.1552 211.703C85.3595 212.295 84.3564 212.62 83.0773 212.62V214.968ZM87.5603 213.583C88.788 212.662 89.6677 211.489 90.1648 210.076L87.9507 209.297C87.6154 210.25 87.0273 211.049 86.152 211.705L87.5603 213.583ZM88.5484 210.744L93.0502 212.912L94.0689 210.798L89.5671 208.629L88.5484 210.744ZM92.4503 211.472C92.0975 212.493 91.4987 213.439 90.6267 214.311L92.2864 215.971C93.386 214.871 94.1892 213.627 94.6688 212.238L92.4503 211.472ZM90.6267 214.311C89.7606 215.177 88.6888 215.885 87.3918 216.423L88.2921 218.591C89.843 217.947 91.1809 217.077 92.2864 215.971L90.6267 214.311ZM87.3858 216.426C86.1501 216.947 84.7207 217.221 83.0773 217.221V219.568C84.9827 219.568 86.7298 219.25 88.2981 218.588L87.3858 216.426ZM101.264 218L100.152 217.624L99.6281 219.174H101.264V218ZM109.545 193.519V192.346H108.703L108.433 193.143L109.545 193.519ZM116.314 193.519L117.425 193.143L117.156 192.346H116.314V193.519ZM124.594 218V219.174H126.23L125.706 217.624L124.594 218ZM119.041 218L117.926 218.367L118.192 219.174H119.041V218ZM117.398 213.005L118.513 212.639L118.248 211.832H117.398V213.005ZM108.427 213.005V211.832H107.578L107.313 212.639L108.427 213.005ZM106.784 218V219.174H107.634L107.899 218.367L106.784 218ZM109.84 208.569L108.725 208.205L108.222 209.743H109.84V208.569ZM115.985 208.569V209.743H117.599L117.102 208.208L115.985 208.569ZM112.239 197.003V195.829H110.625L111.123 197.364L112.239 197.003ZM113.619 197.003L114.735 197.367L115.237 195.829H113.619V197.003ZM102.376 218.376L110.656 193.895L108.433 193.143L100.152 217.624L102.376 218.376ZM109.545 194.693H116.314V192.346H109.545V194.693ZM115.202 193.895L123.483 218.376L125.706 217.624L117.425 193.143L115.202 193.895ZM124.594 216.826H119.041V219.174H124.594V216.826ZM120.156 217.633L118.513 212.639L116.283 213.372L117.926 218.367L120.156 217.633ZM117.398 211.832H108.427V214.179H117.398V211.832ZM107.313 212.639L105.67 217.633L107.899 218.367L109.542 213.372L107.313 212.639ZM106.784 216.826H101.264V219.174H106.784V216.826ZM109.84 209.743H115.985V207.396H109.84V209.743ZM117.102 208.208L113.356 196.641L111.123 197.364L114.869 208.931L117.102 208.208ZM112.239 198.176H113.619V195.829H112.239V198.176ZM112.504 196.638L108.725 208.205L110.956 208.934L114.735 197.367L112.504 196.638ZM133.382 218H132.208V219.174H133.382V218ZM133.382 193.519V192.346H132.208V193.519H133.382ZM147.216 194.407L146.728 195.474L146.734 195.477L147.216 194.407ZM150.305 197.035L149.317 197.669L149.317 197.669L150.305 197.035ZM150.272 205.612L151.251 206.259L151.257 206.25L150.272 205.612ZM147.183 208.241L146.695 207.173L145.526 207.708L146.164 208.824L147.183 208.241ZM152.769 218V219.174H154.793L153.788 217.417L152.769 218ZM147.052 218L146.027 218.573L146.363 219.174H147.052V218ZM141.005 207.189L141.602 206.178L137.861 203.971L139.981 207.762L141.005 207.189ZM144.291 209.128V210.301H148.59L144.888 208.117L144.291 209.128ZM138.475 209.128V207.954H137.302V209.128H138.475ZM138.475 218V219.174H139.649V218H138.475ZM138.475 204.692H137.302V205.865H138.475V204.692ZM144.653 204.265L145.212 205.296L145.212 205.296L144.653 204.265ZM145.869 203.082L144.866 202.471L144.856 202.488L144.847 202.504L145.869 203.082ZM145.869 199.566L144.847 200.143L144.856 200.16L144.866 200.176L145.869 199.566ZM144.653 198.383L144.094 199.415L144.094 199.415L144.653 198.383ZM138.475 197.955V196.782H137.302V197.955H138.475ZM134.555 218V193.519H132.208V218H134.555ZM133.382 194.693H142.747V192.346H133.382V194.693ZM142.747 194.693C144.296 194.693 145.614 194.964 146.728 195.474L147.704 193.339C146.233 192.666 144.571 192.346 142.747 192.346V194.693ZM146.734 195.477C147.851 195.979 148.701 196.708 149.317 197.669L151.292 196.402C150.419 195.04 149.21 194.017 147.697 193.336L146.734 195.477ZM149.317 197.669C149.914 198.6 150.248 199.802 150.248 201.34H152.596C152.596 199.46 152.185 197.792 151.292 196.402L149.317 197.669ZM150.248 201.34C150.248 202.82 149.91 204.013 149.287 204.974L151.257 206.25C152.167 204.845 152.596 203.19 152.596 201.34H150.248ZM149.293 204.965C148.65 205.939 147.792 206.671 146.695 207.173L147.671 209.308C149.159 208.627 150.361 207.607 151.251 206.259L149.293 204.965ZM146.164 208.824L151.751 218.583L153.788 217.417L148.202 207.658L146.164 208.824ZM152.769 216.826H147.052V219.174H152.769V216.826ZM148.076 217.427L142.03 206.616L139.981 207.762L146.027 218.573L148.076 217.427ZM140.409 208.2L143.695 210.139L144.888 208.117L141.602 206.178L140.409 208.2ZM144.291 207.954H138.475V210.301H144.291V207.954ZM137.302 209.128V218H139.649V209.128H137.302ZM138.475 216.826H133.382V219.174H138.475V216.826ZM138.475 205.865H142.78V203.518H138.475V205.865ZM142.78 205.865C143.657 205.865 144.482 205.692 145.212 205.296L144.094 203.233C143.772 203.407 143.348 203.518 142.78 203.518V205.865ZM145.212 205.296C145.925 204.91 146.493 204.361 146.89 203.659L144.847 202.504C144.674 202.809 144.433 203.049 144.094 203.233L145.212 205.296ZM146.871 203.692C147.302 202.984 147.502 202.187 147.502 201.34H145.155C145.155 201.807 145.048 202.172 144.866 202.471L146.871 203.692ZM147.502 201.34C147.502 200.479 147.306 199.67 146.871 198.955L144.866 200.176C145.045 200.469 145.155 200.843 145.155 201.34H147.502ZM146.89 198.988C146.493 198.286 145.925 197.737 145.212 197.351L144.094 199.415C144.433 199.598 144.674 199.838 144.847 200.143L146.89 198.988ZM145.212 197.351C144.482 196.955 143.657 196.782 142.78 196.782V199.129C143.348 199.129 143.772 199.24 144.094 199.415L145.212 197.351ZM142.78 196.782H138.475V199.129H142.78V196.782ZM137.302 197.955V204.692H139.649V197.955H137.302ZM161.543 218H160.369V219.174H161.543V218ZM161.543 193.519V192.346H160.369V193.519H161.543ZM178.005 193.519H179.179V192.346H178.005V193.519ZM178.005 197.955V199.129H179.179V197.955H178.005ZM166.636 197.955V196.782H165.462V197.955H166.636ZM166.636 203.509H165.462V204.682H166.636V203.509ZM177.348 203.509H178.522V202.335H177.348V203.509ZM177.348 207.945V209.118H178.522V207.945H177.348ZM166.636 207.945V206.771H165.462V207.945H166.636ZM166.636 213.564H165.462V214.737H166.636V213.564ZM178.005 213.564H179.179V212.39H178.005V213.564ZM178.005 218V219.174H179.179V218H178.005ZM162.716 218V193.519H160.369V218H162.716ZM161.543 194.693H178.005V192.346H161.543V194.693ZM176.832 193.519V197.955H179.179V193.519H176.832ZM178.005 196.782H166.636V199.129H178.005V196.782ZM165.462 197.955V203.509H167.809V197.955H165.462ZM166.636 204.682H177.348V202.335H166.636V204.682ZM176.175 203.509V207.945H178.522V203.509H176.175ZM177.348 206.771H166.636V209.118H177.348V206.771ZM165.462 207.945V213.564H167.809V207.945H165.462ZM166.636 214.737H178.005V212.39H166.636V214.737ZM176.832 213.564V218H179.179V213.564H176.832ZM178.005 216.826H161.543V219.174H178.005V216.826Z" fill="white" mask="url(#path-2-outside-1_404_3706)"/>
<path fill-rule="evenodd" clip-rule="evenodd" d="M26.5954 273.633C30.9654 277.269 35.4081 282.178 33.3784 287.488C31.2616 293.026 24.6478 294.723 18.7448 294.171C13.279 293.66 8.43501 290.316 6.99077 285.02C5.43243 279.306 6.97108 272.753 12.0931 269.778C16.8751 267.001 22.3443 270.096 26.5954 273.633Z" fill="#1A8FE3" fill-opacity="0.5"/>
<path fill-rule="evenodd" clip-rule="evenodd" d="M250.952 279.009C252.846 280.585 254.772 282.712 253.892 285.013C252.975 287.414 250.108 288.149 247.55 287.91C245.181 287.689 243.082 286.24 242.456 283.944C241.78 281.467 242.447 278.628 244.667 277.338C246.74 276.135 249.11 277.476 250.952 279.009Z" fill="#1A8FE3"/>
<path fill-rule="evenodd" clip-rule="evenodd" d="M131.693 320.222C132.617 320.991 133.556 322.029 133.127 323.151C132.68 324.322 131.281 324.681 130.033 324.564C128.878 324.456 127.854 323.749 127.548 322.63C127.219 321.422 127.544 320.036 128.627 319.407C129.638 318.82 130.794 319.475 131.693 320.222Z" fill="#1A8FE3" fill-opacity="0.5"/>
<path fill-rule="evenodd" clip-rule="evenodd" d="M221.403 68.7625C228.185 68.7194 236.012 69.7813 238.243 76.1858C240.57 82.8653 235.842 89.499 230.032 93.5339C224.653 97.27 217.663 97.944 212.274 94.2229C206.459 90.2079 202.825 83.0478 205.21 76.3958C207.437 70.1855 214.806 68.8044 221.403 68.7625Z" fill="#1A8FE3"/>
<path fill-rule="evenodd" clip-rule="evenodd" d="M21.4758 93.0023C25.4525 91.3052 30.3158 90.0002 33.2062 93.2157C36.2207 96.5692 35.0762 101.635 32.6553 105.439C30.4138 108.962 26.4705 111.081 22.3846 110.222C17.9758 109.295 14.0743 105.981 13.8369 101.482C13.6152 97.2818 17.6074 94.6532 21.4758 93.0023Z" fill="#1A8FE3" fill-opacity="0.3"/>
<path fill-rule="evenodd" clip-rule="evenodd" d="M127.614 4.30111C131.591 2.604 136.454 1.29898 139.345 4.51448C142.359 7.86798 141.214 12.9336 138.794 16.7379C136.552 20.2605 132.609 22.3798 128.523 21.5206C124.114 20.5935 120.213 17.2797 119.975 12.7808C119.754 8.58062 123.746 5.95205 127.614 4.30111Z" fill="#1A8FE3" fill-opacity="0.5"/>
</svg>
