<svg width="93" height="48" viewBox="0 0 93 48" fill="none" xmlns="http://www.w3.org/2000/svg">
<mask id="path-1-outside-1_404_3767" maskUnits="userSpaceOnUse" x="-1" y="-1" width="95" height="50" fill="black">
<rect fill="white" x="-1" y="-1" width="95" height="50"/>
<path d="M37.3168 21L31.8568 0.139998H36.5608L40.6768 17.612H39.4168L43.7568 0.139998H48.2368L52.5768 17.612H51.3168L55.4328 0.139998H60.1368L54.6768 21H49.6368L45.2688 4.2H46.7248L42.3568 21H37.3168ZM11.1296 47.336C9.63628 47.336 8.24561 47.0653 6.95761 46.524C5.68828 45.9827 4.57761 45.2267 3.62561 44.256C2.67361 43.2853 1.92694 42.1467 1.38561 40.84C0.862943 39.5333 0.60161 38.1053 0.60161 36.556C0.60161 35.0067 0.862943 33.5787 1.38561 32.272C1.90828 30.9467 2.64561 29.808 3.59761 28.856C4.54961 27.8853 5.66028 27.1387 6.92961 26.616C8.21761 26.0747 9.61761 25.804 11.1296 25.804C12.6416 25.804 13.9949 26.056 15.1896 26.56C16.4029 27.064 17.4296 27.736 18.2696 28.576C19.1096 29.416 19.7069 30.3493 20.0616 31.376L16.2256 33.224C15.8709 32.216 15.2456 31.3853 14.3496 30.732C13.4723 30.06 12.3989 29.724 11.1296 29.724C9.89761 29.724 8.81494 30.0133 7.88161 30.592C6.94828 31.1707 6.22028 31.9733 5.69761 33C5.19361 34.008 4.94161 35.1933 4.94161 36.556C4.94161 37.9187 5.19361 39.1133 5.69761 40.14C6.22028 41.1667 6.94828 41.9693 7.88161 42.548C8.81494 43.1267 9.89761 43.416 11.1296 43.416C12.3989 43.416 13.4723 43.0893 14.3496 42.436C15.2456 41.764 15.8709 40.924 16.2256 39.916L20.0616 41.764C19.7069 42.7907 19.1096 43.724 18.2696 44.564C17.4296 45.404 16.4029 46.076 15.1896 46.58C13.9949 47.084 12.6416 47.336 11.1296 47.336ZM26.6265 47L33.6825 26.14H39.4505L46.5065 47H41.7745L40.3745 42.744H32.7305L31.3305 47H26.6265ZM33.9345 38.964H39.1705L35.9785 29.108H37.1545L33.9345 38.964ZM53.9943 47V26.14H61.9743C63.4117 26.14 64.681 26.392 65.7823 26.896C66.9023 27.4 67.7797 28.1467 68.4143 29.136C69.049 30.1253 69.3663 31.348 69.3663 32.804C69.3663 34.2227 69.0397 35.436 68.3863 36.444C67.733 37.4333 66.8557 38.18 65.7543 38.684L70.5143 47H65.6423L60.4903 37.788L63.2903 39.44H58.3343V47H53.9943ZM58.3343 35.66H62.0023C62.6183 35.66 63.1503 35.5387 63.5983 35.296C64.0463 35.0533 64.3917 34.7173 64.6343 34.288C64.8957 33.8587 65.0263 33.364 65.0263 32.804C65.0263 32.2253 64.8957 31.7213 64.6343 31.292C64.3917 30.8627 64.0463 30.5267 63.5983 30.284C63.1503 30.0413 62.6183 29.92 62.0023 29.92H58.3343V35.66ZM77.9901 47V26.14H92.0181V29.92H82.3301V34.652H91.4581V38.432H82.3301V43.22H92.0181V47H77.9901Z"/>
</mask>
<path d="M37.3168 21L31.8568 0.139998H36.5608L40.6768 17.612H39.4168L43.7568 0.139998H48.2368L52.5768 17.612H51.3168L55.4328 0.139998H60.1368L54.6768 21H49.6368L45.2688 4.2H46.7248L42.3568 21H37.3168ZM11.1296 47.336C9.63628 47.336 8.24561 47.0653 6.95761 46.524C5.68828 45.9827 4.57761 45.2267 3.62561 44.256C2.67361 43.2853 1.92694 42.1467 1.38561 40.84C0.862943 39.5333 0.60161 38.1053 0.60161 36.556C0.60161 35.0067 0.862943 33.5787 1.38561 32.272C1.90828 30.9467 2.64561 29.808 3.59761 28.856C4.54961 27.8853 5.66028 27.1387 6.92961 26.616C8.21761 26.0747 9.61761 25.804 11.1296 25.804C12.6416 25.804 13.9949 26.056 15.1896 26.56C16.4029 27.064 17.4296 27.736 18.2696 28.576C19.1096 29.416 19.7069 30.3493 20.0616 31.376L16.2256 33.224C15.8709 32.216 15.2456 31.3853 14.3496 30.732C13.4723 30.06 12.3989 29.724 11.1296 29.724C9.89761 29.724 8.81494 30.0133 7.88161 30.592C6.94828 31.1707 6.22028 31.9733 5.69761 33C5.19361 34.008 4.94161 35.1933 4.94161 36.556C4.94161 37.9187 5.19361 39.1133 5.69761 40.14C6.22028 41.1667 6.94828 41.9693 7.88161 42.548C8.81494 43.1267 9.89761 43.416 11.1296 43.416C12.3989 43.416 13.4723 43.0893 14.3496 42.436C15.2456 41.764 15.8709 40.924 16.2256 39.916L20.0616 41.764C19.7069 42.7907 19.1096 43.724 18.2696 44.564C17.4296 45.404 16.4029 46.076 15.1896 46.58C13.9949 47.084 12.6416 47.336 11.1296 47.336ZM26.6265 47L33.6825 26.14H39.4505L46.5065 47H41.7745L40.3745 42.744H32.7305L31.3305 47H26.6265ZM33.9345 38.964H39.1705L35.9785 29.108H37.1545L33.9345 38.964ZM53.9943 47V26.14H61.9743C63.4117 26.14 64.681 26.392 65.7823 26.896C66.9023 27.4 67.7797 28.1467 68.4143 29.136C69.049 30.1253 69.3663 31.348 69.3663 32.804C69.3663 34.2227 69.0397 35.436 68.3863 36.444C67.733 37.4333 66.8557 38.18 65.7543 38.684L70.5143 47H65.6423L60.4903 37.788L63.2903 39.44H58.3343V47H53.9943ZM58.3343 35.66H62.0023C62.6183 35.66 63.1503 35.5387 63.5983 35.296C64.0463 35.0533 64.3917 34.7173 64.6343 34.288C64.8957 33.8587 65.0263 33.364 65.0263 32.804C65.0263 32.2253 64.8957 31.7213 64.6343 31.292C64.3917 30.8627 64.0463 30.5267 63.5983 30.284C63.1503 30.0413 62.6183 29.92 62.0023 29.92H58.3343V35.66ZM77.9901 47V26.14H92.0181V29.92H82.3301V34.652H91.4581V38.432H82.3301V43.22H92.0181V47H77.9901Z" fill="#1A8FE3"/>
<path d="M37.3168 21L36.3494 21.2532L36.5449 22H37.3168V21ZM31.8568 0.139998V-0.860002H30.5614L30.8894 0.393213L31.8568 0.139998ZM36.5608 0.139998L37.5342 -0.0893019L37.3526 -0.860002H36.5608V0.139998ZM40.6768 17.612V18.612H41.9398L41.6502 17.3827L40.6768 17.612ZM39.4168 17.612L38.4463 17.3709L38.138 18.612H39.4168V17.612ZM43.7568 0.139998V-0.860002H42.9748L42.7863 -0.101073L43.7568 0.139998ZM48.2368 0.139998L49.2073 -0.101073L49.0188 -0.860002H48.2368V0.139998ZM52.5768 17.612V18.612H53.8556L53.5473 17.3709L52.5768 17.612ZM51.3168 17.612L50.3435 17.3827L50.0539 18.612H51.3168V17.612ZM55.4328 0.139998V-0.860002H54.641L54.4595 -0.089302L55.4328 0.139998ZM60.1368 0.139998L61.1042 0.393213L61.4323 -0.860002H60.1368V0.139998ZM54.6768 21V22H55.4488L55.6442 21.2532L54.6768 21ZM49.6368 21L48.669 21.2516L48.8636 22H49.6368V21ZM45.2688 4.2V3.2H43.9756L44.301 4.45163L45.2688 4.2ZM46.7248 4.2L47.6927 4.45163L48.0181 3.2H46.7248V4.2ZM42.3568 21V22H43.1301L43.3247 21.2516L42.3568 21ZM38.2842 20.7468L32.8242 -0.113217L30.8894 0.393213L36.3494 21.2532L38.2842 20.7468ZM31.8568 1.14H36.5608V-0.860002H31.8568V1.14ZM35.5875 0.369298L39.7035 17.8413L41.6502 17.3827L37.5342 -0.0893019L35.5875 0.369298ZM40.6768 16.612H39.4168V18.612H40.6768V16.612ZM40.3873 17.8531L44.7273 0.38107L42.7863 -0.101073L38.4463 17.3709L40.3873 17.8531ZM43.7568 1.14H48.2368V-0.860002H43.7568V1.14ZM47.2663 0.38107L51.6063 17.8531L53.5473 17.3709L49.2073 -0.101073L47.2663 0.38107ZM52.5768 16.612H51.3168V18.612H52.5768V16.612ZM52.2902 17.8413L56.4062 0.369298L54.4595 -0.089302L50.3435 17.3827L52.2902 17.8413ZM55.4328 1.14H60.1368V-0.860002H55.4328V1.14ZM59.1694 -0.113216L53.7094 20.7468L55.6442 21.2532L61.1042 0.393213L59.1694 -0.113216ZM54.6768 20H49.6368V22H54.6768V20ZM50.6047 20.7484L46.2367 3.94837L44.301 4.45163L48.669 21.2516L50.6047 20.7484ZM45.2688 5.2H46.7248V3.2H45.2688V5.2ZM45.757 3.94837L41.389 20.7484L43.3247 21.2516L47.6927 4.45163L45.757 3.94837ZM42.3568 20H37.3168V22H42.3568V20ZM6.95761 46.524L6.56532 47.4439L6.57015 47.4459L6.95761 46.524ZM3.62561 44.256L4.33955 43.5558L4.33955 43.5558L3.62561 44.256ZM1.38561 40.84L0.457064 41.2114L0.461754 41.2227L1.38561 40.84ZM1.38561 32.272L2.3141 32.6434L2.31588 32.6389L1.38561 32.272ZM3.59761 28.856L4.30475 29.5631L4.31155 29.5562L3.59761 28.856ZM6.92961 26.616L7.31037 27.5407L7.31707 27.5379L6.92961 26.616ZM15.1896 26.56L14.8009 27.4814L14.806 27.4835L15.1896 26.56ZM20.0616 31.376L20.4956 32.2769L21.2974 31.8907L21.0068 31.0495L20.0616 31.376ZM16.2256 33.224L15.2823 33.5559L15.6531 34.6098L16.6596 34.1249L16.2256 33.224ZM14.3496 30.732L13.7415 31.5259L13.7509 31.5331L13.7604 31.54L14.3496 30.732ZM7.88161 30.592L8.40855 31.4419L8.40855 31.4419L7.88161 30.592ZM5.69761 33L4.80642 32.5463L4.80318 32.5528L5.69761 33ZM5.69761 40.14L4.79994 40.5807L4.80315 40.5872L4.80645 40.5937L5.69761 40.14ZM7.88161 42.548L8.40855 41.6981L8.40855 41.6981L7.88161 42.548ZM14.3496 42.436L14.9469 43.238L14.9496 43.236L14.3496 42.436ZM16.2256 39.916L16.6596 39.0151L15.6531 38.5302L15.2823 39.5841L16.2256 39.916ZM20.0616 41.764L21.0068 42.0905L21.2974 41.2493L20.4956 40.8631L20.0616 41.764ZM18.2696 44.564L17.5625 43.8569L17.5625 43.8569L18.2696 44.564ZM15.1896 46.58L14.806 45.6565L14.8009 45.6586L15.1896 46.58ZM11.1296 46.336C9.76006 46.336 8.50213 46.0884 7.34507 45.6021L6.57015 47.4459C7.98909 48.0423 9.51249 48.336 11.1296 48.336V46.336ZM7.3499 45.6042C6.19929 45.1135 5.19836 44.4314 4.33955 43.5558L2.91167 44.9562C3.95686 46.0219 5.17727 46.8519 6.56532 47.4438L7.3499 45.6042ZM4.33955 43.5558C3.4808 42.6802 2.8038 41.6505 2.30947 40.4573L0.461754 41.2227C1.05008 42.6428 1.86642 43.8905 2.91167 44.9562L4.33955 43.5558ZM2.31409 40.4686C1.84322 39.2914 1.60161 37.991 1.60161 36.556H-0.39839C-0.39839 38.2197 -0.117334 39.7752 0.457133 41.2114L2.31409 40.4686ZM1.60161 36.556C1.60161 35.121 1.84322 33.8206 2.31409 32.6434L0.457133 31.9006C-0.117334 33.3368 -0.39839 34.8923 -0.39839 36.556H1.60161ZM2.31588 32.6389C2.79124 31.4335 3.45521 30.4126 4.30472 29.5631L2.8905 28.1489C1.83601 29.2034 1.02531 30.4598 0.455337 31.9051L2.31588 32.6389ZM4.31155 29.5562C5.16788 28.6831 6.16489 28.0123 7.31036 27.5407L6.54886 25.6913C5.15567 26.265 3.93134 27.0876 2.88367 28.1558L4.31155 29.5562ZM7.31707 27.5379C8.47262 27.0522 9.73963 26.804 11.1296 26.804V24.804C9.49559 24.804 7.9626 25.0971 6.54215 25.6941L7.31707 27.5379ZM11.1296 26.804C12.53 26.804 13.748 27.0371 14.8009 27.4814L15.5783 25.6386C14.2419 25.0748 12.7532 24.804 11.1296 24.804V26.804ZM14.806 27.4835C15.9112 27.9426 16.8245 28.5451 17.5625 29.2831L18.9767 27.8689C18.0347 26.9269 16.8947 26.1854 15.5732 25.6365L14.806 27.4835ZM17.5625 29.2831C18.3055 30.0261 18.8157 30.8321 19.1164 31.7025L21.0068 31.0495C20.5981 29.8665 19.9137 28.8059 18.9767 27.8689L17.5625 29.2831ZM19.6276 30.4751L15.7916 32.3231L16.6596 34.1249L20.4956 32.2769L19.6276 30.4751ZM17.1689 32.8921C16.7445 31.6857 15.9917 30.6918 14.9388 29.924L13.7604 31.54C14.4995 32.0789 14.9974 32.7463 15.2823 33.5559L17.1689 32.8921ZM14.9577 29.9381C13.8805 29.1131 12.5846 28.724 11.1296 28.724V30.724C12.2132 30.724 13.064 31.0069 13.7415 31.5259L14.9577 29.9381ZM11.1296 28.724C9.73474 28.724 8.46497 29.0537 7.35467 29.7421L8.40855 31.4419C9.16491 30.973 10.0605 30.724 11.1296 30.724V28.724ZM7.35467 29.7421C6.25822 30.4219 5.40778 31.3651 4.80645 32.5463L6.58877 33.4537C7.03277 32.5815 7.63833 31.9194 8.40855 31.4419L7.35467 29.7421ZM4.80318 32.5528C4.21671 33.7257 3.94161 35.0701 3.94161 36.556H5.94161C5.94161 35.3165 6.17051 34.2903 6.59204 33.4472L4.80318 32.5528ZM3.94161 36.556C3.94161 38.0425 4.21692 39.393 4.79994 40.5807L6.59528 39.6993C6.1703 38.8336 5.94161 37.7949 5.94161 36.556H3.94161ZM4.80645 40.5937C5.40778 41.7749 6.25822 42.7181 7.35467 43.3979L8.40855 41.6981C7.63833 41.2206 7.03277 40.5585 6.58877 39.6863L4.80645 40.5937ZM7.35467 43.3979C8.46497 44.0863 9.73474 44.416 11.1296 44.416V42.416C10.0605 42.416 9.16491 42.167 8.40855 41.6981L7.35467 43.3979ZM11.1296 44.416C12.5783 44.416 13.8703 44.0398 14.9469 43.238L13.7523 41.634C13.0743 42.1389 12.2196 42.416 11.1296 42.416V44.416ZM14.9496 43.236C15.9958 42.4514 16.7454 41.4517 17.1689 40.2479L15.2823 39.5841C14.9965 40.3963 14.4954 41.0766 13.7496 41.636L14.9496 43.236ZM15.7916 40.8169L19.6276 42.6649L20.4956 40.8631L16.6596 39.0151L15.7916 40.8169ZM19.1164 41.4375C18.8157 42.3079 18.3055 43.1139 17.5625 43.8569L18.9767 45.2711C19.9137 44.3341 20.5981 43.2735 21.0068 42.0905L19.1164 41.4375ZM17.5625 43.8569C16.8245 44.5949 15.9112 45.1974 14.806 45.6565L15.5732 47.5035C16.8947 46.9546 18.0347 46.2131 18.9767 45.2711L17.5625 43.8569ZM14.8009 45.6586C13.748 46.1029 12.53 46.336 11.1296 46.336V48.336C12.7532 48.336 14.2419 48.0651 15.5783 47.5014L14.8009 45.6586ZM26.6265 47L25.6792 46.6796L25.2326 48H26.6265V47ZM33.6825 26.14V25.14H32.9651L32.7352 25.8196L33.6825 26.14ZM39.4505 26.14L40.3978 25.8196L40.1679 25.14H39.4505V26.14ZM46.5065 47V48H47.9004L47.4538 46.6796L46.5065 47ZM41.7745 47L40.8246 47.3125L41.0508 48H41.7745V47ZM40.3745 42.744L41.3244 42.4315L41.0983 41.744H40.3745V42.744ZM32.7305 42.744V41.744H32.0067L31.7806 42.4315L32.7305 42.744ZM31.3305 47V48H32.0543L32.2804 47.3125L31.3305 47ZM33.9345 38.964L32.984 38.6534L32.5558 39.964H33.9345V38.964ZM39.1705 38.964V39.964H40.5455L40.1219 38.6559L39.1705 38.964ZM35.9785 29.108V28.108H34.6035L35.0272 29.4161L35.9785 29.108ZM37.1545 29.108L38.1051 29.4185L38.5332 28.108H37.1545V29.108ZM27.5738 47.3204L34.6298 26.4604L32.7352 25.8196L25.6792 46.6796L27.5738 47.3204ZM33.6825 27.14H39.4505V25.14H33.6825V27.14ZM38.5032 26.4604L45.5592 47.3204L47.4538 46.6796L40.3978 25.8196L38.5032 26.4604ZM46.5065 46H41.7745V48H46.5065V46ZM42.7244 46.6875L41.3244 42.4315L39.4246 43.0565L40.8246 47.3125L42.7244 46.6875ZM40.3745 41.744H32.7305V43.744H40.3745V41.744ZM31.7806 42.4315L30.3806 46.6875L32.2804 47.3125L33.6804 43.0565L31.7806 42.4315ZM31.3305 46H26.6265V48H31.3305V46ZM33.9345 39.964H39.1705V37.964H33.9345V39.964ZM40.1219 38.6559L36.9299 28.7999L35.0272 29.4161L38.2192 39.2721L40.1219 38.6559ZM35.9785 30.108H37.1545V28.108H35.9785V30.108ZM36.204 28.7974L32.984 38.6534L34.8851 39.2746L38.1051 29.4185L36.204 28.7974ZM53.9943 47H52.9943V48H53.9943V47ZM53.9943 26.14V25.14H52.9943V26.14H53.9943ZM65.7823 26.896L65.3662 27.8053L65.372 27.8079L65.7823 26.896ZM68.4143 29.136L67.5726 29.676L67.5726 29.676L68.4143 29.136ZM68.3863 36.444L69.2208 36.9951L69.2255 36.9879L68.3863 36.444ZM65.7543 38.684L65.3382 37.7747L64.3425 38.2304L64.8864 39.1808L65.7543 38.684ZM70.5143 47V48H72.2389L71.3822 46.5032L70.5143 47ZM65.6423 47L64.7696 47.4881L65.0558 48H65.6423V47ZM60.4903 37.788L60.9985 36.9267L57.8112 35.0462L59.6176 38.2761L60.4903 37.788ZM63.2903 39.44V40.44H66.9532L63.7985 38.5787L63.2903 39.44ZM58.3343 39.44V38.44H57.3343V39.44H58.3343ZM58.3343 47V48H59.3343V47H58.3343ZM58.3343 35.66H57.3343V36.66H58.3343V35.66ZM63.5983 35.296L64.0746 36.1753L64.0746 36.1753L63.5983 35.296ZM64.6343 34.288L63.7801 33.7681L63.7717 33.7819L63.7638 33.7959L64.6343 34.288ZM64.6343 31.292L63.7638 31.7841L63.7717 31.7981L63.7801 31.8119L64.6343 31.292ZM63.5983 30.284L63.122 31.1633L63.122 31.1633L63.5983 30.284ZM58.3343 29.92V28.92H57.3343V29.92H58.3343ZM54.9943 47V26.14H52.9943V47H54.9943ZM53.9943 27.14H61.9743V25.14H53.9943V27.14ZM61.9743 27.14C63.2945 27.14 64.4176 27.3712 65.3662 27.8053L66.1985 25.9867C64.9444 25.4128 63.5288 25.14 61.9743 25.14V27.14ZM65.372 27.8079C66.3235 28.2361 67.0475 28.8574 67.5726 29.676L69.256 28.596C68.5118 27.436 67.4811 26.5639 66.1927 25.9841L65.372 27.8079ZM67.5726 29.676C68.0817 30.4696 68.3663 31.4937 68.3663 32.804H70.3663C70.3663 31.2023 70.0162 29.7811 69.256 28.596L67.5726 29.676ZM68.3663 32.804C68.3663 34.0652 68.0777 35.0815 67.5472 35.9001L69.2255 36.9879C70.0016 35.7905 70.3663 34.3802 70.3663 32.804H68.3663ZM67.5519 35.8929C67.004 36.7225 66.2732 37.3468 65.3382 37.7747L66.1705 39.5933C67.4381 39.0132 68.462 38.1441 69.2208 36.9951L67.5519 35.8929ZM64.8864 39.1808L69.6464 47.4968L71.3822 46.5032L66.6222 38.1872L64.8864 39.1808ZM70.5143 46H65.6423V48H70.5143V46ZM66.5151 46.5119L61.3631 37.2999L59.6176 38.2761L64.7696 47.4881L66.5151 46.5119ZM59.9822 38.6493L62.7822 40.3013L63.7985 38.5787L60.9985 36.9267L59.9822 38.6493ZM63.2903 38.44H58.3343V40.44H63.2903V38.44ZM57.3343 39.44V47H59.3343V39.44H57.3343ZM58.3343 46H53.9943V48H58.3343V46ZM58.3343 36.66H62.0023V34.66H58.3343V36.66ZM62.0023 36.66C62.7501 36.66 63.4527 36.5121 64.0746 36.1753L63.122 34.4167C62.8479 34.5652 62.4865 34.66 62.0023 34.66V36.66ZM64.0746 36.1753C64.682 35.8463 65.1666 35.3786 65.5049 34.7801L63.7638 33.7959C63.6167 34.0561 63.4106 34.2604 63.122 34.4167L64.0746 36.1753ZM65.4885 34.8079C65.8558 34.2045 66.0263 33.5259 66.0263 32.804H64.0263C64.0263 33.2021 63.9355 33.5128 63.7801 33.7681L65.4885 34.8079ZM66.0263 32.804C66.0263 32.0702 65.8589 31.3806 65.4885 30.7721L63.7801 31.8119C63.9324 32.0621 64.0263 32.3805 64.0263 32.804H66.0263ZM65.5049 30.7999C65.1666 30.2014 64.682 29.7337 64.0746 29.4047L63.122 31.1633C63.4106 31.3196 63.6167 31.5239 63.7638 31.7841L65.5049 30.7999ZM64.0746 29.4047C63.4527 29.0679 62.7501 28.92 62.0023 28.92V30.92C62.4865 30.92 62.8479 31.0148 63.122 31.1633L64.0746 29.4047ZM62.0023 28.92H58.3343V30.92H62.0023V28.92ZM57.3343 29.92V35.66H59.3343V29.92H57.3343ZM77.9901 47H76.9901V48H77.9901V47ZM77.9901 26.14V25.14H76.9901V26.14H77.9901ZM92.0181 26.14H93.0181V25.14H92.0181V26.14ZM92.0181 29.92V30.92H93.0181V29.92H92.0181ZM82.3301 29.92V28.92H81.3301V29.92H82.3301ZM82.3301 34.652H81.3301V35.652H82.3301V34.652ZM91.4581 34.652H92.4581V33.652H91.4581V34.652ZM91.4581 38.432V39.432H92.4581V38.432H91.4581ZM82.3301 38.432V37.432H81.3301V38.432H82.3301ZM82.3301 43.22H81.3301V44.22H82.3301V43.22ZM92.0181 43.22H93.0181V42.22H92.0181V43.22ZM92.0181 47V48H93.0181V47H92.0181ZM78.9901 47V26.14H76.9901V47H78.9901ZM77.9901 27.14H92.0181V25.14H77.9901V27.14ZM91.0181 26.14V29.92H93.0181V26.14H91.0181ZM92.0181 28.92H82.3301V30.92H92.0181V28.92ZM81.3301 29.92V34.652H83.3301V29.92H81.3301ZM82.3301 35.652H91.4581V33.652H82.3301V35.652ZM90.4581 34.652V38.432H92.4581V34.652H90.4581ZM91.4581 37.432H82.3301V39.432H91.4581V37.432ZM81.3301 38.432V43.22H83.3301V38.432H81.3301ZM82.3301 44.22H92.0181V42.22H82.3301V44.22ZM91.0181 43.22V47H93.0181V43.22H91.0181ZM92.0181 46H77.9901V48H92.0181V46Z" fill="#1A8FE3" mask="url(#path-1-outside-1_404_3767)"/>
</svg>
